{"glyphs":{"0":{"ha":814,"x_min":0,"x_max":0,"o":"m 407 -28 b 69 556 185 -28 69 233 b 407 1139 69 878 185 1139 b 744 556 629 1139 744 878 b 407 -28 744 233 629 -28 m 407 29 b 585 556 536 29 585 249 b 407 1082 585 864 536 1082 b 229 556 278 1082 229 864 b 407 29 229 249 278 29 "},"1":{"ha":479,"x_min":0,"x_max":0,"o":"m 311 143 b 410 33 311 54 325 33 l 410 0 l 74 0 l 74 33 b 171 143 157 33 171 54 l 171 922 b 65 972 171 1013 169 1028 l 50 1001 l 293 1131 l 311 1111 l 311 143 "},"2":{"ha":724,"x_min":0,"x_max":0,"o":"m 506 124 b 658 254 596 124 624 150 l 690 244 l 643 106 l 607 0 l 14 0 l 14 33 b 489 792 285 318 489 554 b 311 1015 489 921 436 1015 b 82 718 169 1015 90 897 l 50 718 b 385 1139 50 972 178 1139 b 638 864 553 1139 638 1018 b 167 128 638 604 388 333 l 167 124 l 506 124 "},"3":{"ha":690,"x_min":0,"x_max":0,"o":"m 42 82 b 110 136 42 115 71 136 b 193 85 154 136 175 111 b 303 29 217 54 242 29 b 485 279 394 29 485 114 b 219 574 485 489 368 560 l 219 607 b 421 868 343 650 421 735 b 271 1036 421 961 371 1036 b 86 876 165 1036 108 968 l 53 876 b 331 1139 75 1042 179 1139 b 569 890 464 1139 569 1049 b 369 622 569 767 494 679 l 369 618 b 635 314 524 599 635 496 b 278 -28 635 103 465 -28 b 42 82 167 -28 42 10 "},"4":{"ha":769,"x_min":0,"x_max":0,"o":"m 53 419 l 478 1111 l 586 1111 l 586 419 l 708 419 l 708 304 l 586 304 l 586 143 b 685 33 586 54 600 33 l 685 0 l 349 0 l 349 33 b 446 143 432 33 446 54 l 446 304 l 53 304 m 446 419 l 446 969 l 121 424 l 121 419 "},"5":{"ha":682,"x_min":0,"x_max":0,"o":"m 32 76 b 93 132 32 114 56 132 b 175 74 136 132 154 103 b 269 29 193 49 217 29 b 453 385 357 29 453 146 b 275 689 453 603 383 689 b 136 629 217 689 174 668 l 89 663 l 189 1111 l 594 1111 l 565 988 l 236 988 l 171 708 l 176 704 b 340 761 224 743 281 761 b 613 417 492 761 613 622 b 246 -28 613 117 436 -28 b 32 76 129 -28 32 11 "},"6":{"ha":776,"x_min":0,"x_max":0,"o":"m 464 761 b 721 403 633 761 721 596 b 403 -28 721 193 618 -28 b 69 463 190 -28 67 172 b 650 1139 74 790 267 1071 l 650 1106 b 251 647 392 1040 290 838 b 464 761 296 710 369 761 m 403 29 b 561 372 510 29 561 149 b 406 703 561 546 525 703 b 243 599 350 703 293 671 b 229 433 233 539 231 483 b 403 29 226 190 288 29 "},"7":{"ha":725,"x_min":0,"x_max":0,"o":"m 224 8 l 519 983 l 519 988 l 190 988 b 50 836 106 988 76 963 l 17 843 l 50 1001 l 72 1111 l 667 1111 l 319 -17 "},"8":{"ha":721,"x_min":0,"x_max":0,"o":"m 438 625 b 657 256 568 511 657 399 b 358 -28 657 83 529 -28 b 60 242 175 -28 60 92 b 276 576 60 383 157 478 b 88 890 157 686 88 769 b 364 1139 88 1039 208 1139 b 629 904 531 1139 629 1035 b 438 625 629 779 544 710 m 369 1082 b 221 919 281 1082 221 1014 b 386 669 221 839 268 776 b 515 913 482 761 515 829 b 369 1082 515 1007 460 1082 m 363 29 b 524 225 461 29 524 103 b 328 532 524 346 443 428 b 172 240 229 440 172 349 b 363 29 172 132 236 29 "},"9":{"ha":776,"x_min":0,"x_max":0,"o":"m 374 1139 b 707 649 586 1139 710 940 b 126 -28 703 321 510 40 l 126 6 b 525 464 385 71 486 274 b 313 351 481 401 406 351 b 56 710 143 351 56 515 b 374 1139 56 918 158 1139 m 547 678 b 374 1082 550 921 488 1082 b 215 739 265 1082 215 963 b 371 408 215 567 251 408 b 535 515 428 408 483 442 b 547 678 543 574 546 629 "}," ":{"ha":289,"x_min":0,"x_max":0,"o":""},"A":{"ha":1029,"x_min":0,"x_max":0,"o":"m 872 136 b 1015 33 900 51 931 33 l 1015 0 l 594 0 l 594 33 b 699 136 724 33 725 56 l 632 340 l 276 340 l 213 136 b 318 33 188 56 188 33 l 318 0 l 14 0 l 14 33 b 156 136 99 33 128 51 l 474 1143 l 543 1143 l 872 136 m 614 399 l 454 892 l 450 892 l 294 399 "},"Á":{"ha":1029,"x_min":0,"x_max":0,"o":"m 504 1240 l 451 1240 l 544 1494 l 683 1494 m 872 136 b 1015 33 900 51 931 33 l 1015 0 l 594 0 l 594 33 b 699 136 724 33 725 56 l 632 340 l 276 340 l 213 136 b 318 33 188 56 188 33 l 318 0 l 14 0 l 14 33 b 156 136 99 33 128 51 l 474 1143 l 543 1143 l 872 136 m 614 399 l 454 892 l 450 892 l 294 399 "},"Ă":{"ha":1029,"x_min":0,"x_max":0,"o":"m 510 1271 b 318 1469 400 1271 326 1339 l 351 1469 b 510 1374 361 1406 422 1374 b 667 1469 597 1374 657 1406 l 700 1469 b 510 1271 692 1339 618 1271 m 872 136 b 1015 33 900 51 931 33 l 1015 0 l 594 0 l 594 33 b 699 136 724 33 725 56 l 632 340 l 276 340 l 213 136 b 318 33 188 56 188 33 l 318 0 l 14 0 l 14 33 b 156 136 99 33 128 51 l 474 1143 l 543 1143 l 872 136 m 614 399 l 454 892 l 450 892 l 294 399 "},"Â":{"ha":1029,"x_min":0,"x_max":0,"o":"m 363 1235 l 310 1235 l 442 1490 l 576 1490 l 708 1235 l 656 1235 l 510 1414 m 872 136 b 1015 33 900 51 931 33 l 1015 0 l 594 0 l 594 33 b 699 136 724 33 725 56 l 632 340 l 276 340 l 213 136 b 318 33 188 56 188 33 l 318 0 l 14 0 l 14 33 b 156 136 99 33 128 51 l 474 1143 l 543 1143 l 872 136 m 614 399 l 454 892 l 450 892 l 294 399 "},"Ä":{"ha":1029,"x_min":0,"x_max":0,"o":"m 372 1289 b 290 1369 328 1289 290 1325 b 372 1451 290 1415 328 1451 b 454 1369 417 1451 454 1415 b 372 1289 454 1325 417 1289 m 646 1289 b 565 1369 601 1289 565 1325 b 646 1451 565 1415 601 1451 b 728 1369 692 1451 728 1415 b 646 1289 728 1325 692 1289 m 872 136 b 1015 33 900 51 931 33 l 1015 0 l 594 0 l 594 33 b 699 136 724 33 725 56 l 632 340 l 276 340 l 213 136 b 318 33 188 56 188 33 l 318 0 l 14 0 l 14 33 b 156 136 99 33 128 51 l 474 1143 l 543 1143 l 872 136 m 614 399 l 454 892 l 450 892 l 294 399 "},"À":{"ha":1029,"x_min":0,"x_max":0,"o":"m 532 1240 l 353 1494 l 492 1494 l 585 1240 m 872 136 b 1015 33 900 51 931 33 l 1015 0 l 594 0 l 594 33 b 699 136 724 33 725 56 l 632 340 l 276 340 l 213 136 b 318 33 188 56 188 33 l 318 0 l 14 0 l 14 33 b 156 136 99 33 128 51 l 474 1143 l 543 1143 l 872 136 m 614 399 l 454 892 l 450 892 l 294 399 "},"Ā":{"ha":1029,"x_min":0,"x_max":0,"o":"m 714 1331 l 304 1331 l 304 1388 l 714 1388 m 872 136 b 1015 33 900 51 931 33 l 1015 0 l 594 0 l 594 33 b 699 136 724 33 725 56 l 632 340 l 276 340 l 213 136 b 318 33 188 56 188 33 l 318 0 l 14 0 l 14 33 b 156 136 99 33 128 51 l 474 1143 l 543 1143 l 872 136 m 614 399 l 454 892 l 450 892 l 294 399 "},"Ą":{"ha":1029,"x_min":0,"x_max":0,"o":"m 894 0 b 754 -182 836 -64 754 -86 b 847 -272 754 -236 786 -272 b 961 -240 881 -272 910 -264 l 969 -274 b 806 -335 922 -311 871 -335 b 651 -200 724 -335 651 -289 b 858 0 651 -62 803 -44 l 594 0 l 594 33 b 699 136 724 33 725 56 l 632 340 l 276 340 l 213 136 b 318 33 188 56 188 33 l 318 0 l 14 0 l 14 33 b 156 136 99 33 128 51 l 474 1143 l 543 1143 l 872 136 b 1015 33 900 51 931 33 l 1015 0 l 894 0 m 614 399 l 454 892 l 450 892 l 294 399 "},"Å":{"ha":1029,"x_min":0,"x_max":0,"o":"m 510 1239 b 367 1382 426 1239 367 1307 b 510 1522 367 1457 426 1522 b 650 1382 592 1522 650 1457 b 510 1239 650 1307 592 1239 m 510 1471 b 419 1382 449 1471 419 1425 b 510 1292 419 1338 449 1292 b 599 1382 569 1292 599 1338 b 510 1471 599 1425 569 1471 m 872 136 b 1015 33 900 51 931 33 l 1015 0 l 594 0 l 594 33 b 699 136 724 33 725 56 l 632 340 l 276 340 l 213 136 b 318 33 188 56 188 33 l 318 0 l 14 0 l 14 33 b 156 136 99 33 128 51 l 474 1143 l 543 1143 l 872 136 m 614 399 l 454 892 l 450 892 l 294 399 "},"Ã":{"ha":1029,"x_min":0,"x_max":0,"o":"m 399 1383 b 324 1288 347 1383 332 1346 l 290 1288 b 410 1481 299 1379 322 1481 b 621 1385 499 1481 543 1385 b 694 1481 672 1385 688 1422 l 728 1481 b 608 1288 719 1389 696 1288 b 399 1383 521 1288 475 1383 m 872 136 b 1015 33 900 51 931 33 l 1015 0 l 594 0 l 594 33 b 699 136 724 33 725 56 l 632 340 l 276 340 l 213 136 b 318 33 188 56 188 33 l 318 0 l 14 0 l 14 33 b 156 136 99 33 128 51 l 474 1143 l 543 1143 l 872 136 m 614 399 l 454 892 l 450 892 l 294 399 "},"Æ":{"ha":1264,"x_min":0,"x_max":0,"o":"m 1249 299 l 1175 35 l 1165 0 l 476 0 l 476 33 b 625 143 607 33 625 58 l 625 361 l 326 361 l 229 132 b 321 33 196 54 192 33 l 321 0 l 14 0 l 14 33 b 168 132 99 33 132 49 l 526 979 b 433 1078 558 1057 563 1078 l 433 1111 l 1161 1111 l 1165 1074 l 1193 850 l 1160 846 b 1025 1054 1139 1024 1110 1054 l 782 1054 l 782 613 l 940 613 b 1050 775 1025 613 1050 632 l 1083 775 l 1083 392 l 1050 392 b 940 554 1050 535 1025 554 l 782 554 l 782 136 b 847 57 782 71 793 57 l 1038 57 b 1217 307 1122 57 1157 97 m 625 419 l 625 1058 l 621 1058 l 351 419 "},"B":{"ha":893,"x_min":0,"x_max":0,"o":"m 28 33 b 176 143 157 33 176 58 l 176 968 b 28 1078 176 1053 157 1078 l 28 1111 l 468 1111 b 808 832 671 1111 808 1024 b 569 574 808 682 715 590 l 569 569 b 857 290 746 558 857 447 b 454 0 857 71 675 0 l 28 0 m 332 606 b 436 599 368 600 397 599 b 649 831 547 599 649 669 b 436 1054 649 989 547 1054 b 332 1040 397 1054 368 1051 l 332 606 m 332 71 b 433 57 368 61 403 57 b 697 296 561 57 697 106 b 436 540 697 489 543 540 b 332 533 397 540 368 539 l 332 71 "},"C":{"ha":932,"x_min":0,"x_max":0,"o":"m 50 556 b 514 1139 50 892 235 1139 b 771 1061 664 1139 736 1061 b 797 1125 789 1061 797 1069 l 829 1125 l 850 743 l 818 743 b 544 1082 794 981 693 1082 b 221 556 336 1082 221 853 b 540 40 221 258 336 40 b 871 449 714 40 838 194 l 904 449 b 507 -28 867 171 746 -28 b 50 556 228 -28 50 219 "},"Ć":{"ha":932,"x_min":0,"x_max":0,"o":"m 549 1468 l 688 1468 l 508 1214 l 456 1214 m 50 556 b 514 1139 50 892 235 1139 b 771 1061 664 1139 736 1061 b 797 1125 789 1061 797 1069 l 829 1125 l 850 743 l 818 743 b 544 1082 794 981 693 1082 b 221 556 336 1082 221 853 b 540 40 221 258 336 40 b 871 449 714 40 838 194 l 904 449 b 507 -28 867 171 746 -28 b 50 556 228 -28 50 219 "},"Č":{"ha":932,"x_min":0,"x_max":0,"o":"m 315 1464 l 368 1464 l 514 1285 l 661 1464 l 714 1464 l 582 1208 l 447 1208 m 904 449 b 507 -28 867 171 746 -28 b 50 556 228 -28 50 219 b 514 1139 50 892 235 1139 b 771 1061 664 1139 736 1061 b 797 1125 789 1061 797 1069 l 829 1125 l 850 743 l 818 743 b 544 1082 794 981 693 1082 b 221 556 336 1082 221 853 b 540 40 221 258 336 40 b 871 449 714 40 838 194 "},"Ç":{"ha":932,"x_min":0,"x_max":0,"o":"m 904 449 b 558 -25 869 192 764 1 l 511 -85 b 653 -201 579 -90 653 -122 b 329 -356 653 -337 483 -376 l 338 -324 b 550 -214 468 -333 550 -299 b 407 -118 550 -140 489 -119 l 492 -28 b 50 556 222 -19 50 225 b 514 1139 50 892 235 1139 b 771 1061 664 1139 736 1061 b 797 1125 789 1061 797 1069 l 829 1125 l 850 743 l 818 743 b 544 1082 794 981 693 1082 b 221 556 336 1082 221 853 b 540 40 221 258 336 40 b 871 449 714 40 838 194 l 904 449 "},"Ċ":{"ha":932,"x_min":0,"x_max":0,"o":"m 514 1263 b 432 1343 469 1263 432 1299 b 514 1425 432 1389 469 1425 b 596 1343 558 1425 596 1389 b 514 1263 596 1299 558 1263 m 50 556 b 514 1139 50 892 235 1139 b 771 1061 664 1139 736 1061 b 797 1125 789 1061 797 1069 l 829 1125 l 850 743 l 818 743 b 544 1082 794 981 693 1082 b 221 556 336 1082 221 853 b 540 40 221 258 336 40 b 871 449 714 40 838 194 l 904 449 b 507 -28 867 171 746 -28 b 50 556 228 -28 50 219 "},"D":{"ha":1069,"x_min":0,"x_max":0,"o":"m 28 33 b 176 143 157 33 176 58 l 176 968 b 28 1078 176 1053 157 1078 l 28 1111 l 475 1111 b 1019 556 774 1111 1019 936 b 475 0 1019 175 764 0 l 28 0 m 475 57 b 849 556 715 57 849 249 b 475 1054 849 863 715 1054 b 332 1029 417 1054 371 1047 l 332 82 b 475 57 371 64 417 57 "},"Ð":{"ha":1069,"x_min":0,"x_max":0,"o":"m 475 1111 b 1019 556 774 1111 1019 936 b 475 0 1019 175 764 0 l 28 0 l 28 33 b 176 143 157 33 176 58 l 176 576 l 56 576 l 56 618 l 176 618 l 176 968 b 28 1078 176 1053 157 1078 l 28 1111 l 475 1111 m 475 57 b 849 556 715 57 849 249 b 475 1054 849 863 715 1054 b 332 1029 417 1054 371 1047 l 332 618 l 579 618 l 579 576 l 332 576 l 332 82 b 475 57 371 64 417 57 "},"Ď":{"ha":1069,"x_min":0,"x_max":0,"o":"m 294 1464 l 347 1464 l 493 1285 l 640 1464 l 693 1464 l 561 1208 l 426 1208 m 475 1111 b 1019 556 774 1111 1019 936 b 475 0 1019 175 764 0 l 28 0 l 28 33 b 176 143 157 33 176 58 l 176 968 b 28 1078 176 1053 157 1078 l 28 1111 l 475 1111 m 475 57 b 849 556 715 57 849 249 b 475 1054 849 863 715 1054 b 332 1029 417 1054 371 1047 l 332 82 b 475 57 371 64 417 57 "},"Đ":{"ha":1069,"x_min":0,"x_max":0,"o":"m 475 1111 b 1019 556 774 1111 1019 936 b 475 0 1019 175 764 0 l 28 0 l 28 33 b 176 143 157 33 176 58 l 176 576 l 56 576 l 56 618 l 176 618 l 176 968 b 28 1078 176 1053 157 1078 l 28 1111 l 475 1111 m 475 57 b 849 556 715 57 849 249 b 475 1054 849 863 715 1054 b 332 1029 417 1054 371 1047 l 332 618 l 579 618 l 579 576 l 332 576 l 332 82 b 475 57 371 64 417 57 "},"E":{"ha":874,"x_min":0,"x_max":0,"o":"m 771 1074 l 797 850 l 764 846 b 629 1054 743 1024 714 1054 l 332 1054 l 332 613 l 514 613 b 624 775 599 613 624 632 l 657 775 l 657 392 l 624 392 b 514 554 624 535 599 554 l 332 554 l 332 136 b 397 57 332 71 343 57 l 647 57 b 826 307 732 57 768 97 l 858 299 l 785 35 l 775 0 l 28 0 l 28 33 b 176 143 157 33 176 58 l 176 968 b 28 1078 176 1053 157 1078 l 28 1111 l 767 1111 "},"É":{"ha":874,"x_min":0,"x_max":0,"o":"m 475 1468 l 614 1468 l 435 1214 l 382 1214 m 771 1074 l 797 850 l 764 846 b 629 1054 743 1024 714 1054 l 332 1054 l 332 613 l 514 613 b 624 775 599 613 624 632 l 657 775 l 657 392 l 624 392 b 514 554 624 535 599 554 l 332 554 l 332 136 b 397 57 332 71 343 57 l 647 57 b 826 307 732 57 768 97 l 858 299 l 785 35 l 775 0 l 28 0 l 28 33 b 176 143 157 33 176 58 l 176 968 b 28 1078 176 1053 157 1078 l 28 1111 l 767 1111 "},"Ě":{"ha":874,"x_min":0,"x_max":0,"o":"m 240 1464 l 293 1464 l 439 1285 l 586 1464 l 639 1464 l 507 1208 l 372 1208 m 858 299 l 785 35 l 775 0 l 28 0 l 28 33 b 176 143 157 33 176 58 l 176 968 b 28 1078 176 1053 157 1078 l 28 1111 l 767 1111 l 771 1074 l 797 850 l 764 846 b 629 1054 743 1024 714 1054 l 332 1054 l 332 613 l 514 613 b 624 775 599 613 624 632 l 657 775 l 657 392 l 624 392 b 514 554 624 535 599 554 l 332 554 l 332 136 b 397 57 332 71 343 57 l 647 57 b 826 307 732 57 768 97 "},"Ê":{"ha":874,"x_min":0,"x_max":0,"o":"m 293 1208 l 240 1208 l 372 1464 l 507 1464 l 639 1208 l 586 1208 l 440 1388 m 858 299 l 785 35 l 775 0 l 28 0 l 28 33 b 176 143 157 33 176 58 l 176 968 b 28 1078 176 1053 157 1078 l 28 1111 l 767 1111 l 771 1074 l 797 850 l 764 846 b 629 1054 743 1024 714 1054 l 332 1054 l 332 613 l 514 613 b 624 775 599 613 624 632 l 657 775 l 657 392 l 624 392 b 514 554 624 535 599 554 l 332 554 l 332 136 b 397 57 332 71 343 57 l 647 57 b 826 307 732 57 768 97 "},"Ë":{"ha":874,"x_min":0,"x_max":0,"o":"m 303 1263 b 221 1343 258 1263 221 1299 b 303 1425 221 1389 258 1425 b 385 1343 347 1425 385 1389 b 303 1263 385 1299 347 1263 m 576 1263 b 496 1343 532 1263 496 1299 b 576 1425 496 1389 532 1425 b 658 1343 622 1425 658 1389 b 576 1263 658 1299 622 1263 m 771 1074 l 797 850 l 764 846 b 629 1054 743 1024 714 1054 l 332 1054 l 332 613 l 514 613 b 624 775 599 613 624 632 l 657 775 l 657 392 l 624 392 b 514 554 624 535 599 554 l 332 554 l 332 136 b 397 57 332 71 343 57 l 647 57 b 826 307 732 57 768 97 l 858 299 l 785 35 l 775 0 l 28 0 l 28 33 b 176 143 157 33 176 58 l 176 968 b 28 1078 176 1053 157 1078 l 28 1111 l 767 1111 "},"Ė":{"ha":874,"x_min":0,"x_max":0,"o":"m 440 1263 b 358 1343 396 1263 358 1299 b 440 1425 358 1389 396 1425 b 522 1343 485 1425 522 1389 b 440 1263 522 1299 485 1263 m 771 1074 l 797 850 l 764 846 b 629 1054 743 1024 714 1054 l 332 1054 l 332 613 l 514 613 b 624 775 599 613 624 632 l 657 775 l 657 392 l 624 392 b 514 554 624 535 599 554 l 332 554 l 332 136 b 397 57 332 71 343 57 l 647 57 b 826 307 732 57 768 97 l 858 299 l 785 35 l 775 0 l 28 0 l 28 33 b 176 143 157 33 176 58 l 176 968 b 28 1078 176 1053 157 1078 l 28 1111 l 767 1111 "},"È":{"ha":874,"x_min":0,"x_max":0,"o":"m 463 1214 l 283 1468 l 422 1468 l 515 1214 m 771 1074 l 797 850 l 764 846 b 629 1054 743 1024 714 1054 l 332 1054 l 332 613 l 514 613 b 624 775 599 613 624 632 l 657 775 l 657 392 l 624 392 b 514 554 624 535 599 554 l 332 554 l 332 136 b 397 57 332 71 343 57 l 647 57 b 826 307 732 57 768 97 l 858 299 l 785 35 l 775 0 l 28 0 l 28 33 b 176 143 157 33 176 58 l 176 968 b 28 1078 176 1053 157 1078 l 28 1111 l 767 1111 "},"Ē":{"ha":874,"x_min":0,"x_max":0,"o":"m 644 1361 l 644 1304 l 235 1304 l 235 1361 m 771 1074 l 797 850 l 764 846 b 629 1054 743 1024 714 1054 l 332 1054 l 332 613 l 514 613 b 624 775 599 613 624 632 l 657 775 l 657 392 l 624 392 b 514 554 624 535 599 554 l 332 554 l 332 136 b 397 57 332 71 343 57 l 647 57 b 826 307 732 57 768 97 l 858 299 l 785 35 l 775 0 l 28 0 l 28 33 b 176 143 157 33 176 58 l 176 968 b 28 1078 176 1053 157 1078 l 28 1111 l 767 1111 "},"Ę":{"ha":874,"x_min":0,"x_max":0,"o":"m 728 -272 b 842 -240 761 -272 790 -264 l 850 -274 b 686 -335 803 -311 751 -335 b 532 -200 604 -335 532 -289 b 739 0 532 -62 683 -44 l 28 0 l 28 33 b 176 143 157 33 176 58 l 176 968 b 28 1078 176 1053 157 1078 l 28 1111 l 767 1111 l 771 1074 l 797 850 l 764 846 b 629 1054 743 1024 714 1054 l 332 1054 l 332 613 l 514 613 b 624 775 599 613 624 632 l 657 775 l 657 392 l 624 392 b 514 554 624 535 599 554 l 332 554 l 332 136 b 397 57 332 71 343 57 l 647 57 b 826 307 732 57 768 97 l 858 299 l 785 35 l 775 0 b 635 -182 717 -64 635 -86 b 728 -272 635 -236 667 -272 "},"F":{"ha":872,"x_min":0,"x_max":0,"o":"m 838 1074 l 858 849 l 825 846 b 696 1054 808 1025 781 1054 l 332 1054 l 332 575 l 538 575 b 647 739 622 575 647 596 l 681 739 l 681 356 l 647 356 b 538 518 647 497 622 518 l 332 518 l 332 143 b 481 33 332 58 351 33 l 481 0 l 28 0 l 28 33 b 176 143 157 33 176 58 l 176 968 b 28 1078 176 1053 157 1078 l 28 1111 l 835 1111 "},"G":{"ha":1076,"x_min":0,"x_max":0,"o":"m 50 550 b 550 1139 50 879 239 1139 b 826 1067 731 1139 792 1067 b 850 1125 844 1067 850 1075 l 883 1125 l 904 743 l 871 743 b 572 1082 847 971 760 1082 b 221 550 329 1082 221 847 b 576 29 221 253 315 29 b 786 110 674 29 743 68 l 786 438 b 529 547 786 522 754 547 l 529 581 l 1044 581 l 1044 547 b 946 438 960 547 946 526 l 946 118 b 569 -28 836 13 713 -28 b 50 550 238 -28 50 222 "},"Ğ":{"ha":1076,"x_min":0,"x_max":0,"o":"m 744 1443 b 554 1244 736 1313 663 1244 b 363 1443 444 1244 371 1313 l 396 1443 b 554 1347 406 1379 467 1347 b 711 1443 642 1347 701 1379 l 744 1443 m 50 550 b 550 1139 50 879 239 1139 b 826 1067 731 1139 792 1067 b 850 1125 844 1067 850 1075 l 883 1125 l 904 743 l 871 743 b 572 1082 847 971 760 1082 b 221 550 329 1082 221 847 b 576 29 221 253 315 29 b 786 110 674 29 743 68 l 786 438 b 529 547 786 522 754 547 l 529 581 l 1044 581 l 1044 547 b 946 438 960 547 946 526 l 946 118 b 569 -28 836 13 713 -28 b 50 550 238 -28 50 222 "},"Ģ":{"ha":1076,"x_min":0,"x_max":0,"o":"m 50 550 b 550 1139 50 879 239 1139 b 826 1067 731 1139 792 1067 b 850 1125 844 1067 850 1075 l 883 1125 l 904 743 l 871 743 b 572 1082 847 971 760 1082 b 221 550 329 1082 221 847 b 576 29 221 253 315 29 b 786 110 674 29 743 68 l 786 438 b 529 547 786 522 754 547 l 529 581 l 1044 581 l 1044 547 b 946 438 960 547 946 526 l 946 118 b 569 -28 836 13 713 -28 b 50 550 238 -28 50 222 m 567 -229 b 521 -169 543 -229 521 -207 b 593 -103 521 -125 554 -103 b 679 -199 644 -103 679 -140 b 536 -343 679 -264 638 -318 l 536 -310 b 625 -236 576 -300 625 -274 b 611 -215 625 -226 622 -215 b 567 -229 600 -215 590 -229 "},"Ġ":{"ha":1076,"x_min":0,"x_max":0,"o":"m 554 1263 b 472 1343 510 1263 472 1299 b 554 1425 472 1389 510 1425 b 636 1343 599 1425 636 1389 b 554 1263 636 1299 599 1263 m 50 550 b 550 1139 50 879 239 1139 b 826 1067 731 1139 792 1067 b 850 1125 844 1067 850 1075 l 883 1125 l 904 743 l 871 743 b 572 1082 847 971 760 1082 b 221 550 329 1082 221 847 b 576 29 221 253 315 29 b 786 110 674 29 743 68 l 786 438 b 529 547 786 522 754 547 l 529 581 l 1044 581 l 1044 547 b 946 438 960 547 946 526 l 946 118 b 569 -28 836 13 713 -28 b 50 550 238 -28 50 222 "},"H":{"ha":1076,"x_min":0,"x_max":0,"o":"m 1049 1078 b 900 968 918 1078 900 1053 l 900 143 b 1049 33 900 58 918 33 l 1049 0 l 596 0 l 596 33 b 743 143 725 33 743 58 l 743 560 l 332 560 l 332 143 b 481 33 332 58 351 33 l 481 0 l 28 0 l 28 33 b 176 143 157 33 176 58 l 176 968 b 28 1078 176 1053 157 1078 l 28 1111 l 481 1111 l 481 1078 b 332 968 351 1078 332 1053 l 332 617 l 743 617 l 743 968 b 596 1078 743 1053 725 1078 l 596 1111 l 1049 1111 l 1049 1078 "},"Ħ":{"ha":1115,"x_min":0,"x_max":0,"o":"m 906 832 l 906 143 b 1054 33 906 58 925 33 l 1054 0 l 601 0 l 601 33 b 750 143 731 33 750 58 l 750 560 l 339 560 l 339 143 b 486 33 339 58 357 33 l 486 0 l 33 0 l 33 33 b 182 143 164 33 182 58 l 182 832 l 47 832 l 47 874 l 182 874 l 182 968 b 33 1078 182 1053 164 1078 l 33 1111 l 486 1111 l 486 1078 b 339 968 357 1078 339 1053 l 339 874 l 750 874 l 750 968 b 601 1078 750 1053 731 1078 l 601 1111 l 1054 1111 l 1054 1078 b 906 968 925 1078 906 1053 l 906 874 l 1069 874 l 1069 832 m 750 832 l 339 832 l 339 617 l 750 617 "},"I":{"ha":508,"x_min":0,"x_max":0,"o":"m 176 968 b 28 1078 176 1053 157 1078 l 28 1111 l 481 1111 l 481 1078 b 332 968 351 1078 332 1053 l 332 143 b 481 33 332 58 351 33 l 481 0 l 28 0 l 28 33 b 176 143 157 33 176 58 l 176 968 "},"Í":{"ha":508,"x_min":0,"x_max":0,"o":"m 289 1468 l 428 1468 l 249 1214 l 196 1214 m 176 968 b 28 1078 176 1053 157 1078 l 28 1111 l 481 1111 l 481 1078 b 332 968 351 1078 332 1053 l 332 143 b 481 33 332 58 351 33 l 481 0 l 28 0 l 28 33 b 176 143 157 33 176 58 l 176 968 "},"Î":{"ha":508,"x_min":0,"x_max":0,"o":"m 107 1208 l 54 1208 l 186 1464 l 321 1464 l 453 1208 l 400 1208 l 254 1388 m 481 1078 b 332 968 351 1078 332 1053 l 332 143 b 481 33 332 58 351 33 l 481 0 l 28 0 l 28 33 b 176 143 157 33 176 58 l 176 968 b 28 1078 176 1053 157 1078 l 28 1111 l 481 1111 l 481 1078 "},"Ï":{"ha":508,"x_min":0,"x_max":0,"o":"m 117 1263 b 35 1343 72 1263 35 1299 b 117 1425 35 1389 72 1425 b 199 1343 161 1425 199 1389 b 117 1263 199 1299 161 1263 m 390 1263 b 310 1343 346 1263 310 1299 b 390 1425 310 1389 346 1425 b 472 1343 436 1425 472 1389 b 390 1263 472 1299 436 1263 m 176 968 b 28 1078 176 1053 157 1078 l 28 1111 l 481 1111 l 481 1078 b 332 968 351 1078 332 1053 l 332 143 b 481 33 332 58 351 33 l 481 0 l 28 0 l 28 33 b 176 143 157 33 176 58 l 176 968 "},"İ":{"ha":508,"x_min":0,"x_max":0,"o":"m 254 1263 b 172 1343 210 1263 172 1299 b 254 1425 172 1389 210 1425 b 336 1343 299 1425 336 1389 b 254 1263 336 1299 299 1263 m 176 968 b 28 1078 176 1053 157 1078 l 28 1111 l 481 1111 l 481 1078 b 332 968 351 1078 332 1053 l 332 143 b 481 33 332 58 351 33 l 481 0 l 28 0 l 28 33 b 176 143 157 33 176 58 l 176 968 "},"Ì":{"ha":508,"x_min":0,"x_max":0,"o":"m 278 1214 l 99 1468 l 238 1468 l 331 1214 m 176 968 b 28 1078 176 1053 157 1078 l 28 1111 l 481 1111 l 481 1078 b 332 968 351 1078 332 1053 l 332 143 b 481 33 332 58 351 33 l 481 0 l 28 0 l 28 33 b 176 143 157 33 176 58 l 176 968 "},"Ī":{"ha":508,"x_min":0,"x_max":0,"o":"m 458 1361 l 458 1304 l 49 1304 l 49 1361 m 176 968 b 28 1078 176 1053 157 1078 l 28 1111 l 481 1111 l 481 1078 b 332 968 351 1078 332 1053 l 332 143 b 481 33 332 58 351 33 l 481 0 l 28 0 l 28 33 b 176 143 157 33 176 58 l 176 968 "},"Į":{"ha":508,"x_min":0,"x_max":0,"o":"m 481 1078 b 332 968 351 1078 332 1053 l 332 143 b 481 33 332 58 351 33 l 481 0 l 393 0 b 253 -182 335 -64 253 -86 b 346 -272 253 -236 285 -272 b 460 -240 379 -272 408 -264 l 468 -274 b 304 -335 421 -311 369 -335 b 150 -200 222 -335 150 -289 b 357 0 150 -62 301 -44 l 28 0 l 28 33 b 176 143 157 33 176 58 l 176 968 b 28 1078 176 1053 157 1078 l 28 1111 l 481 1111 l 481 1078 "},"J":{"ha":621,"x_min":0,"x_max":0,"o":"m 288 968 b 140 1078 288 1053 269 1078 l 140 1111 l 593 1111 l 593 1078 b 444 968 463 1078 444 1053 l 444 332 b 224 -28 444 63 361 -28 b 28 128 85 -28 28 43 b 101 204 28 181 64 204 b 174 136 139 204 174 185 b 214 29 174 89 160 29 b 288 263 278 29 288 108 "},"K":{"ha":1119,"x_min":0,"x_max":0,"o":"m 171 968 b 22 1078 171 1053 153 1078 l 22 1111 l 475 1111 l 475 1078 b 328 968 346 1078 328 1053 l 328 143 b 475 33 328 58 346 33 l 475 0 l 22 0 l 22 33 b 171 143 153 33 171 58 l 171 968 m 910 117 b 1092 33 963 43 1007 33 l 1092 0 l 672 0 l 672 33 b 717 115 783 33 769 43 l 371 582 l 731 1001 b 686 1078 789 1071 804 1078 l 686 1111 l 994 1111 l 994 1078 b 804 1001 910 1078 863 1071 l 519 661 l 910 117 "},"Ķ":{"ha":1119,"x_min":0,"x_max":0,"o":"m 171 968 b 22 1078 171 1053 153 1078 l 22 1111 l 475 1111 l 475 1078 b 328 968 346 1078 328 1053 l 328 143 b 475 33 328 58 346 33 l 475 0 l 22 0 l 22 33 b 171 143 153 33 171 58 l 171 968 m 910 117 b 1092 33 963 43 1007 33 l 1092 0 l 672 0 l 672 33 b 717 115 783 33 769 43 l 371 582 l 731 1001 b 686 1078 789 1071 804 1078 l 686 1111 l 994 1111 l 994 1078 b 804 1001 910 1078 863 1071 l 519 661 l 910 117 m 561 -229 b 515 -169 538 -229 515 -207 b 588 -103 515 -125 549 -103 b 674 -199 639 -103 674 -140 b 531 -343 674 -264 632 -318 l 531 -310 b 619 -236 571 -300 619 -274 b 606 -215 619 -226 617 -215 b 561 -229 594 -215 585 -229 "},"L":{"ha":857,"x_min":0,"x_max":0,"o":"m 481 1078 b 332 968 351 1078 332 1053 l 332 150 b 418 57 332 71 349 57 l 628 57 b 804 319 713 57 747 97 l 836 311 l 765 33 l 757 0 l 28 0 l 28 33 b 176 143 157 33 176 58 l 176 968 b 28 1078 176 1053 157 1078 l 28 1111 l 481 1111 "},"Ĺ":{"ha":857,"x_min":0,"x_max":0,"o":"m 340 1469 l 479 1469 l 300 1214 l 247 1214 m 481 1078 b 332 968 351 1078 332 1053 l 332 150 b 418 57 332 71 349 57 l 628 57 b 804 319 713 57 747 97 l 836 311 l 765 33 l 757 0 l 28 0 l 28 33 b 176 143 157 33 176 58 l 176 968 b 28 1078 176 1053 157 1078 l 28 1111 l 481 1111 "},"Ľ":{"ha":879,"x_min":0,"x_max":0,"o":"m 656 1139 l 794 1139 l 615 885 l 563 885 m 481 1078 b 332 968 351 1078 332 1053 l 332 150 b 418 57 332 71 349 57 l 628 57 b 804 319 713 57 747 97 l 836 311 l 765 33 l 757 0 l 28 0 l 28 33 b 176 143 157 33 176 58 l 176 968 b 28 1078 176 1053 157 1078 l 28 1111 l 481 1111 "},"Ļ":{"ha":857,"x_min":0,"x_max":0,"o":"m 481 1078 b 332 968 351 1078 332 1053 l 332 150 b 418 57 332 71 349 57 l 628 57 b 804 319 713 57 747 97 l 836 311 l 765 33 l 757 0 l 28 0 l 28 33 b 176 143 157 33 176 58 l 176 968 b 28 1078 176 1053 157 1078 l 28 1111 l 481 1111 m 425 -229 b 379 -169 400 -229 379 -207 b 451 -103 379 -125 411 -103 b 536 -199 503 -103 536 -140 b 393 -343 536 -264 496 -318 l 393 -310 b 482 -236 435 -300 482 -274 b 468 -215 482 -226 479 -215 b 425 -229 457 -215 449 -229 "},"Ł":{"ha":857,"x_min":0,"x_max":0,"o":"m 836 311 l 765 33 l 757 0 l 28 0 l 28 33 b 176 143 157 33 176 58 l 176 461 l 68 399 l 47 435 l 176 510 l 176 968 b 28 1078 176 1053 157 1078 l 28 1111 l 481 1111 l 481 1078 b 332 968 351 1078 332 1053 l 332 600 l 650 785 l 671 749 l 332 551 l 332 150 b 418 57 332 71 349 57 l 628 57 b 804 319 713 57 747 97 "},"M":{"ha":1314,"x_min":0,"x_max":0,"o":"m 663 244 l 944 1111 l 1286 1111 l 1286 1078 b 1138 968 1157 1078 1138 1053 l 1138 143 b 1286 33 1138 58 1157 33 l 1286 0 l 833 0 l 833 33 b 982 143 963 33 982 58 l 982 1031 l 978 1031 l 639 -32 l 569 -32 l 235 1017 l 231 1017 l 233 143 b 382 33 233 58 251 33 l 382 0 l 28 0 l 28 33 b 176 143 157 33 176 58 l 176 968 b 28 1078 176 1053 157 1078 l 28 1111 l 376 1111 l 658 244 "},"N":{"ha":1072,"x_min":0,"x_max":0,"o":"m 1044 1078 b 897 968 915 1078 897 1053 l 897 -32 l 828 -32 l 233 935 l 233 143 b 382 33 233 58 253 33 l 382 0 l 28 0 l 28 33 b 176 143 157 33 176 58 l 176 1024 b 28 1078 139 1069 97 1078 l 28 1111 l 318 1111 l 835 269 l 839 269 l 839 968 b 692 1078 839 1053 821 1078 l 692 1111 l 1044 1111 "},"Ń":{"ha":1072,"x_min":0,"x_max":0,"o":"m 518 1214 l 465 1214 l 558 1468 l 697 1468 m 1044 1078 b 897 968 915 1078 897 1053 l 897 -32 l 828 -32 l 233 935 l 233 143 b 382 33 233 58 253 33 l 382 0 l 28 0 l 28 33 b 176 143 157 33 176 58 l 176 1024 b 28 1078 139 1069 97 1078 l 28 1111 l 318 1111 l 835 269 l 839 269 l 839 968 b 692 1078 839 1053 821 1078 l 692 1111 l 1044 1111 "},"Ň":{"ha":1072,"x_min":0,"x_max":0,"o":"m 324 1464 l 376 1464 l 522 1285 l 669 1464 l 722 1464 l 590 1208 l 456 1208 m 1044 1078 b 897 968 915 1078 897 1053 l 897 -32 l 828 -32 l 233 935 l 233 143 b 382 33 233 58 253 33 l 382 0 l 28 0 l 28 33 b 176 143 157 33 176 58 l 176 1024 b 28 1078 139 1069 97 1078 l 28 1111 l 318 1111 l 835 269 l 839 269 l 839 968 b 692 1078 839 1053 821 1078 l 692 1111 l 1044 1111 "},"Ņ":{"ha":1072,"x_min":0,"x_max":0,"o":"m 1044 1078 b 897 968 915 1078 897 1053 l 897 -32 l 828 -32 l 233 935 l 233 143 b 382 33 233 58 253 33 l 382 0 l 28 0 l 28 33 b 176 143 157 33 176 58 l 176 1024 b 28 1078 139 1069 97 1078 l 28 1111 l 318 1111 l 835 269 l 839 269 l 839 968 b 692 1078 839 1053 821 1078 l 692 1111 l 1044 1111 m 579 -103 b 665 -199 631 -103 665 -140 b 522 -343 665 -264 624 -318 l 522 -310 b 611 -236 563 -300 611 -274 b 597 -215 611 -226 608 -215 b 553 -229 586 -215 576 -229 b 507 -169 529 -229 507 -207 b 579 -103 507 -125 540 -103 "},"Ŋ":{"ha":1072,"x_min":0,"x_max":0,"o":"m 1044 1078 b 897 968 915 1078 897 1053 l 897 -39 b 700 -333 897 -203 856 -333 b 522 -200 585 -333 522 -272 b 594 -129 522 -153 554 -129 b 668 -201 633 -129 668 -151 b 731 -276 668 -247 672 -276 b 839 -47 813 -276 839 -168 l 839 -32 l 828 -32 l 233 935 l 233 143 b 382 33 233 58 253 33 l 382 0 l 28 0 l 28 33 b 176 143 157 33 176 58 l 176 1024 b 28 1078 139 1069 97 1078 l 28 1111 l 318 1111 l 835 269 l 839 269 l 839 968 b 692 1078 839 1053 821 1078 l 692 1111 l 1044 1111 "},"Ñ":{"ha":1072,"x_min":0,"x_max":0,"o":"m 413 1357 b 338 1261 361 1357 346 1319 l 304 1261 b 424 1454 313 1353 336 1454 b 635 1358 513 1454 557 1358 b 708 1454 686 1358 701 1396 l 742 1454 b 622 1261 733 1363 710 1261 b 413 1357 535 1261 489 1357 m 1044 1078 b 897 968 915 1078 897 1053 l 897 -32 l 828 -32 l 233 935 l 233 143 b 382 33 233 58 253 33 l 382 0 l 28 0 l 28 33 b 176 143 157 33 176 58 l 176 1024 b 28 1078 139 1069 97 1078 l 28 1111 l 318 1111 l 835 269 l 839 269 l 839 968 b 692 1078 839 1053 821 1078 l 692 1111 l 1044 1111 "},"O":{"ha":975,"x_min":0,"x_max":0,"o":"m 488 -28 b 50 556 211 -28 50 235 b 488 1139 50 876 211 1139 b 925 556 765 1139 925 876 b 488 -28 925 235 765 -28 m 533 26 b 753 579 694 42 783 228 b 442 1086 722 929 601 1100 b 221 532 281 1071 190 883 b 533 26 253 182 371 13 "},"Ó":{"ha":975,"x_min":0,"x_max":0,"o":"m 522 1468 l 661 1468 l 482 1214 l 429 1214 m 488 -28 b 50 556 211 -28 50 235 b 488 1139 50 876 211 1139 b 925 556 765 1139 925 876 b 488 -28 925 235 765 -28 m 533 26 b 753 579 694 42 783 228 b 442 1086 722 929 601 1100 b 221 532 281 1071 190 883 b 533 26 253 182 371 13 "},"Ô":{"ha":975,"x_min":0,"x_max":0,"o":"m 342 1208 l 289 1208 l 421 1464 l 556 1464 l 688 1208 l 635 1208 l 489 1388 m 488 1139 b 925 556 765 1139 925 876 b 488 -28 925 235 765 -28 b 50 556 211 -28 50 235 b 488 1139 50 876 211 1139 m 533 26 b 753 579 694 42 783 228 b 442 1086 722 929 601 1100 b 221 532 281 1071 190 883 b 533 26 253 182 371 13 "},"Ö":{"ha":975,"x_min":0,"x_max":0,"o":"m 351 1263 b 269 1343 307 1263 269 1299 b 351 1425 269 1389 307 1425 b 433 1343 396 1425 433 1389 b 351 1263 433 1299 396 1263 m 625 1263 b 544 1343 581 1263 544 1299 b 625 1425 544 1389 581 1425 b 707 1343 671 1425 707 1389 b 625 1263 707 1299 671 1263 m 488 -28 b 50 556 211 -28 50 235 b 488 1139 50 876 211 1139 b 925 556 765 1139 925 876 b 488 -28 925 235 765 -28 m 533 26 b 753 579 694 42 783 228 b 442 1086 722 929 601 1100 b 221 532 281 1071 190 883 b 533 26 253 182 371 13 "},"Ò":{"ha":975,"x_min":0,"x_max":0,"o":"m 511 1214 l 332 1468 l 471 1468 l 564 1214 m 488 -28 b 50 556 211 -28 50 235 b 488 1139 50 876 211 1139 b 925 556 765 1139 925 876 b 488 -28 925 235 765 -28 m 533 26 b 753 579 694 42 783 228 b 442 1086 722 929 601 1100 b 221 532 281 1071 190 883 b 533 26 253 182 371 13 "},"Ő":{"ha":975,"x_min":0,"x_max":0,"o":"m 418 1468 l 518 1468 l 386 1214 l 344 1214 m 574 1468 l 672 1468 l 531 1214 l 489 1214 m 488 -28 b 50 556 211 -28 50 235 b 488 1139 50 876 211 1139 b 925 556 765 1139 925 876 b 488 -28 925 235 765 -28 m 533 26 b 753 579 694 42 783 228 b 442 1086 722 929 601 1100 b 221 532 281 1071 190 883 b 533 26 253 182 371 13 "},"Ō":{"ha":975,"x_min":0,"x_max":0,"o":"m 693 1361 l 693 1304 l 283 1304 l 283 1361 m 488 -28 b 50 556 211 -28 50 235 b 488 1139 50 876 211 1139 b 925 556 765 1139 925 876 b 488 -28 925 235 765 -28 m 533 26 b 753 579 694 42 783 228 b 442 1086 722 929 601 1100 b 221 532 281 1071 190 883 b 533 26 253 182 371 13 "},"Ø":{"ha":1003,"x_min":0,"x_max":0,"o":"m 783 1003 b 925 556 875 896 925 735 b 488 -28 925 235 765 -28 b 240 61 390 -28 307 4 l 147 -101 l 111 -81 l 210 90 b 50 556 107 197 50 365 b 488 1139 50 876 211 1139 b 753 1033 594 1139 683 1100 l 857 1214 l 893 1193 l 783 1003 m 221 532 b 288 225 232 406 256 303 l 679 906 b 442 1086 622 1033 539 1094 b 221 532 281 1071 190 883 m 533 26 b 753 579 694 42 783 228 b 699 856 743 689 725 782 l 308 178 b 533 26 364 69 442 18 "},"Õ":{"ha":975,"x_min":0,"x_max":0,"o":"m 588 1261 b 378 1357 500 1261 454 1357 b 303 1261 326 1357 311 1319 l 269 1261 b 389 1454 278 1353 301 1454 b 600 1358 478 1454 522 1358 b 674 1454 651 1358 667 1396 l 707 1454 b 588 1261 699 1363 675 1261 m 488 -28 b 50 556 211 -28 50 235 b 488 1139 50 876 211 1139 b 925 556 765 1139 925 876 b 488 -28 925 235 765 -28 m 533 26 b 753 579 694 42 783 228 b 442 1086 722 929 601 1100 b 221 532 281 1071 190 883 b 533 26 253 182 371 13 "},"Œ":{"ha":1308,"x_min":0,"x_max":0,"o":"m 1293 299 l 1219 35 l 1210 0 l 744 0 b 494 -14 657 0 604 -14 b 50 556 210 -14 50 235 b 494 1125 50 876 210 1125 b 744 1111 604 1125 657 1111 l 1206 1111 l 1210 1074 l 1238 850 l 1204 846 b 1069 1054 1183 1024 1154 1054 l 792 1054 l 792 613 l 964 613 b 1074 775 1049 613 1074 632 l 1107 775 l 1107 392 l 1074 392 b 964 554 1074 535 1049 554 l 792 554 l 792 136 b 857 57 792 71 803 57 l 1082 57 b 1261 307 1167 57 1201 97 m 481 43 b 632 94 533 43 571 53 l 632 1018 b 481 1069 571 1061 533 1071 b 221 556 307 1064 221 853 b 481 43 221 258 307 43 "},"P":{"ha":899,"x_min":0,"x_max":0,"o":"m 28 33 b 176 143 157 33 176 58 l 176 968 b 28 1078 176 1053 157 1078 l 28 1111 l 460 1111 b 854 790 707 1111 854 1008 b 521 474 854 574 694 474 b 332 503 451 474 390 486 l 332 143 b 481 33 332 58 351 33 l 481 0 l 28 0 m 478 532 b 683 790 596 532 683 626 b 454 1054 683 965 582 1054 b 332 1029 408 1054 371 1046 l 332 560 b 478 532 379 543 422 532 "},"Þ":{"ha":896,"x_min":0,"x_max":0,"o":"m 28 33 b 176 143 157 33 176 58 l 176 968 b 28 1078 176 1053 157 1078 l 28 1111 l 481 1111 l 481 1078 b 332 968 351 1078 332 1053 l 332 876 l 460 876 b 854 556 707 876 854 774 b 521 240 854 339 694 240 b 332 272 451 240 390 256 l 332 143 b 481 33 332 58 351 33 l 481 0 l 28 0 m 478 297 b 683 556 596 297 683 392 b 454 819 683 732 582 819 b 332 794 408 819 371 811 l 332 326 b 478 297 379 308 422 297 "},"Q":{"ha":967,"x_min":0,"x_max":0,"o":"m 1049 -133 b 801 -267 985 -199 907 -267 b 431 -158 656 -267 596 -158 b 229 -196 372 -158 326 -168 l 206 -101 b 457 -26 279 -85 371 -60 b 50 556 200 -8 50 247 b 488 1139 50 876 211 1139 b 925 556 765 1139 925 876 b 763 86 925 364 868 193 l 742 67 b 733 58 739 64 736 61 b 326 -114 613 -42 425 -92 l 328 -119 b 478 -101 392 -107 432 -101 b 814 -183 618 -101 697 -183 b 1024 -101 901 -183 954 -156 m 221 532 b 533 26 253 182 371 13 b 753 579 694 42 783 228 b 442 1086 722 929 601 1100 b 221 532 281 1071 190 883 "},"R":{"ha":960,"x_min":0,"x_max":0,"o":"m 774 128 b 936 33 814 47 853 33 l 936 0 l 825 0 b 608 119 696 0 660 3 l 399 539 l 369 539 l 332 539 l 332 143 b 481 33 332 58 351 33 l 481 0 l 28 0 l 28 33 b 176 143 157 33 176 58 l 176 968 b 28 1078 176 1053 157 1078 l 28 1111 l 447 1111 b 804 831 679 1111 804 1014 b 469 543 804 615 633 557 l 481 543 l 481 539 b 646 385 544 524 596 488 l 774 128 m 369 596 b 644 833 479 594 644 631 b 442 1054 644 982 558 1054 b 332 1029 400 1054 361 1044 l 332 596 l 369 596 "},"Ŕ":{"ha":960,"x_min":0,"x_max":0,"o":"m 433 1214 l 382 1214 l 475 1469 l 614 1469 m 774 128 b 936 33 814 47 853 33 l 936 0 l 825 0 b 608 119 696 0 660 3 l 399 539 l 369 539 l 332 539 l 332 143 b 481 33 332 58 351 33 l 481 0 l 28 0 l 28 33 b 176 143 157 33 176 58 l 176 968 b 28 1078 176 1053 157 1078 l 28 1111 l 447 1111 b 804 831 679 1111 804 1014 b 469 543 804 615 633 557 l 481 543 l 481 539 b 646 385 544 524 596 488 l 774 128 m 369 596 b 644 833 479 594 644 631 b 442 1054 644 982 558 1054 b 332 1029 400 1054 361 1044 l 332 596 l 369 596 "},"Ř":{"ha":960,"x_min":0,"x_max":0,"o":"m 246 1464 l 297 1464 l 444 1285 l 592 1464 l 643 1464 l 513 1208 l 376 1208 m 774 128 b 936 33 814 47 853 33 l 936 0 l 825 0 b 608 119 696 0 660 3 l 399 539 l 369 539 l 332 539 l 332 143 b 481 33 332 58 351 33 l 481 0 l 28 0 l 28 33 b 176 143 157 33 176 58 l 176 968 b 28 1078 176 1053 157 1078 l 28 1111 l 447 1111 b 804 831 679 1111 804 1014 b 469 543 804 615 633 557 l 481 543 l 481 539 b 646 385 544 524 596 488 l 774 128 m 369 596 b 644 833 479 594 644 631 b 442 1054 644 982 558 1054 b 332 1029 400 1054 361 1044 l 332 596 l 369 596 "},"Ŗ":{"ha":960,"x_min":0,"x_max":0,"o":"m 774 128 b 936 33 814 47 853 33 l 936 0 l 825 0 b 608 119 696 0 660 3 l 399 539 l 369 539 l 332 539 l 332 143 b 481 33 332 58 351 33 l 481 0 l 28 0 l 28 33 b 176 143 157 33 176 58 l 176 968 b 28 1078 176 1053 157 1078 l 28 1111 l 447 1111 b 804 831 679 1111 804 1014 b 469 543 804 615 633 557 l 481 543 l 481 539 b 646 385 544 524 596 488 l 774 128 m 369 596 b 644 833 479 594 644 631 b 442 1054 644 982 558 1054 b 332 1029 400 1054 361 1044 l 332 596 l 369 596 m 572 -103 b 658 -199 624 -103 658 -140 b 514 -343 658 -264 617 -318 l 514 -310 b 603 -236 556 -300 603 -274 b 589 -215 603 -226 600 -215 b 546 -229 578 -215 569 -229 b 500 -169 522 -229 500 -207 b 572 -103 500 -125 533 -103 "},"S":{"ha":779,"x_min":0,"x_max":0,"o":"m 79 394 l 113 394 b 394 29 118 169 244 29 b 578 206 507 29 578 100 b 308 542 578 331 447 425 b 78 892 151 676 78 746 b 351 1139 78 1051 200 1139 b 597 1043 501 1139 564 1043 b 618 1117 613 1043 618 1056 l 651 1117 l 651 790 l 618 790 b 367 1082 613 961 513 1082 b 201 940 251 1082 201 1014 b 408 676 201 836 306 765 b 701 254 590 519 701 442 b 411 -28 701 72 556 -28 b 142 74 236 -28 182 74 b 113 -6 119 74 113 53 l 79 -6 "},"Ś":{"ha":779,"x_min":0,"x_max":0,"o":"m 417 1468 l 556 1468 l 376 1214 l 324 1214 m 79 394 l 113 394 b 394 29 118 169 244 29 b 578 206 507 29 578 100 b 308 542 578 331 447 425 b 78 892 151 676 78 746 b 351 1139 78 1051 200 1139 b 597 1043 501 1139 564 1043 b 618 1117 613 1043 618 1056 l 651 1117 l 651 790 l 618 790 b 367 1082 613 961 513 1082 b 201 940 251 1082 201 1014 b 408 676 201 836 306 765 b 701 254 590 519 701 442 b 411 -28 701 72 556 -28 b 142 74 236 -28 182 74 b 113 -6 119 74 113 53 l 79 -6 "},"Š":{"ha":779,"x_min":0,"x_max":0,"o":"m 183 1464 l 236 1464 l 382 1285 l 529 1464 l 582 1464 l 450 1208 l 315 1208 m 408 676 b 701 254 590 519 701 442 b 411 -28 701 72 556 -28 b 142 74 236 -28 182 74 b 113 -6 119 74 113 53 l 79 -6 l 79 394 l 113 394 b 394 29 118 169 244 29 b 578 206 507 29 578 100 b 308 542 578 331 447 425 b 78 892 151 676 78 746 b 351 1139 78 1051 200 1139 b 597 1043 501 1139 564 1043 b 618 1117 613 1043 618 1056 l 651 1117 l 651 790 l 618 790 b 367 1082 613 961 513 1082 b 201 940 251 1082 201 1014 b 408 676 201 836 306 765 "},"Ş":{"ha":779,"x_min":0,"x_max":0,"o":"m 701 254 b 479 -21 701 101 597 6 l 438 -74 b 579 -190 506 -79 579 -111 b 256 -344 579 -326 410 -365 l 264 -312 b 476 -203 394 -322 476 -287 b 333 -107 476 -129 415 -108 l 408 -28 b 142 74 236 -26 182 74 b 113 -6 119 74 113 53 l 79 -6 l 79 394 l 113 394 b 394 29 118 169 244 29 b 578 206 507 29 578 100 b 308 542 578 331 447 425 b 78 892 151 676 78 746 b 351 1139 78 1051 200 1139 b 597 1043 501 1139 564 1043 b 618 1117 613 1043 618 1056 l 651 1117 l 651 790 l 618 790 b 367 1082 613 961 513 1082 b 201 940 251 1082 201 1014 b 408 676 201 836 306 765 b 701 254 590 519 701 442 "},"Ș":{"ha":779,"x_min":0,"x_max":0,"o":"m 79 394 l 113 394 b 394 29 118 169 244 29 b 578 206 507 29 578 100 b 308 542 578 331 447 425 b 78 892 151 676 78 746 b 351 1139 78 1051 200 1139 b 597 1043 501 1139 564 1043 b 618 1117 613 1043 618 1056 l 651 1117 l 651 790 l 618 790 b 367 1082 613 961 513 1082 b 201 940 251 1082 201 1014 b 408 676 201 836 306 765 b 701 254 590 519 701 442 b 411 -28 701 72 556 -28 b 142 74 236 -28 182 74 b 113 -6 119 74 113 53 l 79 -6 m 358 -229 b 313 -169 335 -229 313 -207 b 385 -103 313 -125 346 -103 b 471 -199 436 -103 471 -140 b 328 -343 471 -264 429 -318 l 328 -310 b 417 -236 368 -300 417 -274 b 403 -215 417 -226 414 -215 b 358 -229 392 -215 382 -229 "},"T":{"ha":919,"x_min":0,"x_max":0,"o":"m 876 847 l 843 844 b 715 1054 828 1025 800 1054 l 538 1054 l 538 143 b 686 33 538 58 557 33 l 686 0 l 233 0 l 233 33 b 382 143 363 33 382 58 l 382 1054 l 203 1054 b 75 844 118 1054 90 1025 l 43 847 l 61 1074 l 64 1111 l 854 1111 l 857 1074 "},"Ŧ":{"ha":947,"x_min":0,"x_max":0,"o":"m 876 847 l 843 844 b 715 1054 828 1025 800 1054 l 538 1054 l 538 568 l 772 568 l 772 526 l 538 526 l 538 143 b 686 33 538 58 557 33 l 686 0 l 233 0 l 233 33 b 382 143 363 33 382 58 l 382 526 l 175 526 l 175 568 l 382 568 l 382 1054 l 203 1054 b 75 844 118 1054 90 1025 l 43 847 l 61 1074 l 64 1111 l 854 1111 l 857 1074 "},"Ť":{"ha":919,"x_min":0,"x_max":0,"o":"m 261 1464 l 314 1464 l 460 1285 l 607 1464 l 660 1464 l 528 1208 l 393 1208 m 876 847 l 843 844 b 715 1054 828 1025 800 1054 l 538 1054 l 538 143 b 686 33 538 58 557 33 l 686 0 l 233 0 l 233 33 b 382 143 363 33 382 58 l 382 1054 l 203 1054 b 75 844 118 1054 90 1025 l 43 847 l 61 1074 l 64 1111 l 854 1111 l 857 1074 "},"Ţ":{"ha":919,"x_min":0,"x_max":0,"o":"m 876 847 l 843 844 b 715 1054 828 1025 800 1054 l 538 1054 l 538 143 b 686 33 538 58 557 33 l 686 0 l 513 0 l 457 -74 b 597 -190 524 -79 597 -111 b 275 -344 597 -326 428 -365 l 283 -312 b 494 -203 414 -322 494 -287 b 353 -107 494 -129 435 -108 l 454 0 l 233 0 l 233 33 b 382 143 363 33 382 58 l 382 1054 l 203 1054 b 75 844 118 1054 90 1025 l 43 847 l 61 1074 l 64 1111 l 854 1111 l 857 1074 "},"Ț":{"ha":919,"x_min":0,"x_max":0,"o":"m 876 847 l 843 844 b 715 1054 828 1025 800 1054 l 538 1054 l 538 143 b 686 33 538 58 557 33 l 686 0 l 233 0 l 233 33 b 382 143 363 33 382 58 l 382 1054 l 203 1054 b 75 844 118 1054 90 1025 l 43 847 l 61 1074 l 64 1111 l 854 1111 l 857 1074 m 460 -103 b 546 -199 511 -103 546 -140 b 403 -343 546 -264 504 -318 l 403 -310 b 492 -236 443 -300 492 -274 b 478 -215 492 -226 489 -215 b 433 -229 467 -215 457 -229 b 388 -169 410 -229 388 -207 b 460 -103 388 -125 421 -103 "},"U":{"ha":1093,"x_min":0,"x_max":0,"o":"m 860 968 b 711 1078 860 1053 842 1078 l 711 1111 l 1065 1111 l 1065 1078 b 917 968 936 1078 917 1053 l 917 333 b 582 -28 917 161 854 -28 b 176 343 304 -28 176 119 l 176 968 b 28 1078 176 1053 157 1078 l 28 1111 l 481 1111 l 481 1078 b 332 968 351 1078 332 1053 l 332 333 b 599 29 332 118 422 29 b 860 333 756 29 860 114 l 860 968 "},"Ú":{"ha":1093,"x_min":0,"x_max":0,"o":"m 628 1468 l 767 1468 l 588 1214 l 535 1214 m 860 968 b 711 1078 860 1053 842 1078 l 711 1111 l 1065 1111 l 1065 1078 b 917 968 936 1078 917 1053 l 917 333 b 582 -28 917 161 854 -28 b 176 343 304 -28 176 119 l 176 968 b 28 1078 176 1053 157 1078 l 28 1111 l 481 1111 l 481 1078 b 332 968 351 1078 332 1053 l 332 333 b 599 29 332 118 422 29 b 860 333 756 29 860 114 l 860 968 "},"Û":{"ha":1093,"x_min":0,"x_max":0,"o":"m 446 1208 l 393 1208 l 525 1464 l 660 1464 l 792 1208 l 739 1208 l 593 1388 m 1065 1078 b 917 968 936 1078 917 1053 l 917 333 b 582 -28 917 161 854 -28 b 176 343 304 -28 176 119 l 176 968 b 28 1078 176 1053 157 1078 l 28 1111 l 481 1111 l 481 1078 b 332 968 351 1078 332 1053 l 332 333 b 599 29 332 118 422 29 b 860 333 756 29 860 114 l 860 968 b 711 1078 860 1053 842 1078 l 711 1111 l 1065 1111 "},"Ü":{"ha":1093,"x_min":0,"x_max":0,"o":"m 456 1263 b 374 1343 411 1263 374 1299 b 456 1425 374 1389 411 1425 b 538 1343 500 1425 538 1389 b 456 1263 538 1299 500 1263 m 729 1263 b 649 1343 685 1263 649 1299 b 729 1425 649 1389 685 1425 b 811 1343 775 1425 811 1389 b 729 1263 811 1299 775 1263 m 860 968 b 711 1078 860 1053 842 1078 l 711 1111 l 1065 1111 l 1065 1078 b 917 968 936 1078 917 1053 l 917 333 b 582 -28 917 161 854 -28 b 176 343 304 -28 176 119 l 176 968 b 28 1078 176 1053 157 1078 l 28 1111 l 481 1111 l 481 1078 b 332 968 351 1078 332 1053 l 332 333 b 599 29 332 118 422 29 b 860 333 756 29 860 114 l 860 968 "},"Ù":{"ha":1093,"x_min":0,"x_max":0,"o":"m 615 1214 l 436 1468 l 575 1468 l 668 1214 m 860 968 b 711 1078 860 1053 842 1078 l 711 1111 l 1065 1111 l 1065 1078 b 917 968 936 1078 917 1053 l 917 333 b 582 -28 917 161 854 -28 b 176 343 304 -28 176 119 l 176 968 b 28 1078 176 1053 157 1078 l 28 1111 l 481 1111 l 481 1078 b 332 968 351 1078 332 1053 l 332 333 b 599 29 332 118 422 29 b 860 333 756 29 860 114 l 860 968 "},"Ű":{"ha":1093,"x_min":0,"x_max":0,"o":"m 524 1468 l 624 1468 l 492 1214 l 450 1214 m 679 1468 l 778 1468 l 636 1214 l 594 1214 m 860 968 b 711 1078 860 1053 842 1078 l 711 1111 l 1065 1111 l 1065 1078 b 917 968 936 1078 917 1053 l 917 333 b 582 -28 917 161 854 -28 b 176 343 304 -28 176 119 l 176 968 b 28 1078 176 1053 157 1078 l 28 1111 l 481 1111 l 481 1078 b 332 968 351 1078 332 1053 l 332 333 b 599 29 332 118 422 29 b 860 333 756 29 860 114 l 860 968 "},"Ū":{"ha":1093,"x_min":0,"x_max":0,"o":"m 797 1361 l 797 1304 l 388 1304 l 388 1361 m 860 968 b 711 1078 860 1053 842 1078 l 711 1111 l 1065 1111 l 1065 1078 b 917 968 936 1078 917 1053 l 917 333 b 582 -28 917 161 854 -28 b 176 343 304 -28 176 119 l 176 968 b 28 1078 176 1053 157 1078 l 28 1111 l 481 1111 l 481 1078 b 332 968 351 1078 332 1053 l 332 333 b 599 29 332 118 422 29 b 860 333 756 29 860 114 l 860 968 "},"Ų":{"ha":1093,"x_min":0,"x_max":0,"o":"m 1065 1078 b 917 968 936 1078 917 1053 l 917 333 b 688 -17 917 186 871 26 b 550 -196 629 -78 550 -101 b 643 -286 550 -250 582 -286 b 757 -254 676 -286 706 -278 l 765 -287 b 601 -349 718 -325 667 -349 b 447 -214 519 -349 447 -303 b 638 -25 447 -89 574 -62 b 582 -28 621 -26 601 -28 b 176 343 304 -28 176 119 l 176 968 b 28 1078 176 1053 157 1078 l 28 1111 l 481 1111 l 481 1078 b 332 968 351 1078 332 1053 l 332 333 b 599 29 332 118 422 29 b 860 333 756 29 860 114 l 860 968 b 711 1078 860 1053 842 1078 l 711 1111 l 1065 1111 "},"Ů":{"ha":1093,"x_min":0,"x_max":0,"o":"m 593 1213 b 450 1356 510 1213 450 1281 b 593 1496 450 1431 510 1496 b 733 1356 675 1496 733 1431 b 593 1213 733 1281 675 1213 m 593 1265 b 682 1356 653 1265 682 1311 b 593 1444 682 1399 653 1444 b 503 1356 532 1444 503 1399 b 593 1265 503 1311 532 1265 m 860 968 b 711 1078 860 1053 842 1078 l 711 1111 l 1065 1111 l 1065 1078 b 917 968 936 1078 917 1053 l 917 333 b 582 -28 917 161 854 -28 b 176 343 304 -28 176 119 l 176 968 b 28 1078 176 1053 157 1078 l 28 1111 l 481 1111 l 481 1078 b 332 968 351 1078 332 1053 l 332 333 b 599 29 332 118 422 29 b 860 333 756 29 860 114 l 860 968 "},"V":{"ha":1029,"x_min":0,"x_max":0,"o":"m 579 219 l 817 975 b 711 1078 842 1056 840 1078 l 711 1111 l 1015 1111 l 1015 1078 b 874 975 931 1078 901 1060 l 556 -32 l 486 -32 l 157 975 b 14 1078 128 1060 99 1078 l 14 1111 l 435 1111 l 435 1078 b 331 975 306 1078 304 1056 l 575 219 "},"W":{"ha":1382,"x_min":0,"x_max":0,"o":"m 1368 1078 b 1235 972 1285 1078 1257 1060 l 976 -32 l 907 -32 l 715 683 l 489 -32 l 422 -32 l 150 972 b 14 1078 126 1060 99 1078 l 14 1111 l 432 1111 l 432 1078 b 321 972 303 1078 299 1054 l 517 236 l 521 236 l 689 779 l 638 972 b 503 1078 614 1060 588 1078 l 503 1111 l 921 1111 l 921 1078 b 808 972 792 1078 788 1054 l 994 260 l 999 260 l 1178 972 b 1065 1078 1199 1054 1194 1078 l 1065 1111 l 1368 1111 "},"Ẃ":{"ha":1382,"x_min":0,"x_max":0,"o":"m 738 1214 l 685 1214 l 778 1468 l 917 1468 m 1368 1078 b 1235 972 1285 1078 1257 1060 l 976 -32 l 907 -32 l 715 683 l 489 -32 l 422 -32 l 150 972 b 14 1078 126 1060 99 1078 l 14 1111 l 432 1111 l 432 1078 b 321 972 303 1078 299 1054 l 517 236 l 521 236 l 689 779 l 638 972 b 503 1078 614 1060 588 1078 l 503 1111 l 921 1111 l 921 1078 b 808 972 792 1078 788 1054 l 994 260 l 999 260 l 1178 972 b 1065 1078 1199 1054 1194 1078 l 1065 1111 l 1368 1111 "},"Ŵ":{"ha":1382,"x_min":0,"x_max":0,"o":"m 597 1208 l 544 1208 l 676 1464 l 811 1464 l 943 1208 l 890 1208 l 744 1388 m 1368 1078 b 1235 972 1285 1078 1257 1060 l 976 -32 l 907 -32 l 715 683 l 489 -32 l 422 -32 l 150 972 b 14 1078 126 1060 99 1078 l 14 1111 l 432 1111 l 432 1078 b 321 972 303 1078 299 1054 l 517 236 l 521 236 l 689 779 l 638 972 b 503 1078 614 1060 588 1078 l 503 1111 l 921 1111 l 921 1078 b 808 972 792 1078 788 1054 l 994 260 l 999 260 l 1178 972 b 1065 1078 1199 1054 1194 1078 l 1065 1111 l 1368 1111 "},"Ẅ":{"ha":1382,"x_min":0,"x_max":0,"o":"m 607 1263 b 525 1343 563 1263 525 1299 b 607 1425 525 1389 563 1425 b 689 1343 651 1425 689 1389 b 607 1263 689 1299 651 1263 m 881 1263 b 800 1343 836 1263 800 1299 b 881 1425 800 1389 836 1425 b 963 1343 926 1425 963 1389 b 881 1263 963 1299 926 1263 m 1368 1078 b 1235 972 1285 1078 1257 1060 l 976 -32 l 907 -32 l 715 683 l 489 -32 l 422 -32 l 150 972 b 14 1078 126 1060 99 1078 l 14 1111 l 432 1111 l 432 1078 b 321 972 303 1078 299 1054 l 517 236 l 521 236 l 689 779 l 638 972 b 503 1078 614 1060 588 1078 l 503 1111 l 921 1111 l 921 1078 b 808 972 792 1078 788 1054 l 994 260 l 999 260 l 1178 972 b 1065 1078 1199 1054 1194 1078 l 1065 1111 l 1368 1111 "},"Ẁ":{"ha":1382,"x_min":0,"x_max":0,"o":"m 767 1214 l 588 1468 l 726 1468 l 819 1214 m 1368 1078 b 1235 972 1285 1078 1257 1060 l 976 -32 l 907 -32 l 715 683 l 489 -32 l 422 -32 l 150 972 b 14 1078 126 1060 99 1078 l 14 1111 l 432 1111 l 432 1078 b 321 972 303 1078 299 1054 l 517 236 l 521 236 l 689 779 l 638 972 b 503 1078 614 1060 588 1078 l 503 1111 l 921 1111 l 921 1078 b 808 972 792 1078 788 1054 l 994 260 l 999 260 l 1178 972 b 1065 1078 1199 1054 1194 1078 l 1065 1111 l 1368 1111 "},"X":{"ha":1093,"x_min":0,"x_max":0,"o":"m 894 124 b 1065 33 940 46 981 33 l 1065 0 l 628 0 l 628 33 b 704 124 758 33 747 50 l 507 461 l 292 121 b 364 33 246 50 233 33 l 364 0 l 49 0 l 49 33 b 224 121 133 33 175 46 l 474 517 l 199 988 b 28 1078 153 1065 113 1078 l 28 1111 l 464 1111 l 464 1078 b 389 988 335 1078 346 1061 l 574 674 l 774 990 b 703 1078 819 1061 832 1078 l 703 1111 l 1017 1111 l 1017 1078 b 842 990 933 1078 890 1065 l 606 617 l 894 124 "},"Y":{"ha":976,"x_min":0,"x_max":0,"o":"m 581 143 b 728 33 581 58 599 33 l 728 0 l 275 0 l 275 33 b 424 143 406 33 424 58 l 424 489 l 176 983 b 14 1078 136 1064 99 1078 l 14 1111 l 446 1111 l 446 1078 b 361 982 317 1078 324 1058 l 558 586 l 563 586 l 742 981 b 653 1078 776 1058 782 1078 l 653 1111 l 963 1111 l 963 1078 b 804 981 878 1078 842 1063 l 581 489 l 581 143 "},"Ý":{"ha":976,"x_min":0,"x_max":0,"o":"m 569 1468 l 708 1468 l 529 1214 l 476 1214 m 581 143 b 728 33 581 58 599 33 l 728 0 l 275 0 l 275 33 b 424 143 406 33 424 58 l 424 489 l 176 983 b 14 1078 136 1064 99 1078 l 14 1111 l 446 1111 l 446 1078 b 361 982 317 1078 324 1058 l 558 586 l 563 586 l 742 981 b 653 1078 776 1058 782 1078 l 653 1111 l 963 1111 l 963 1078 b 804 981 878 1078 842 1063 l 581 489 l 581 143 "},"Ŷ":{"ha":976,"x_min":0,"x_max":0,"o":"m 389 1208 l 336 1208 l 468 1464 l 603 1464 l 735 1208 l 682 1208 l 536 1388 m 963 1078 b 804 981 878 1078 842 1063 l 581 489 l 581 143 b 728 33 581 58 599 33 l 728 0 l 275 0 l 275 33 b 424 143 406 33 424 58 l 424 489 l 176 983 b 14 1078 136 1064 99 1078 l 14 1111 l 446 1111 l 446 1078 b 361 982 317 1078 324 1058 l 558 586 l 563 586 l 742 981 b 653 1078 776 1058 782 1078 l 653 1111 l 963 1111 "},"Ÿ":{"ha":976,"x_min":0,"x_max":0,"o":"m 399 1263 b 317 1343 354 1263 317 1299 b 399 1425 317 1389 354 1425 b 481 1343 443 1425 481 1389 b 399 1263 481 1299 443 1263 m 672 1263 b 592 1343 628 1263 592 1299 b 672 1425 592 1389 628 1425 b 754 1343 718 1425 754 1389 b 672 1263 754 1299 718 1263 m 581 143 b 728 33 581 58 599 33 l 728 0 l 275 0 l 275 33 b 424 143 406 33 424 58 l 424 489 l 176 983 b 14 1078 136 1064 99 1078 l 14 1111 l 446 1111 l 446 1078 b 361 982 317 1078 324 1058 l 558 586 l 563 586 l 742 981 b 653 1078 776 1058 782 1078 l 653 1111 l 963 1111 l 963 1078 b 804 981 878 1078 842 1063 l 581 489 l 581 143 "},"Ỳ":{"ha":976,"x_min":0,"x_max":0,"o":"m 558 1214 l 379 1468 l 518 1468 l 611 1214 m 581 143 b 728 33 581 58 599 33 l 728 0 l 275 0 l 275 33 b 424 143 406 33 424 58 l 424 489 l 176 983 b 14 1078 136 1064 99 1078 l 14 1111 l 446 1111 l 446 1078 b 361 982 317 1078 324 1058 l 558 586 l 563 586 l 742 981 b 653 1078 776 1058 782 1078 l 653 1111 l 963 1111 l 963 1078 b 804 981 878 1078 842 1063 l 581 489 l 581 143 "},"Z":{"ha":804,"x_min":0,"x_max":0,"o":"m 236 57 l 583 57 b 728 304 668 57 699 93 l 761 300 l 724 35 l 719 0 l 42 0 l 42 33 l 551 1054 l 247 1054 b 131 860 163 1054 136 1028 l 97 861 l 104 1072 l 106 1111 l 754 1111 "},"Ź":{"ha":804,"x_min":0,"x_max":0,"o":"m 467 1468 l 606 1468 l 426 1214 l 374 1214 m 236 57 l 583 57 b 728 304 668 57 699 93 l 761 300 l 724 35 l 719 0 l 42 0 l 42 33 l 551 1054 l 247 1054 b 131 860 163 1054 136 1028 l 97 861 l 104 1072 l 106 1111 l 754 1111 "},"Ž":{"ha":804,"x_min":0,"x_max":0,"o":"m 233 1464 l 286 1464 l 432 1285 l 579 1464 l 632 1464 l 500 1208 l 365 1208 m 761 300 l 724 35 l 719 0 l 42 0 l 42 33 l 551 1054 l 247 1054 b 131 860 163 1054 136 1028 l 97 861 l 104 1072 l 106 1111 l 754 1111 l 236 57 l 583 57 b 728 304 668 57 699 93 "},"Ż":{"ha":804,"x_min":0,"x_max":0,"o":"m 432 1263 b 350 1343 388 1263 350 1299 b 432 1425 350 1389 388 1425 b 514 1343 476 1425 514 1389 b 432 1263 514 1299 476 1263 m 236 57 l 583 57 b 728 304 668 57 699 93 l 761 300 l 724 35 l 719 0 l 42 0 l 42 33 l 551 1054 l 247 1054 b 131 860 163 1054 136 1028 l 97 861 l 104 1072 l 106 1111 l 754 1111 "},"a":{"ha":667,"x_min":0,"x_max":0,"o":"m 653 94 b 528 -28 633 24 608 -28 b 410 110 446 -28 410 24 l 410 115 l 407 115 b 199 -28 381 72 319 -28 b 42 147 101 -28 42 40 b 344 447 42 325 197 381 l 410 478 l 410 543 b 304 713 410 647 397 713 b 208 646 250 713 208 688 b 231 560 208 613 231 597 b 157 504 231 526 201 504 b 81 600 108 504 81 539 b 314 761 81 700 179 761 b 540 540 453 761 540 692 l 540 94 b 571 29 540 51 544 29 b 621 94 594 29 604 50 m 263 69 b 410 169 317 69 357 101 l 410 426 l 349 397 b 171 182 242 347 171 281 b 263 69 171 107 208 69 "},"á":{"ha":667,"x_min":0,"x_max":0,"o":"m 321 872 l 268 872 l 361 1126 l 500 1126 m 653 94 b 528 -28 633 24 608 -28 b 410 110 446 -28 410 24 l 410 115 l 407 115 b 199 -28 381 72 319 -28 b 42 147 101 -28 42 40 b 344 447 42 325 197 381 l 410 478 l 410 543 b 304 713 410 647 397 713 b 208 646 250 713 208 688 b 231 560 208 613 231 597 b 157 504 231 526 201 504 b 81 600 108 504 81 539 b 314 761 81 700 179 761 b 540 540 453 761 540 692 l 540 94 b 571 29 540 51 544 29 b 621 94 594 29 604 50 m 263 69 b 410 169 317 69 357 101 l 410 426 l 349 397 b 171 182 242 347 171 281 b 263 69 171 107 208 69 "},"ă":{"ha":667,"x_min":0,"x_max":0,"o":"m 326 903 b 135 1101 217 903 143 971 l 168 1101 b 326 1006 178 1038 239 1006 b 483 1101 414 1006 474 1038 l 517 1101 b 326 903 508 971 435 903 m 653 94 b 528 -28 633 24 608 -28 b 410 110 446 -28 410 24 l 410 115 l 407 115 b 199 -28 381 72 319 -28 b 42 147 101 -28 42 40 b 344 447 42 325 197 381 l 410 478 l 410 543 b 304 713 410 647 397 713 b 208 646 250 713 208 688 b 231 560 208 613 231 597 b 157 504 231 526 201 504 b 81 600 108 504 81 539 b 314 761 81 700 179 761 b 540 540 453 761 540 692 l 540 94 b 571 29 540 51 544 29 b 621 94 594 29 604 50 m 263 69 b 410 169 317 69 357 101 l 410 426 l 349 397 b 171 182 242 347 171 281 b 263 69 171 107 208 69 "},"â":{"ha":667,"x_min":0,"x_max":0,"o":"m 179 867 l 126 867 l 258 1122 l 393 1122 l 525 867 l 472 867 l 326 1046 m 653 94 b 528 -28 633 24 608 -28 b 410 110 446 -28 410 24 l 410 115 l 407 115 b 199 -28 381 72 319 -28 b 42 147 101 -28 42 40 b 344 447 42 325 197 381 l 410 478 l 410 543 b 304 713 410 647 397 713 b 208 646 250 713 208 688 b 231 560 208 613 231 597 b 157 504 231 526 201 504 b 81 600 108 504 81 539 b 314 761 81 700 179 761 b 540 540 453 761 540 692 l 540 94 b 571 29 540 51 544 29 b 621 94 594 29 604 50 m 263 69 b 410 169 317 69 357 101 l 410 426 l 349 397 b 171 182 242 347 171 281 b 263 69 171 107 208 69 "},"ä":{"ha":667,"x_min":0,"x_max":0,"o":"m 189 921 b 107 1001 144 921 107 957 b 189 1083 107 1047 144 1083 b 271 1001 233 1083 271 1047 b 189 921 271 957 233 921 m 463 921 b 382 1001 418 921 382 957 b 463 1083 382 1047 418 1083 b 544 1001 508 1083 544 1047 b 463 921 544 957 508 921 m 653 94 b 528 -28 633 24 608 -28 b 410 110 446 -28 410 24 l 410 115 l 407 115 b 199 -28 381 72 319 -28 b 42 147 101 -28 42 40 b 344 447 42 325 197 381 l 410 478 l 410 543 b 304 713 410 647 397 713 b 208 646 250 713 208 688 b 231 560 208 613 231 597 b 157 504 231 526 201 504 b 81 600 108 504 81 539 b 314 761 81 700 179 761 b 540 540 453 761 540 692 l 540 94 b 571 29 540 51 544 29 b 621 94 594 29 604 50 m 263 69 b 410 169 317 69 357 101 l 410 426 l 349 397 b 171 182 242 347 171 281 b 263 69 171 107 208 69 "},"à":{"ha":667,"x_min":0,"x_max":0,"o":"m 349 872 l 169 1126 l 308 1126 l 401 872 m 653 94 b 528 -28 633 24 608 -28 b 410 110 446 -28 410 24 l 410 115 l 407 115 b 199 -28 381 72 319 -28 b 42 147 101 -28 42 40 b 344 447 42 325 197 381 l 410 478 l 410 543 b 304 713 410 647 397 713 b 208 646 250 713 208 688 b 231 560 208 613 231 597 b 157 504 231 526 201 504 b 81 600 108 504 81 539 b 314 761 81 700 179 761 b 540 540 453 761 540 692 l 540 94 b 571 29 540 51 544 29 b 621 94 594 29 604 50 m 263 69 b 410 169 317 69 357 101 l 410 426 l 349 397 b 171 182 242 347 171 281 b 263 69 171 107 208 69 "},"ā":{"ha":667,"x_min":0,"x_max":0,"o":"m 531 963 l 121 963 l 121 1019 l 531 1019 m 653 94 b 528 -28 633 24 608 -28 b 410 110 446 -28 410 24 l 410 115 l 407 115 b 199 -28 381 72 319 -28 b 42 147 101 -28 42 40 b 344 447 42 325 197 381 l 410 478 l 410 543 b 304 713 410 647 397 713 b 208 646 250 713 208 688 b 231 560 208 613 231 597 b 157 504 231 526 201 504 b 81 600 108 504 81 539 b 314 761 81 700 179 761 b 540 540 453 761 540 692 l 540 94 b 571 29 540 51 544 29 b 621 94 594 29 604 50 m 263 69 b 410 169 317 69 357 101 l 410 426 l 349 397 b 171 182 242 347 171 281 b 263 69 171 107 208 69 "},"ą":{"ha":667,"x_min":0,"x_max":0,"o":"m 663 -287 b 499 -349 615 -325 564 -349 b 344 -214 417 -349 344 -303 b 531 -28 344 -92 464 -64 l 528 -28 b 410 110 446 -28 410 24 l 410 115 l 407 115 b 199 -28 381 72 319 -28 b 42 147 101 -28 42 40 b 344 447 42 325 197 381 l 410 478 l 410 543 b 304 713 410 647 397 713 b 208 646 250 713 208 688 b 231 560 208 613 231 597 b 157 504 231 526 201 504 b 81 600 108 504 81 539 b 314 761 81 700 179 761 b 540 540 453 761 540 692 l 540 94 b 571 29 540 51 544 29 b 621 94 594 29 604 50 l 653 94 b 586 -15 639 44 622 6 b 447 -196 529 -78 447 -100 b 540 -286 447 -250 479 -286 b 654 -254 574 -286 603 -278 m 263 69 b 410 169 317 69 357 101 l 410 426 l 349 397 b 171 182 242 347 171 281 b 263 69 171 107 208 69 "},"å":{"ha":667,"x_min":0,"x_max":0,"o":"m 326 871 b 183 1014 243 871 183 939 b 326 1154 183 1089 243 1154 b 467 1014 408 1154 467 1089 b 326 871 467 939 408 871 m 326 1103 b 236 1014 265 1103 236 1057 b 326 924 236 969 265 924 b 415 1014 386 924 415 969 b 326 1103 415 1057 386 1103 m 653 94 b 528 -28 633 24 608 -28 b 410 110 446 -28 410 24 l 410 115 l 407 115 b 199 -28 381 72 319 -28 b 42 147 101 -28 42 40 b 344 447 42 325 197 381 l 410 478 l 410 543 b 304 713 410 647 397 713 b 208 646 250 713 208 688 b 231 560 208 613 231 597 b 157 504 231 526 201 504 b 81 600 108 504 81 539 b 314 761 81 700 179 761 b 540 540 453 761 540 692 l 540 94 b 571 29 540 51 544 29 b 621 94 594 29 604 50 m 263 69 b 410 169 317 69 357 101 l 410 426 l 349 397 b 171 182 242 347 171 281 b 263 69 171 107 208 69 "},"ã":{"ha":667,"x_min":0,"x_max":0,"o":"m 215 1015 b 140 919 164 1015 149 978 l 107 919 b 226 1113 115 1011 139 1113 b 438 1017 315 1113 360 1017 b 511 1113 489 1017 504 1054 l 544 1113 b 425 919 536 1021 513 919 b 215 1015 338 919 292 1015 m 653 94 b 528 -28 633 24 608 -28 b 410 110 446 -28 410 24 l 410 115 l 407 115 b 199 -28 381 72 319 -28 b 42 147 101 -28 42 40 b 344 447 42 325 197 381 l 410 478 l 410 543 b 304 713 410 647 397 713 b 208 646 250 713 208 688 b 231 560 208 613 231 597 b 157 504 231 526 201 504 b 81 600 108 504 81 539 b 314 761 81 700 179 761 b 540 540 453 761 540 692 l 540 94 b 571 29 540 51 544 29 b 621 94 594 29 604 50 m 263 69 b 410 169 317 69 357 101 l 410 426 l 349 397 b 171 182 242 347 171 281 b 263 69 171 107 208 69 "},"æ":{"ha":965,"x_min":0,"x_max":0,"o":"m 914 292 b 664 -28 885 78 793 -28 b 443 147 561 -28 485 36 b 199 -28 394 71 318 -28 b 42 143 101 -28 42 40 b 344 447 42 317 197 381 l 410 478 l 410 543 b 308 713 410 647 397 713 b 214 646 256 713 214 688 b 236 560 214 613 236 597 b 163 504 236 526 207 504 b 85 600 114 504 85 539 b 317 761 85 700 183 761 b 506 676 401 761 468 735 b 676 761 549 729 607 761 b 913 406 835 761 913 608 l 543 406 l 543 400 b 711 75 543 211 600 75 b 881 292 778 75 842 128 m 671 703 b 544 463 589 703 553 603 l 779 463 b 671 703 779 596 754 703 m 263 69 b 431 186 314 69 365 97 b 410 361 417 236 410 296 l 410 426 l 349 397 b 171 182 242 347 171 281 b 263 69 171 106 208 69 "},"b":{"ha":735,"x_min":0,"x_max":0,"o":"m 113 940 b 39 1010 113 1031 114 1047 l 24 1039 l 224 1139 l 242 1119 l 242 621 l 247 621 b 465 761 308 703 374 761 b 685 419 593 761 685 638 b 385 -28 685 174 568 -28 b 113 82 274 -28 188 29 m 242 111 b 376 29 278 71 322 29 b 536 379 497 29 536 213 b 407 674 536 582 490 674 b 242 564 335 674 285 618 l 242 111 "},"c":{"ha":607,"x_min":0,"x_max":0,"o":"m 406 581 b 335 703 400 656 385 703 b 200 388 242 703 200 576 b 379 60 200 185 268 60 b 546 289 451 60 504 117 l 579 289 b 322 -28 550 78 464 -28 b 50 353 150 -28 50 124 b 343 761 50 604 171 761 b 557 579 467 761 557 671 b 486 504 557 532 533 504 b 406 581 439 504 410 529 "},"ć":{"ha":607,"x_min":0,"x_max":0,"o":"m 393 1126 l 532 1126 l 353 872 l 300 872 m 406 581 b 335 703 400 656 385 703 b 200 388 242 703 200 576 b 379 60 200 185 268 60 b 546 289 451 60 504 117 l 579 289 b 322 -28 550 78 464 -28 b 50 353 150 -28 50 124 b 343 761 50 604 171 761 b 557 579 467 761 557 671 b 486 504 557 532 533 504 b 406 581 439 504 410 529 "},"č":{"ha":607,"x_min":0,"x_max":0,"o":"m 158 1122 l 211 1122 l 357 943 l 504 1122 l 557 1122 l 425 867 l 290 867 m 579 289 b 322 -28 550 78 464 -28 b 50 353 150 -28 50 124 b 343 761 50 604 171 761 b 557 579 467 761 557 671 b 486 504 557 532 533 504 b 406 581 439 504 410 529 b 335 703 400 656 385 703 b 200 388 242 703 200 576 b 379 60 200 185 268 60 b 546 289 451 60 504 117 "},"ç":{"ha":607,"x_min":0,"x_max":0,"o":"m 361 -74 b 503 -190 429 -79 503 -111 b 179 -344 503 -326 333 -365 l 188 -312 b 400 -203 318 -322 400 -287 b 257 -107 400 -129 339 -108 l 332 -28 l 322 -28 b 50 353 150 -28 50 124 b 343 761 50 604 171 761 b 557 579 467 761 557 671 b 486 504 557 532 533 504 b 406 581 439 504 410 529 b 335 703 400 656 385 703 b 200 388 242 703 200 576 b 379 60 200 185 268 60 b 546 289 451 60 504 117 l 579 289 b 410 -12 557 125 500 25 l 361 -74 "},"ċ":{"ha":607,"x_min":0,"x_max":0,"o":"m 358 921 b 276 1001 314 921 276 957 b 358 1083 276 1047 314 1083 b 440 1001 403 1083 440 1047 b 358 921 440 957 403 921 m 406 581 b 335 703 400 656 385 703 b 200 388 242 703 200 576 b 379 60 200 185 268 60 b 546 289 451 60 504 117 l 579 289 b 322 -28 550 78 464 -28 b 50 353 150 -28 50 124 b 343 761 50 604 171 761 b 557 579 467 761 557 671 b 486 504 557 532 533 504 b 406 581 439 504 410 529 "},"d":{"ha":744,"x_min":0,"x_max":0,"o":"m 715 72 l 517 -28 l 497 -8 l 497 113 l 492 113 b 292 -28 438 25 382 -28 b 50 338 143 -28 50 114 b 328 761 50 576 153 761 b 494 672 406 761 461 717 l 497 672 l 497 940 b 425 1010 497 1031 500 1047 l 410 1039 l 608 1139 l 628 1119 l 628 171 b 700 101 628 82 625 64 m 497 449 b 357 703 497 615 438 703 b 200 379 235 703 200 547 b 344 54 200 197 240 54 b 497 178 418 54 458 115 "},"ð":{"ha":785,"x_min":0,"x_max":0,"o":"m 715 417 b 392 -28 722 147 571 -28 b 69 392 167 -28 69 178 b 354 750 69 575 168 750 b 517 675 421 750 479 721 b 385 917 488 756 446 838 l 229 826 l 208 863 l 358 950 b 189 1106 313 1004 256 1057 l 189 1139 b 421 985 276 1094 354 1043 l 582 1079 l 603 1043 l 453 956 b 715 417 618 801 710 611 m 392 29 b 565 418 517 29 574 196 b 542 588 564 469 557 526 b 389 693 499 667 453 693 b 219 378 260 693 219 535 b 392 29 219 171 267 29 "},"ď":{"ha":904,"x_min":0,"x_max":0,"o":"m 628 171 b 700 101 628 82 625 64 l 715 72 l 517 -28 l 497 -8 l 497 113 l 492 113 b 292 -28 438 25 382 -28 b 50 338 143 -28 50 114 b 328 761 50 576 153 761 b 494 672 406 761 461 717 l 497 672 l 497 940 b 425 1010 497 1031 500 1047 l 410 1039 l 608 1139 l 628 1119 l 628 171 m 821 1139 b 882 1061 860 1139 882 1113 b 839 757 882 978 857 894 l 807 757 b 761 1061 789 894 761 978 b 821 1139 761 1113 783 1139 m 497 449 b 357 703 497 615 438 703 b 200 379 235 703 200 547 b 344 54 200 197 240 54 b 497 178 418 54 458 115 "},"đ":{"ha":857,"x_min":0,"x_max":0,"o":"m 628 171 b 700 101 628 82 625 64 l 715 72 l 517 -28 l 497 -8 l 497 113 l 492 113 b 292 -28 438 25 382 -28 b 50 338 143 -28 50 114 b 328 761 50 576 153 761 b 494 672 406 761 461 717 l 497 672 l 497 865 l 332 865 l 332 907 l 497 907 l 497 940 b 425 1010 497 1031 500 1047 l 410 1039 l 608 1139 l 628 1119 l 628 907 l 788 907 l 788 865 l 628 865 m 497 449 b 357 703 497 615 438 703 b 200 379 235 703 200 547 b 344 54 200 197 240 54 b 497 178 418 54 458 115 "},"e":{"ha":606,"x_min":0,"x_max":0,"o":"m 554 292 b 304 -28 525 78 433 -28 b 50 361 146 -28 50 124 b 317 761 50 575 147 761 b 553 406 475 761 553 608 l 185 406 l 185 400 b 351 75 185 211 242 75 b 521 292 418 75 482 128 m 311 703 b 186 463 229 703 193 603 l 419 463 b 311 703 419 596 394 703 "},"é":{"ha":606,"x_min":0,"x_max":0,"o":"m 313 872 l 260 872 l 353 1126 l 492 1126 m 554 292 b 304 -28 525 78 433 -28 b 50 361 146 -28 50 124 b 317 761 50 575 147 761 b 553 406 475 761 553 608 l 185 406 l 185 400 b 351 75 185 211 242 75 b 521 292 418 75 482 128 m 311 703 b 186 463 229 703 193 603 l 419 463 b 311 703 419 596 394 703 "},"ě":{"ha":606,"x_min":0,"x_max":0,"o":"m 118 1122 l 171 1122 l 317 943 l 464 1122 l 517 1122 l 385 867 l 250 867 m 554 292 b 304 -28 525 78 433 -28 b 50 361 146 -28 50 124 b 317 761 50 575 147 761 b 553 406 475 761 553 608 l 185 406 l 185 400 b 351 75 185 211 242 75 b 521 292 418 75 482 128 m 311 703 b 186 463 229 703 193 603 l 419 463 b 311 703 419 596 394 703 "},"ê":{"ha":606,"x_min":0,"x_max":0,"o":"m 171 867 l 118 867 l 250 1122 l 385 1122 l 517 867 l 464 867 l 318 1046 m 554 292 b 304 -28 525 78 433 -28 b 50 361 146 -28 50 124 b 317 761 50 575 147 761 b 553 406 475 761 553 608 l 185 406 l 185 400 b 351 75 185 211 242 75 b 521 292 418 75 482 128 m 311 703 b 186 463 229 703 193 603 l 419 463 b 311 703 419 596 394 703 "},"ë":{"ha":606,"x_min":0,"x_max":0,"o":"m 181 921 b 99 1001 136 921 99 957 b 181 1083 99 1047 136 1083 b 263 1001 225 1083 263 1047 b 181 921 263 957 225 921 m 454 921 b 374 1001 410 921 374 957 b 454 1083 374 1047 410 1083 b 536 1001 500 1083 536 1047 b 454 921 536 957 500 921 m 554 292 b 304 -28 525 78 433 -28 b 50 361 146 -28 50 124 b 317 761 50 575 147 761 b 553 406 475 761 553 608 l 185 406 l 185 400 b 351 75 185 211 242 75 b 521 292 418 75 482 128 m 311 703 b 186 463 229 703 193 603 l 419 463 b 311 703 419 596 394 703 "},"ė":{"ha":606,"x_min":0,"x_max":0,"o":"m 318 921 b 236 1001 274 921 236 957 b 318 1083 236 1047 274 1083 b 400 1001 363 1083 400 1047 b 318 921 400 957 363 921 m 554 292 b 304 -28 525 78 433 -28 b 50 361 146 -28 50 124 b 317 761 50 575 147 761 b 553 406 475 761 553 608 l 185 406 l 185 400 b 351 75 185 211 242 75 b 521 292 418 75 482 128 m 311 703 b 186 463 229 703 193 603 l 419 463 b 311 703 419 596 394 703 "},"è":{"ha":606,"x_min":0,"x_max":0,"o":"m 340 872 l 161 1126 l 300 1126 l 393 872 m 554 292 b 304 -28 525 78 433 -28 b 50 361 146 -28 50 124 b 317 761 50 575 147 761 b 553 406 475 761 553 608 l 185 406 l 185 400 b 351 75 185 211 242 75 b 521 292 418 75 482 128 m 311 703 b 186 463 229 703 193 603 l 419 463 b 311 703 419 596 394 703 "},"ē":{"ha":606,"x_min":0,"x_max":0,"o":"m 522 963 l 113 963 l 113 1019 l 522 1019 m 554 292 b 304 -28 525 78 433 -28 b 50 361 146 -28 50 124 b 317 761 50 575 147 761 b 553 406 475 761 553 608 l 185 406 l 185 400 b 351 75 185 211 242 75 b 521 292 418 75 482 128 m 311 703 b 186 463 229 703 193 603 l 419 463 b 311 703 419 596 394 703 "},"ę":{"ha":606,"x_min":0,"x_max":0,"o":"m 336 -286 b 450 -254 369 -286 399 -278 l 458 -287 b 294 -349 411 -325 360 -349 b 140 -214 213 -349 140 -303 b 328 -26 140 -90 263 -62 b 304 -28 321 -28 313 -28 b 50 361 146 -28 50 124 b 317 761 50 575 147 761 b 553 406 475 761 553 608 l 185 406 l 185 400 b 351 75 185 211 242 75 b 521 292 418 75 482 128 l 554 292 b 381 -14 531 122 469 21 l 383 -14 b 243 -196 325 -78 243 -100 b 336 -286 243 -250 275 -286 m 311 703 b 186 463 229 703 193 603 l 419 463 b 311 703 419 596 394 703 "},"f":{"ha":461,"x_min":0,"x_max":0,"o":"m 397 1139 b 594 992 500 1139 594 1071 b 521 915 594 940 560 915 b 443 989 481 915 449 936 b 375 1082 442 1026 436 1082 b 274 868 290 1082 274 999 l 274 733 l 408 733 l 408 675 l 274 675 l 274 143 b 413 33 274 54 293 33 l 413 0 l 46 0 l 46 33 b 143 143 129 33 143 54 l 143 675 l 46 675 l 46 733 l 143 733 l 143 807 b 397 1139 143 1036 246 1139 "},"g":{"ha":681,"x_min":0,"x_max":0,"o":"m 347 118 b 661 -67 547 118 661 69 b 282 -333 661 -208 496 -333 b 14 -165 139 -333 14 -285 b 150 33 14 -85 74 -24 b 74 132 99 50 74 82 b 167 283 74 189 118 238 b 69 496 107 329 69 403 b 322 761 69 658 183 761 b 461 721 372 761 421 747 b 615 761 510 744 564 761 b 667 719 651 761 667 744 b 622 685 667 694 650 685 b 515 676 579 685 550 683 l 501 686 b 574 496 546 640 574 575 b 322 232 574 335 458 232 b 197 264 276 232 233 243 b 146 185 165 233 146 210 b 347 118 146 138 203 118 m 303 707 b 203 486 225 701 192 628 b 340 286 215 344 264 281 b 440 506 418 292 453 367 b 303 707 426 646 382 715 m 335 -226 b 604 -82 490 -226 604 -176 b 361 11 604 -4 519 11 b 192 22 292 11 235 14 b 108 -112 129 -35 108 -69 b 335 -226 108 -182 189 -226 "},"ğ":{"ha":681,"x_min":0,"x_max":0,"o":"m 335 903 b 143 1101 225 903 151 971 l 176 1101 b 335 1006 186 1038 247 1006 b 492 1101 422 1006 482 1038 l 525 1101 b 335 903 517 971 443 903 m 347 118 b 661 -67 547 118 661 69 b 282 -333 661 -208 496 -333 b 14 -165 139 -333 14 -285 b 150 33 14 -85 74 -24 b 74 132 99 50 74 82 b 167 283 74 189 118 238 b 69 496 107 329 69 403 b 322 761 69 658 183 761 b 461 721 372 761 421 747 b 615 761 510 744 564 761 b 667 719 651 761 667 744 b 622 685 667 694 650 685 b 515 676 579 685 550 683 l 501 686 b 574 496 546 640 574 575 b 322 232 574 335 458 232 b 197 264 276 232 233 243 b 146 185 165 233 146 210 b 347 118 146 138 203 118 m 303 707 b 203 486 225 701 192 628 b 340 286 215 344 264 281 b 440 506 418 292 453 367 b 303 707 426 646 382 715 m 335 -226 b 604 -82 490 -226 604 -176 b 361 11 604 -4 519 11 b 192 22 292 11 235 14 b 108 -112 129 -35 108 -69 b 335 -226 108 -182 189 -226 "},"ģ":{"ha":681,"x_min":0,"x_max":0,"o":"m 340 921 b 254 1017 289 921 254 958 b 397 1161 254 1082 296 1136 l 397 1128 b 308 1054 357 1118 308 1092 b 322 1033 308 1044 311 1033 b 367 1047 333 1033 343 1047 b 413 988 390 1047 413 1025 b 340 921 413 943 379 921 m 347 118 b 661 -67 547 118 661 69 b 282 -333 661 -208 496 -333 b 14 -165 139 -333 14 -285 b 150 33 14 -85 74 -24 b 74 132 99 50 74 82 b 167 283 74 189 118 238 b 69 496 107 329 69 403 b 322 761 69 658 183 761 b 461 721 372 761 421 747 b 615 761 510 744 564 761 b 667 719 651 761 667 744 b 622 685 667 694 650 685 b 515 676 579 685 550 683 l 501 686 b 574 496 546 640 574 575 b 322 232 574 335 458 232 b 197 264 276 232 233 243 b 146 185 165 233 146 210 b 347 118 146 138 203 118 m 303 707 b 203 486 225 701 192 628 b 340 286 215 344 264 281 b 440 506 418 292 453 367 b 303 707 426 646 382 715 m 335 -226 b 604 -82 490 -226 604 -176 b 361 11 604 -4 519 11 b 192 22 292 11 235 14 b 108 -112 129 -35 108 -69 b 335 -226 108 -182 189 -226 "},"ġ":{"ha":681,"x_min":0,"x_max":0,"o":"m 335 921 b 253 1001 290 921 253 957 b 335 1083 253 1047 290 1083 b 417 1001 379 1083 417 1047 b 335 921 417 957 379 921 m 347 118 b 661 -67 547 118 661 69 b 282 -333 661 -208 496 -333 b 14 -165 139 -333 14 -285 b 150 33 14 -85 74 -24 b 74 132 99 50 74 82 b 167 283 74 189 118 238 b 69 496 107 329 69 403 b 322 761 69 658 183 761 b 461 721 372 761 421 747 b 615 761 510 744 564 761 b 667 719 651 761 667 744 b 622 685 667 694 650 685 b 515 676 579 685 550 683 l 501 686 b 574 496 546 640 574 575 b 322 232 574 335 458 232 b 197 264 276 232 233 243 b 146 185 165 233 146 210 b 347 118 146 138 203 118 m 303 707 b 203 486 225 701 192 628 b 340 286 215 344 264 281 b 440 506 418 292 453 367 b 303 707 426 646 382 715 m 335 -226 b 604 -82 490 -226 604 -176 b 361 11 604 -4 519 11 b 192 22 292 11 235 14 b 108 -112 129 -35 108 -69 b 335 -226 108 -182 189 -226 "},"h":{"ha":761,"x_min":0,"x_max":0,"o":"m 265 618 l 269 618 b 486 761 322 694 394 761 b 635 561 589 761 635 689 l 635 143 b 733 33 635 54 649 33 l 733 0 l 414 0 l 414 33 b 504 143 492 33 504 54 l 504 561 b 428 672 504 633 482 672 b 265 560 374 672 315 625 l 265 143 b 356 33 265 54 278 33 l 356 0 l 36 0 l 36 33 b 135 143 121 33 135 54 l 135 940 b 58 1008 135 1031 136 1047 l 43 1038 l 147 1090 l 246 1139 l 265 1119 "},"ħ":{"ha":863,"x_min":0,"x_max":0,"o":"m 646 143 b 743 33 646 54 658 33 l 743 0 l 425 0 l 425 33 b 515 143 503 33 515 54 l 515 561 b 439 672 515 633 493 672 b 275 560 383 672 326 625 l 275 143 b 365 33 275 54 288 33 l 365 0 l 47 0 l 47 33 b 144 143 132 33 144 54 l 144 865 l 46 865 l 46 907 l 144 907 l 144 940 b 68 1008 144 1031 147 1047 l 54 1038 l 256 1139 l 275 1119 l 275 907 l 501 907 l 501 865 l 275 865 l 275 618 l 279 618 b 497 761 333 694 404 761 b 646 561 599 761 646 689 l 646 143 "},"i":{"ha":390,"x_min":0,"x_max":0,"o":"m 193 976 b 113 1057 149 976 113 1013 b 193 1139 113 1103 149 1139 b 275 1057 239 1139 275 1103 b 193 976 275 1013 239 976 m 265 143 b 363 33 265 54 278 33 l 363 0 l 36 0 l 36 33 b 135 143 121 33 135 54 l 135 561 b 58 631 135 651 136 669 l 43 660 l 147 711 l 246 761 l 265 742 l 265 143 "},"ı":{"ha":390,"x_min":0,"x_max":0,"o":"m 265 143 b 363 33 265 54 278 33 l 363 0 l 36 0 l 36 33 b 135 143 121 33 135 54 l 135 561 b 58 631 135 651 136 669 l 43 660 l 147 711 l 246 761 l 265 742 l 265 143 "},"í":{"ha":390,"x_min":0,"x_max":0,"o":"m 213 1126 l 351 1126 l 172 872 l 119 872 m 265 143 b 363 33 265 54 278 33 l 363 0 l 36 0 l 36 33 b 135 143 121 33 135 54 l 135 561 b 58 631 135 651 136 669 l 43 660 l 147 711 l 246 761 l 265 742 l 265 143 "},"î":{"ha":390,"x_min":0,"x_max":0,"o":"m 178 1046 l 31 867 l -22 867 l 110 1122 l 244 1122 l 376 867 l 324 867 m 265 143 b 363 33 265 54 278 33 l 363 0 l 36 0 l 36 33 b 135 143 121 33 135 54 l 135 561 b 58 631 135 651 136 669 l 43 660 l 147 711 l 246 761 l 265 742 l 265 143 "},"ï":{"ha":390,"x_min":0,"x_max":0,"o":"m 40 921 b -42 1001 -4 921 -42 957 b 40 1083 -42 1047 -4 1083 b 122 1001 85 1083 122 1047 b 40 921 122 957 85 921 m 314 921 b 233 1001 269 921 233 957 b 314 1083 233 1047 269 1083 b 396 1001 360 1083 396 1047 b 314 921 396 957 360 921 m 265 143 b 363 33 265 54 278 33 l 363 0 l 36 0 l 36 33 b 135 143 121 33 135 54 l 135 561 b 58 631 135 651 136 669 l 43 660 l 147 711 l 246 761 l 265 742 l 265 143 "},"ì":{"ha":390,"x_min":0,"x_max":0,"o":"m 201 872 l 22 1126 l 161 1126 l 254 872 m 265 143 b 363 33 265 54 278 33 l 363 0 l 36 0 l 36 33 b 135 143 121 33 135 54 l 135 561 b 58 631 135 651 136 669 l 43 660 l 147 711 l 246 761 l 265 742 l 265 143 "},"ī":{"ha":390,"x_min":0,"x_max":0,"o":"m 382 1019 l 382 963 l -28 963 l -28 1019 m 265 143 b 363 33 265 54 278 33 l 363 0 l 36 0 l 36 33 b 135 143 121 33 135 54 l 135 561 b 58 631 135 651 136 669 l 43 660 l 147 711 l 246 761 l 265 742 l 265 143 "},"į":{"ha":390,"x_min":0,"x_max":0,"o":"m 178 921 b 96 1001 133 921 96 957 b 178 1083 96 1047 133 1083 b 260 1001 222 1083 260 1047 b 178 921 260 957 222 921 m 382 -274 b 218 -335 335 -311 283 -335 b 64 -200 136 -335 64 -289 b 271 0 64 -62 215 -44 l 36 0 l 36 33 b 135 143 121 33 135 54 l 135 561 b 58 631 135 651 136 669 l 43 660 l 147 711 l 246 761 l 265 742 l 265 143 b 363 33 265 54 278 33 l 363 0 l 307 0 b 167 -182 249 -64 167 -86 b 260 -272 167 -236 199 -272 b 374 -240 293 -272 322 -264 "},"j":{"ha":375,"x_min":0,"x_max":0,"o":"m 206 976 b 124 1057 160 976 124 1013 b 206 1139 124 1103 160 1139 b 286 1057 250 1139 286 1103 b 206 976 286 1013 250 976 m 278 731 l 278 -61 b 85 -333 278 -243 204 -333 b -87 -212 -22 -333 -87 -282 b -12 -146 -87 -169 -54 -146 b 64 -217 31 -146 60 -168 b 97 -276 67 -250 64 -276 b 147 -75 143 -276 147 -193 l 147 551 b 71 619 147 642 150 658 l 57 649 l 258 750 "},"k":{"ha":772,"x_min":0,"x_max":0,"o":"m 265 143 b 363 33 265 54 278 33 l 363 0 l 36 0 l 36 33 b 135 143 121 33 135 54 l 135 940 b 58 1008 135 1031 136 1047 l 43 1038 l 147 1090 l 246 1139 l 265 1119 l 265 143 m 619 125 b 758 33 664 47 700 33 l 758 0 l 417 0 l 417 33 b 457 125 511 33 500 47 l 293 419 l 481 626 b 460 700 542 693 561 700 l 460 733 l 722 733 l 722 700 b 558 625 663 700 618 693 l 425 475 l 619 125 "},"ķ":{"ha":772,"x_min":0,"x_max":0,"o":"m 265 143 b 363 33 265 54 278 33 l 363 0 l 36 0 l 36 33 b 135 143 121 33 135 54 l 135 940 b 58 1008 135 1031 136 1047 l 43 1038 l 147 1090 l 246 1139 l 265 1119 l 265 143 m 619 125 b 758 33 664 47 700 33 l 758 0 l 417 0 l 417 33 b 457 125 511 33 500 47 l 293 419 l 481 626 b 460 700 542 693 561 700 l 460 733 l 722 733 l 722 700 b 558 625 663 700 618 693 l 425 475 l 619 125 m 372 -229 b 326 -169 349 -229 326 -207 b 399 -103 326 -125 360 -103 b 485 -199 450 -103 485 -140 b 342 -343 485 -264 443 -318 l 342 -310 b 431 -236 382 -300 431 -274 b 417 -215 431 -226 428 -215 b 372 -229 406 -215 396 -229 "},"l":{"ha":390,"x_min":0,"x_max":0,"o":"m 265 143 b 363 33 265 54 278 33 l 363 0 l 36 0 l 36 33 b 135 143 121 33 135 54 l 135 940 b 58 1008 135 1031 136 1047 l 43 1038 l 147 1090 l 246 1139 l 265 1119 l 265 143 "},"ĺ":{"ha":390,"x_min":0,"x_max":0,"o":"m 226 1481 l 365 1481 l 186 1226 l 133 1226 m 265 143 b 363 33 265 54 278 33 l 363 0 l 36 0 l 36 33 b 135 143 121 33 135 54 l 135 940 b 58 1008 135 1031 136 1047 l 43 1038 l 147 1090 l 246 1139 l 265 1119 l 265 143 "},"ľ":{"ha":539,"x_min":0,"x_max":0,"o":"m 265 143 b 363 33 265 54 278 33 l 363 0 l 36 0 l 36 33 b 135 143 121 33 135 54 l 135 940 b 58 1008 135 1031 136 1047 l 43 1038 l 147 1090 l 246 1139 l 265 1119 l 265 143 m 397 1061 b 457 1139 397 1113 418 1139 b 517 1061 494 1139 517 1113 b 475 757 517 978 492 894 l 442 757 b 397 1061 424 894 397 978 "},"ļ":{"ha":390,"x_min":0,"x_max":0,"o":"m 265 143 b 363 33 265 54 278 33 l 363 0 l 36 0 l 36 33 b 135 143 121 33 135 54 l 135 940 b 58 1008 135 1031 136 1047 l 43 1038 l 147 1090 l 246 1139 l 265 1119 l 265 143 m 165 -229 b 119 -169 142 -229 119 -207 b 192 -103 119 -125 153 -103 b 278 -199 243 -103 278 -140 b 135 -343 278 -264 236 -318 l 135 -310 b 224 -236 175 -300 224 -274 b 210 -215 224 -226 221 -215 b 165 -229 199 -215 189 -229 "},"ł":{"ha":456,"x_min":0,"x_max":0,"o":"m 285 143 b 382 33 285 54 299 33 l 382 0 l 57 0 l 57 33 b 154 143 140 33 154 54 l 154 511 l 51 451 l 31 488 l 154 560 l 154 940 b 78 1008 154 1031 157 1047 l 64 1038 l 167 1090 l 265 1139 l 285 1119 l 285 635 l 404 704 l 425 668 l 285 586 l 285 143 "},"m":{"ha":1119,"x_min":0,"x_max":0,"o":"m 993 143 b 1092 33 993 54 1007 33 l 1092 0 l 776 0 l 776 33 b 864 143 851 33 864 54 l 864 565 b 793 674 864 639 843 674 b 629 560 736 674 681 625 l 629 143 b 717 33 629 54 642 33 l 717 0 l 413 0 l 413 33 b 500 143 488 33 500 54 l 500 565 b 429 674 500 639 479 674 b 265 560 372 674 315 625 l 265 143 b 351 33 265 54 276 33 l 351 0 l 36 0 l 36 33 b 135 143 121 33 135 54 l 135 561 b 58 631 135 651 136 669 l 43 660 l 147 711 l 246 761 l 265 742 l 265 618 l 269 618 b 481 761 322 694 389 761 b 625 618 567 761 613 710 l 629 618 b 850 761 686 694 758 761 b 993 561 953 761 993 689 l 993 143 "},"n":{"ha":761,"x_min":0,"x_max":0,"o":"m 265 618 l 269 618 b 486 761 322 694 394 761 b 635 561 589 761 635 689 l 635 143 b 733 33 635 54 649 33 l 733 0 l 414 0 l 414 33 b 504 143 492 33 504 54 l 504 561 b 428 672 504 633 482 672 b 265 560 374 672 315 625 l 265 143 b 356 33 265 54 278 33 l 356 0 l 36 0 l 36 33 b 135 143 121 33 135 54 l 135 561 b 58 631 135 651 136 669 l 43 660 l 147 711 l 246 761 l 265 742 "},"ń":{"ha":761,"x_min":0,"x_max":0,"o":"m 424 1126 l 563 1126 l 383 872 l 331 872 m 265 618 l 269 618 b 486 761 322 694 394 761 b 635 561 589 761 635 689 l 635 143 b 733 33 635 54 649 33 l 733 0 l 414 0 l 414 33 b 504 143 492 33 504 54 l 504 561 b 428 672 504 633 482 672 b 265 560 374 672 315 625 l 265 143 b 356 33 265 54 278 33 l 356 0 l 36 0 l 36 33 b 135 143 121 33 135 54 l 135 561 b 58 631 135 651 136 669 l 43 660 l 147 711 l 246 761 l 265 742 "},"ň":{"ha":761,"x_min":0,"x_max":0,"o":"m 189 1122 l 242 1122 l 388 943 l 535 1122 l 588 1122 l 456 867 l 321 867 m 635 143 b 733 33 635 54 649 33 l 733 0 l 414 0 l 414 33 b 504 143 492 33 504 54 l 504 561 b 428 672 504 633 482 672 b 265 560 374 672 315 625 l 265 143 b 356 33 265 54 278 33 l 356 0 l 36 0 l 36 33 b 135 143 121 33 135 54 l 135 561 b 58 631 135 651 136 669 l 43 660 l 147 711 l 246 761 l 265 742 l 265 618 l 269 618 b 486 761 322 694 394 761 b 635 561 589 761 635 689 l 635 143 "},"ņ":{"ha":761,"x_min":0,"x_max":0,"o":"m 265 618 l 269 618 b 486 761 322 694 394 761 b 635 561 589 761 635 689 l 635 143 b 733 33 635 54 649 33 l 733 0 l 414 0 l 414 33 b 504 143 492 33 504 54 l 504 561 b 428 672 504 633 482 672 b 265 560 374 672 315 625 l 265 143 b 356 33 265 54 278 33 l 356 0 l 36 0 l 36 33 b 135 143 121 33 135 54 l 135 561 b 58 631 135 651 136 669 l 43 660 l 147 711 l 246 761 l 265 742 m 356 -229 b 310 -169 332 -229 310 -207 b 382 -103 310 -125 343 -103 b 468 -199 433 -103 468 -140 b 325 -343 468 -264 426 -318 l 325 -310 b 414 -236 365 -300 414 -274 b 400 -215 414 -226 411 -215 b 356 -229 389 -215 379 -229 "},"ŋ":{"ha":717,"x_min":0,"x_max":0,"o":"m 522 761 b 689 543 639 761 689 681 l 689 -35 b 471 -333 689 -235 628 -333 b 283 -204 356 -333 283 -282 b 358 -137 283 -161 317 -137 b 435 -208 400 -137 429 -160 b 476 -276 438 -250 435 -276 b 556 -75 553 -276 556 -193 l 556 557 b 461 682 556 639 526 682 b 268 543 399 682 328 625 l 268 143 b 356 33 268 54 281 33 l 356 0 l 36 0 l 36 33 b 135 143 121 33 135 54 l 135 561 b 57 631 135 651 136 669 l 43 661 l 147 711 l 249 761 l 268 742 l 268 600 l 272 600 b 522 761 335 686 421 761 "},"ñ":{"ha":761,"x_min":0,"x_max":0,"o":"m 488 919 b 278 1015 400 919 354 1015 b 203 919 226 1015 211 978 l 169 919 b 289 1113 178 1011 201 1113 b 500 1017 378 1113 422 1017 b 574 1113 551 1017 567 1054 l 607 1113 b 488 919 599 1021 575 919 m 265 618 l 269 618 b 486 761 322 694 394 761 b 635 561 589 761 635 689 l 635 143 b 733 33 635 54 649 33 l 733 0 l 414 0 l 414 33 b 504 143 492 33 504 54 l 504 561 b 428 672 504 633 482 672 b 265 560 374 672 315 625 l 265 143 b 356 33 265 54 278 33 l 356 0 l 36 0 l 36 33 b 135 143 121 33 135 54 l 135 561 b 58 631 135 651 136 669 l 43 660 l 147 711 l 246 761 l 265 742 "},"o":{"ha":726,"x_min":0,"x_max":0,"o":"m 364 -28 b 50 367 169 -28 50 142 b 364 761 50 590 169 761 b 676 367 557 761 676 590 b 364 -28 676 142 557 -28 m 393 31 b 526 381 499 40 544 158 b 333 701 507 603 440 711 b 200 351 228 692 182 574 b 393 31 221 131 286 22 "},"ó":{"ha":726,"x_min":0,"x_max":0,"o":"m 399 1126 l 538 1126 l 358 872 l 306 872 m 364 -28 b 50 367 169 -28 50 142 b 364 761 50 590 169 761 b 676 367 557 761 676 590 b 364 -28 676 142 557 -28 m 393 31 b 526 381 499 40 544 158 b 333 701 507 603 440 711 b 200 351 228 692 182 574 b 393 31 221 131 286 22 "},"ô":{"ha":726,"x_min":0,"x_max":0,"o":"m 217 867 l 164 867 l 296 1122 l 431 1122 l 563 867 l 510 867 l 364 1046 m 364 761 b 676 367 557 761 676 590 b 364 -28 676 142 557 -28 b 50 367 169 -28 50 142 b 364 761 50 590 169 761 m 393 31 b 526 381 499 40 544 158 b 333 701 507 603 440 711 b 200 351 228 692 182 574 b 393 31 221 131 286 22 "},"ö":{"ha":726,"x_min":0,"x_max":0,"o":"m 226 921 b 144 1001 182 921 144 957 b 226 1083 144 1047 182 1083 b 308 1001 271 1083 308 1047 b 226 921 308 957 271 921 m 500 921 b 419 1001 456 921 419 957 b 500 1083 419 1047 456 1083 b 582 1001 546 1083 582 1047 b 500 921 582 957 546 921 m 364 -28 b 50 367 169 -28 50 142 b 364 761 50 590 169 761 b 676 367 557 761 676 590 b 364 -28 676 142 557 -28 m 393 31 b 526 381 499 40 544 158 b 333 701 507 603 440 711 b 200 351 228 692 182 574 b 393 31 221 131 286 22 "},"ò":{"ha":726,"x_min":0,"x_max":0,"o":"m 386 872 l 207 1126 l 346 1126 l 439 872 m 364 -28 b 50 367 169 -28 50 142 b 364 761 50 590 169 761 b 676 367 557 761 676 590 b 364 -28 676 142 557 -28 m 393 31 b 526 381 499 40 544 158 b 333 701 507 603 440 711 b 200 351 228 692 182 574 b 393 31 221 131 286 22 "},"ő":{"ha":726,"x_min":0,"x_max":0,"o":"m 294 1126 l 394 1126 l 263 872 l 221 872 m 450 1126 l 549 1126 l 407 872 l 365 872 m 364 -28 b 50 367 169 -28 50 142 b 364 761 50 590 169 761 b 676 367 557 761 676 590 b 364 -28 676 142 557 -28 m 393 31 b 526 381 499 40 544 158 b 333 701 507 603 440 711 b 200 351 228 692 182 574 b 393 31 221 131 286 22 "},"ō":{"ha":726,"x_min":0,"x_max":0,"o":"m 568 1019 l 568 963 l 158 963 l 158 1019 m 364 -28 b 50 367 169 -28 50 142 b 364 761 50 590 169 761 b 676 367 557 761 676 590 b 364 -28 676 142 557 -28 m 393 31 b 526 381 499 40 544 158 b 333 701 507 603 440 711 b 200 351 228 692 182 574 b 393 31 221 131 286 22 "},"ø":{"ha":726,"x_min":0,"x_max":0,"o":"m 569 675 b 676 367 638 604 676 494 b 364 -28 676 142 557 -28 b 194 26 299 -28 242 -8 l 132 -82 l 92 -58 l 158 57 b 50 367 89 128 50 239 b 364 761 50 590 169 761 b 533 707 429 761 488 742 l 596 814 l 636 792 l 569 675 m 200 351 b 231 182 207 285 217 229 l 475 606 b 333 701 442 675 394 707 b 200 351 228 692 182 574 m 393 31 b 526 381 499 40 544 158 b 496 550 521 447 511 504 l 253 126 b 393 31 286 58 333 26 "},"õ":{"ha":726,"x_min":0,"x_max":0,"o":"m 463 919 b 253 1015 375 919 329 1015 b 178 919 201 1015 186 978 l 144 919 b 264 1113 153 1011 176 1113 b 475 1017 353 1113 397 1017 b 549 1113 526 1017 542 1054 l 582 1113 b 463 919 574 1021 550 919 m 364 -28 b 50 367 169 -28 50 142 b 364 761 50 590 169 761 b 676 367 557 761 676 590 b 364 -28 676 142 557 -28 m 393 31 b 526 381 499 40 544 158 b 333 701 507 603 440 711 b 200 351 228 692 182 574 b 393 31 221 131 286 22 "},"œ":{"ha":1150,"x_min":0,"x_max":0,"o":"m 1099 292 b 849 -28 1068 78 976 -28 b 629 144 746 -28 669 35 b 364 -28 578 39 485 -28 b 50 367 169 -28 50 142 b 364 761 50 590 169 761 b 633 581 489 761 582 690 b 861 761 676 688 754 761 b 1097 406 1019 761 1097 608 l 728 406 l 728 400 b 896 75 728 211 785 75 b 1065 292 961 75 1025 128 m 393 31 b 526 381 499 40 544 158 b 333 701 507 603 440 711 b 200 351 228 692 182 574 b 393 31 221 131 286 22 m 856 703 b 729 463 774 703 738 603 l 963 463 b 856 703 963 596 939 703 "},"p":{"ha":749,"x_min":0,"x_max":0,"o":"m 485 761 b 699 410 636 761 699 600 b 436 -28 699 168 588 -28 b 258 79 363 -28 303 7 l 256 79 l 256 -162 b 354 -272 256 -253 269 -272 l 354 -306 l 28 -306 l 28 -272 b 126 -162 113 -272 126 -253 l 126 561 b 53 632 126 651 128 669 l 38 661 l 238 761 l 256 742 l 256 599 l 261 599 b 485 761 321 700 393 761 m 408 29 b 550 369 518 29 550 201 b 428 679 550 571 518 679 b 256 546 360 679 294 614 l 256 275 b 408 29 256 119 322 29 "},"þ":{"ha":793,"x_min":0,"x_max":0,"o":"m 501 761 b 743 410 660 761 743 600 b 443 -28 743 168 619 -28 b 268 79 367 -28 308 3 l 265 79 l 265 -162 b 363 -272 265 -253 278 -272 l 363 -306 l 36 -306 l 36 -272 b 135 -162 121 -272 135 -253 l 135 940 b 61 1010 135 1031 138 1047 l 47 1039 l 246 1139 l 265 1119 l 265 590 l 271 590 b 501 761 329 700 401 761 m 414 29 b 594 369 551 29 594 201 b 449 679 594 572 546 679 b 265 538 363 679 304 614 l 265 275 b 414 29 265 119 326 29 "},"q":{"ha":749,"x_min":0,"x_max":0,"o":"m 604 761 l 624 742 l 624 -162 b 721 -272 624 -253 638 -272 l 721 -306 l 396 -306 l 396 -272 b 493 -162 479 -272 493 -253 l 493 113 l 488 113 b 278 -28 428 31 371 -28 b 50 318 143 -28 50 100 b 350 761 50 564 142 761 b 533 701 413 761 469 740 m 493 603 b 367 703 464 665 426 703 b 200 358 231 703 200 526 b 342 60 200 149 251 60 b 493 169 410 60 450 115 l 493 603 "},"r":{"ha":581,"x_min":0,"x_max":0,"o":"m 456 761 b 558 676 515 761 558 728 b 485 599 558 635 532 599 b 417 638 446 599 429 615 b 385 661 407 654 399 661 b 265 538 343 661 311 618 l 265 143 b 411 33 265 54 285 33 l 411 0 l 36 0 l 36 33 b 135 143 121 33 135 54 l 135 561 b 58 631 135 651 136 669 l 43 660 l 147 711 l 246 761 l 265 742 l 265 617 l 269 617 b 456 761 306 682 365 761 "},"ŕ":{"ha":581,"x_min":0,"x_max":0,"o":"m 308 872 l 256 872 l 349 1126 l 488 1126 m 456 761 b 558 676 515 761 558 728 b 485 599 558 635 532 599 b 417 638 446 599 429 615 b 385 661 407 654 399 661 b 265 538 343 661 311 618 l 265 143 b 411 33 265 54 285 33 l 411 0 l 36 0 l 36 33 b 135 143 121 33 135 54 l 135 561 b 58 631 135 651 136 669 l 43 660 l 147 711 l 246 761 l 265 742 l 265 617 l 269 617 b 456 761 306 682 365 761 "},"ř":{"ha":581,"x_min":0,"x_max":0,"o":"m 115 1122 l 168 1122 l 314 943 l 461 1122 l 514 1122 l 382 867 l 247 867 m 456 761 b 558 676 515 761 558 728 b 485 599 558 635 532 599 b 417 638 446 599 429 615 b 385 661 407 654 399 661 b 265 538 343 661 311 618 l 265 143 b 411 33 265 54 285 33 l 411 0 l 36 0 l 36 33 b 135 143 121 33 135 54 l 135 561 b 58 631 135 651 136 669 l 43 660 l 147 711 l 246 761 l 265 742 l 265 617 l 269 617 b 456 761 306 682 365 761 "},"ŗ":{"ha":581,"x_min":0,"x_max":0,"o":"m 456 761 b 558 676 515 761 558 728 b 485 599 558 635 532 599 b 417 638 446 599 429 615 b 385 661 407 654 399 661 b 265 538 343 661 311 618 l 265 143 b 411 33 265 54 285 33 l 411 0 l 36 0 l 36 33 b 135 143 121 33 135 54 l 135 561 b 58 631 135 651 136 669 l 43 660 l 147 711 l 246 761 l 265 742 l 265 617 l 269 617 b 456 761 306 682 365 761 m 214 -103 b 300 -199 265 -103 300 -140 b 157 -343 300 -264 258 -318 l 157 -310 b 246 -236 197 -300 246 -274 b 232 -215 246 -226 243 -215 b 188 -229 221 -215 211 -229 b 142 -169 164 -229 142 -207 b 214 -103 142 -125 175 -103 "},"s":{"ha":542,"x_min":0,"x_max":0,"o":"m 71 265 l 103 265 b 304 29 122 131 194 29 b 392 122 364 29 392 65 b 236 338 392 203 331 254 b 69 588 142 421 69 481 b 251 761 69 690 143 761 b 410 706 350 761 386 706 b 426 747 426 706 426 719 l 458 747 l 458 518 l 426 518 b 257 703 407 621 346 703 b 178 629 199 703 178 663 b 314 447 178 565 231 519 b 500 163 440 339 500 279 b 308 -28 500 32 410 -28 b 125 28 199 -28 154 28 b 103 -14 107 28 103 14 l 71 -14 "},"ś":{"ha":542,"x_min":0,"x_max":0,"o":"m 324 1126 l 463 1126 l 283 872 l 231 872 m 71 265 l 103 265 b 304 29 122 131 194 29 b 392 122 364 29 392 65 b 236 338 392 203 331 254 b 69 588 142 421 69 481 b 251 761 69 690 143 761 b 410 706 350 761 386 706 b 426 747 426 706 426 719 l 458 747 l 458 518 l 426 518 b 257 703 407 621 346 703 b 178 629 199 703 178 663 b 314 447 178 565 231 519 b 500 163 440 339 500 279 b 308 -28 500 32 410 -28 b 125 28 199 -28 154 28 b 103 -14 107 28 103 14 l 71 -14 "},"š":{"ha":542,"x_min":0,"x_max":0,"o":"m 89 1122 l 142 1122 l 288 943 l 435 1122 l 488 1122 l 356 867 l 221 867 m 314 447 b 500 163 440 339 500 279 b 308 -28 500 32 410 -28 b 125 28 199 -28 154 28 b 103 -14 107 28 103 14 l 71 -14 l 71 265 l 103 265 b 304 29 122 131 194 29 b 392 122 364 29 392 65 b 236 338 392 203 331 254 b 69 588 142 421 69 481 b 251 761 69 690 143 761 b 410 706 350 761 386 706 b 426 747 426 706 426 719 l 458 747 l 458 518 l 426 518 b 257 703 407 621 346 703 b 178 629 199 703 178 663 b 314 447 178 565 231 519 "},"ş":{"ha":542,"x_min":0,"x_max":0,"o":"m 339 -74 b 481 -190 407 -79 481 -111 b 157 -344 481 -326 311 -365 l 165 -312 b 378 -203 296 -322 378 -287 b 235 -107 378 -129 317 -108 l 310 -28 l 308 -28 b 125 28 199 -28 154 28 b 103 -14 107 28 103 14 l 71 -14 l 71 265 l 103 265 b 304 29 122 131 194 29 b 392 122 364 29 392 65 b 236 338 392 203 331 254 b 69 588 142 421 69 481 b 251 761 69 690 143 761 b 410 706 350 761 386 706 b 426 747 426 706 426 719 l 458 747 l 458 518 l 426 518 b 257 703 407 621 346 703 b 178 629 199 703 178 663 b 314 447 178 565 231 519 b 500 163 440 339 500 279 b 385 -15 500 67 451 8 l 339 -74 "},"ș":{"ha":542,"x_min":0,"x_max":0,"o":"m 71 265 l 103 265 b 304 29 122 131 194 29 b 392 122 364 29 392 65 b 236 338 392 203 331 254 b 69 588 142 421 69 481 b 251 761 69 690 143 761 b 410 706 350 761 386 706 b 426 747 426 706 426 719 l 458 747 l 458 518 l 426 518 b 257 703 407 621 346 703 b 178 629 199 703 178 663 b 314 447 178 565 231 519 b 500 163 440 339 500 279 b 308 -28 500 32 410 -28 b 125 28 199 -28 154 28 b 103 -14 107 28 103 14 l 71 -14 m 261 -229 b 215 -169 238 -229 215 -207 b 288 -103 215 -125 249 -103 b 374 -199 339 -103 374 -140 b 231 -343 374 -264 332 -318 l 231 -310 b 319 -236 271 -300 319 -274 b 306 -215 319 -226 317 -215 b 261 -229 294 -215 285 -229 "},"ß":{"ha":826,"x_min":0,"x_max":0,"o":"m 60 33 b 157 143 143 33 157 54 l 157 733 l 69 733 l 69 765 b 157 846 138 765 157 781 b 442 1139 157 1063 283 1139 b 711 913 606 1139 711 1056 b 510 653 711 803 647 710 l 510 649 b 785 283 643 619 785 485 b 561 -28 785 100 700 -28 b 411 81 449 -28 411 26 b 474 143 411 115 435 143 b 529 75 514 143 533 114 b 554 14 526 38 519 14 b 635 268 613 14 635 126 b 383 614 635 497 525 614 l 383 646 b 563 907 493 700 563 799 b 433 1082 563 1010 521 1082 b 288 857 338 1082 288 1006 l 288 143 b 385 33 288 54 301 33 l 385 0 l 60 0 "},"t":{"ha":493,"x_min":0,"x_max":0,"o":"m 465 306 b 303 -28 464 89 435 -28 b 128 229 193 -28 128 43 l 128 675 l 19 675 l 19 733 b 214 932 147 738 201 788 l 257 932 l 257 733 l 418 733 l 418 675 l 257 675 l 257 274 b 342 54 257 138 265 54 b 433 306 406 54 431 122 "},"ŧ":{"ha":503,"x_min":0,"x_max":0,"o":"m 465 306 b 303 -28 464 89 435 -28 b 128 229 193 -28 128 43 l 128 476 l 14 476 l 14 518 l 128 518 l 128 675 l 19 675 l 19 733 b 214 932 147 738 201 788 l 257 932 l 257 733 l 418 733 l 418 675 l 257 675 l 257 518 l 415 518 l 415 476 l 257 476 l 257 274 b 342 54 257 138 265 54 b 433 306 406 54 431 122 "},"ť":{"ha":526,"x_min":0,"x_max":0,"o":"m 429 1071 l 568 1071 l 389 817 l 336 817 m 465 306 b 303 -28 464 89 435 -28 b 128 229 193 -28 128 43 l 128 675 l 19 675 l 19 733 b 214 932 147 738 201 788 l 257 932 l 257 733 l 418 733 l 418 675 l 257 675 l 257 274 b 342 54 257 138 265 54 b 433 306 406 54 431 122 "},"ţ":{"ha":493,"x_min":0,"x_max":0,"o":"m 317 -74 b 458 -190 385 -79 458 -111 b 135 -344 458 -326 289 -365 l 143 -312 b 356 -203 274 -322 356 -287 b 213 -107 356 -129 294 -108 l 288 -28 b 128 229 188 -21 128 51 l 128 675 l 19 675 l 19 733 b 214 932 147 738 201 788 l 257 932 l 257 733 l 418 733 l 418 675 l 257 675 l 257 274 b 342 54 257 138 265 54 b 433 306 406 54 431 122 l 465 306 b 360 -18 464 124 443 13 l 317 -74 "},"ț":{"ha":493,"x_min":0,"x_max":0,"o":"m 465 306 b 303 -28 464 89 435 -28 b 128 229 193 -28 128 43 l 128 675 l 19 675 l 19 733 b 214 932 147 738 201 788 l 257 932 l 257 733 l 418 733 l 418 675 l 257 675 l 257 274 b 342 54 257 138 265 54 b 433 306 406 54 431 122 m 239 -229 b 193 -169 215 -229 193 -207 b 265 -103 193 -125 226 -103 b 351 -199 317 -103 351 -140 b 208 -343 351 -264 310 -318 l 208 -310 b 297 -236 249 -300 297 -274 b 283 -215 297 -226 294 -215 b 239 -229 272 -215 263 -229 "},"u":{"ha":732,"x_min":0,"x_max":0,"o":"m 490 115 l 486 115 b 274 -28 432 38 367 -28 b 125 172 172 -28 125 43 l 125 579 b 36 664 125 669 121 686 l 28 696 l 139 726 l 236 751 l 256 733 l 256 172 b 332 60 256 100 278 60 b 490 172 388 60 439 107 l 490 579 b 400 664 490 669 485 686 l 392 696 l 504 726 l 601 751 l 621 733 l 621 171 b 693 101 621 82 618 64 l 708 72 l 510 -28 l 490 -8 "},"ú":{"ha":732,"x_min":0,"x_max":0,"o":"m 403 1126 l 542 1126 l 363 872 l 310 872 m 490 115 l 486 115 b 274 -28 432 38 367 -28 b 125 172 172 -28 125 43 l 125 579 b 36 664 125 669 121 686 l 28 696 l 139 726 l 236 751 l 256 733 l 256 172 b 332 60 256 100 278 60 b 490 172 388 60 439 107 l 490 579 b 400 664 490 669 485 686 l 392 696 l 504 726 l 601 751 l 621 733 l 621 171 b 693 101 621 82 618 64 l 708 72 l 510 -28 l 490 -8 "},"û":{"ha":732,"x_min":0,"x_max":0,"o":"m 221 867 l 168 867 l 300 1122 l 435 1122 l 567 867 l 514 867 l 368 1046 m 708 72 l 510 -28 l 490 -8 l 490 115 l 486 115 b 274 -28 432 38 367 -28 b 125 172 172 -28 125 43 l 125 579 b 36 664 125 669 121 686 l 28 696 l 139 726 l 236 751 l 256 733 l 256 172 b 332 60 256 100 278 60 b 490 172 388 60 439 107 l 490 579 b 400 664 490 669 485 686 l 392 696 l 504 726 l 601 751 l 621 733 l 621 171 b 693 101 621 82 618 64 "},"ü":{"ha":732,"x_min":0,"x_max":0,"o":"m 231 921 b 149 1001 186 921 149 957 b 231 1083 149 1047 186 1083 b 313 1001 275 1083 313 1047 b 231 921 313 957 275 921 m 504 921 b 424 1001 460 921 424 957 b 504 1083 424 1047 460 1083 b 586 1001 550 1083 586 1047 b 504 921 586 957 550 921 m 490 115 l 486 115 b 274 -28 432 38 367 -28 b 125 172 172 -28 125 43 l 125 579 b 36 664 125 669 121 686 l 28 696 l 139 726 l 236 751 l 256 733 l 256 172 b 332 60 256 100 278 60 b 490 172 388 60 439 107 l 490 579 b 400 664 490 669 485 686 l 392 696 l 504 726 l 601 751 l 621 733 l 621 171 b 693 101 621 82 618 64 l 708 72 l 510 -28 l 490 -8 "},"ù":{"ha":732,"x_min":0,"x_max":0,"o":"m 392 872 l 213 1126 l 351 1126 l 444 872 m 490 115 l 486 115 b 274 -28 432 38 367 -28 b 125 172 172 -28 125 43 l 125 579 b 36 664 125 669 121 686 l 28 696 l 139 726 l 236 751 l 256 733 l 256 172 b 332 60 256 100 278 60 b 490 172 388 60 439 107 l 490 579 b 400 664 490 669 485 686 l 392 696 l 504 726 l 601 751 l 621 733 l 621 171 b 693 101 621 82 618 64 l 708 72 l 510 -28 l 490 -8 "},"ű":{"ha":732,"x_min":0,"x_max":0,"o":"m 299 1126 l 399 1126 l 267 872 l 225 872 m 454 1126 l 553 1126 l 411 872 l 369 872 m 490 115 l 486 115 b 274 -28 432 38 367 -28 b 125 172 172 -28 125 43 l 125 579 b 36 664 125 669 121 686 l 28 696 l 139 726 l 236 751 l 256 733 l 256 172 b 332 60 256 100 278 60 b 490 172 388 60 439 107 l 490 579 b 400 664 490 669 485 686 l 392 696 l 504 726 l 601 751 l 621 733 l 621 171 b 693 101 621 82 618 64 l 708 72 l 510 -28 l 490 -8 "},"ū":{"ha":732,"x_min":0,"x_max":0,"o":"m 572 1019 l 572 963 l 163 963 l 163 1019 m 490 115 l 486 115 b 274 -28 432 38 367 -28 b 125 172 172 -28 125 43 l 125 579 b 36 664 125 669 121 686 l 28 696 l 139 726 l 236 751 l 256 733 l 256 172 b 332 60 256 100 278 60 b 490 172 388 60 439 107 l 490 579 b 400 664 490 669 485 686 l 392 696 l 504 726 l 601 751 l 621 733 l 621 171 b 693 101 621 82 618 64 l 708 72 l 510 -28 l 490 -8 "},"ų":{"ha":732,"x_min":0,"x_max":0,"o":"m 508 -26 b 390 -187 454 -76 390 -103 b 483 -278 390 -242 422 -278 b 597 -246 517 -278 546 -269 l 606 -279 b 442 -340 558 -317 507 -340 b 288 -206 360 -340 288 -294 b 490 -8 288 -71 432 -51 l 490 115 l 486 115 b 274 -28 432 38 367 -28 b 125 172 172 -28 125 43 l 125 579 b 36 664 125 669 121 686 l 28 696 l 139 726 l 236 751 l 256 733 l 256 172 b 332 60 256 100 278 60 b 490 172 388 60 439 107 l 490 579 b 400 664 490 669 485 686 l 392 696 l 504 726 l 601 751 l 621 733 l 621 171 b 693 101 621 82 618 64 l 708 72 l 510 -28 l 508 -26 "},"ů":{"ha":732,"x_min":0,"x_max":0,"o":"m 368 871 b 225 1014 285 871 225 939 b 368 1154 225 1089 285 1154 b 508 1014 450 1154 508 1089 b 368 871 508 939 450 871 m 368 924 b 457 1014 428 924 457 969 b 368 1103 457 1057 428 1103 b 278 1014 307 1103 278 1057 b 368 924 278 969 307 924 m 490 115 l 486 115 b 274 -28 432 38 367 -28 b 125 172 172 -28 125 43 l 125 579 b 36 664 125 669 121 686 l 28 696 l 139 726 l 236 751 l 256 733 l 256 172 b 332 60 256 100 278 60 b 490 172 388 60 439 107 l 490 579 b 400 664 490 669 485 686 l 392 696 l 504 726 l 601 751 l 621 733 l 621 171 b 693 101 621 82 618 64 l 708 72 l 510 -28 l 490 -8 "},"v":{"ha":688,"x_min":0,"x_max":0,"o":"m 508 594 b 444 700 533 681 533 700 l 444 733 l 674 733 l 674 700 b 565 594 614 700 590 681 l 388 -32 l 307 -32 l 122 594 b 14 700 97 682 72 700 l 14 733 l 331 733 l 331 700 b 274 594 249 700 249 681 l 389 192 l 393 192 l 508 594 "},"w":{"ha":1051,"x_min":0,"x_max":0,"o":"m 1038 700 b 931 594 979 700 954 681 l 751 -32 l 672 -32 l 549 388 l 415 -32 l 335 -32 l 128 596 b 14 700 99 682 72 700 l 14 733 l 339 733 l 339 700 b 281 596 250 700 251 682 l 419 168 l 424 168 l 522 478 l 488 594 b 378 700 463 682 438 700 l 378 733 l 696 733 l 696 700 b 639 594 613 700 614 681 l 753 192 l 757 192 l 872 594 b 810 700 897 681 899 700 l 810 733 l 1038 733 "},"ẃ":{"ha":1051,"x_min":0,"x_max":0,"o":"m 525 872 l 472 872 l 565 1126 l 704 1126 m 1038 700 b 931 594 979 700 954 681 l 751 -32 l 672 -32 l 549 388 l 415 -32 l 335 -32 l 128 596 b 14 700 99 682 72 700 l 14 733 l 339 733 l 339 700 b 281 596 250 700 251 682 l 419 168 l 424 168 l 522 478 l 488 594 b 378 700 463 682 438 700 l 378 733 l 696 733 l 696 700 b 639 594 613 700 614 681 l 753 192 l 757 192 l 872 594 b 810 700 897 681 899 700 l 810 733 l 1038 733 "},"ŵ":{"ha":1051,"x_min":0,"x_max":0,"o":"m 383 867 l 331 867 l 463 1122 l 597 1122 l 729 867 l 676 867 l 531 1046 m 1038 700 b 931 594 979 700 954 681 l 751 -32 l 672 -32 l 549 388 l 415 -32 l 335 -32 l 128 596 b 14 700 99 682 72 700 l 14 733 l 339 733 l 339 700 b 281 596 250 700 251 682 l 419 168 l 424 168 l 522 478 l 488 594 b 378 700 463 682 438 700 l 378 733 l 696 733 l 696 700 b 639 594 613 700 614 681 l 753 192 l 757 192 l 872 594 b 810 700 897 681 899 700 l 810 733 l 1038 733 "},"ẅ":{"ha":1051,"x_min":0,"x_max":0,"o":"m 393 921 b 311 1001 349 921 311 957 b 393 1083 311 1047 349 1083 b 475 1001 438 1083 475 1047 b 393 921 475 957 438 921 m 667 921 b 586 1001 622 921 586 957 b 667 1083 586 1047 622 1083 b 749 1001 713 1083 749 1047 b 667 921 749 957 713 921 m 1038 700 b 931 594 979 700 954 681 l 751 -32 l 672 -32 l 549 388 l 415 -32 l 335 -32 l 128 596 b 14 700 99 682 72 700 l 14 733 l 339 733 l 339 700 b 281 596 250 700 251 682 l 419 168 l 424 168 l 522 478 l 488 594 b 378 700 463 682 438 700 l 378 733 l 696 733 l 696 700 b 639 594 613 700 614 681 l 753 192 l 757 192 l 872 594 b 810 700 897 681 899 700 l 810 733 l 1038 733 "},"ẁ":{"ha":1051,"x_min":0,"x_max":0,"o":"m 553 872 l 374 1126 l 513 1126 l 606 872 m 1038 700 b 931 594 979 700 954 681 l 751 -32 l 672 -32 l 549 388 l 415 -32 l 335 -32 l 128 596 b 14 700 99 682 72 700 l 14 733 l 339 733 l 339 700 b 281 596 250 700 251 682 l 419 168 l 424 168 l 522 478 l 488 594 b 378 700 463 682 438 700 l 378 733 l 696 733 l 696 700 b 639 594 613 700 614 681 l 753 192 l 757 192 l 872 594 b 810 700 897 681 899 700 l 810 733 l 1038 733 "},"x":{"ha":706,"x_min":0,"x_max":0,"o":"m 551 128 b 683 33 592 47 625 33 l 683 0 l 357 0 l 357 33 b 390 129 440 33 431 47 l 319 272 l 238 125 b 265 33 194 47 182 33 l 265 0 l 36 0 l 36 33 b 174 125 94 33 131 47 l 289 333 l 154 604 b 22 700 115 685 82 700 l 22 733 l 349 733 l 349 700 b 315 604 265 700 275 685 l 374 486 l 440 607 b 414 700 483 686 496 700 l 414 733 l 643 733 l 643 700 b 506 607 583 700 549 686 l 404 425 l 551 128 "},"y":{"ha":690,"x_min":0,"x_max":0,"o":"m 32 -232 b 106 -156 32 -186 67 -156 b 176 -194 143 -156 163 -176 b 222 -224 192 -215 200 -224 b 335 -18 272 -224 303 -161 l 135 596 b 22 700 107 682 82 700 l 22 733 l 350 733 l 350 700 b 288 594 261 700 261 682 l 403 204 l 503 594 b 436 700 525 681 525 700 l 436 733 l 667 733 l 667 700 b 561 594 608 700 585 681 l 408 25 b 158 -333 360 -149 325 -333 b 32 -232 83 -333 32 -292 "},"ý":{"ha":690,"x_min":0,"x_max":0,"o":"m 390 1126 l 529 1126 l 350 872 l 297 872 m 32 -232 b 106 -156 32 -186 67 -156 b 176 -194 143 -156 163 -176 b 222 -224 192 -215 200 -224 b 335 -18 272 -224 303 -161 l 135 596 b 22 700 107 682 82 700 l 22 733 l 350 733 l 350 700 b 288 594 261 700 261 682 l 403 204 l 503 594 b 436 700 525 681 525 700 l 436 733 l 667 733 l 667 700 b 561 594 608 700 585 681 l 408 25 b 158 -333 360 -149 325 -333 b 32 -232 83 -333 32 -292 "},"ŷ":{"ha":690,"x_min":0,"x_max":0,"o":"m 210 867 l 157 867 l 289 1122 l 424 1122 l 556 867 l 503 867 l 357 1046 m 667 700 b 561 594 608 700 585 681 l 408 25 b 158 -333 360 -149 325 -333 b 32 -232 83 -333 32 -292 b 106 -156 32 -186 67 -156 b 176 -194 143 -156 163 -176 b 222 -224 192 -215 200 -224 b 335 -18 272 -224 303 -161 l 135 596 b 22 700 107 682 82 700 l 22 733 l 350 733 l 350 700 b 288 594 261 700 261 682 l 403 204 l 503 594 b 436 700 525 681 525 700 l 436 733 l 667 733 "},"ÿ":{"ha":690,"x_min":0,"x_max":0,"o":"m 219 921 b 138 1001 175 921 138 957 b 219 1083 138 1047 175 1083 b 301 1001 264 1083 301 1047 b 219 921 301 957 264 921 m 493 921 b 413 1001 449 921 413 957 b 493 1083 413 1047 449 1083 b 575 1001 539 1083 575 1047 b 493 921 575 957 539 921 m 32 -232 b 106 -156 32 -186 67 -156 b 176 -194 143 -156 163 -176 b 222 -224 192 -215 200 -224 b 335 -18 272 -224 303 -161 l 135 596 b 22 700 107 682 82 700 l 22 733 l 350 733 l 350 700 b 288 594 261 700 261 682 l 403 204 l 503 594 b 436 700 525 681 525 700 l 436 733 l 667 733 l 667 700 b 561 594 608 700 585 681 l 408 25 b 158 -333 360 -149 325 -333 b 32 -232 83 -333 32 -292 "},"ỳ":{"ha":690,"x_min":0,"x_max":0,"o":"m 379 872 l 200 1126 l 339 1126 l 432 872 m 32 -232 b 106 -156 32 -186 67 -156 b 176 -194 143 -156 163 -176 b 222 -224 192 -215 200 -224 b 335 -18 272 -224 303 -161 l 135 596 b 22 700 107 682 82 700 l 22 733 l 350 733 l 350 700 b 288 594 261 700 261 682 l 403 204 l 503 594 b 436 700 525 681 525 700 l 436 733 l 667 733 l 667 700 b 561 594 608 700 585 681 l 408 25 b 158 -333 360 -149 325 -333 b 32 -232 83 -333 32 -292 "},"z":{"ha":604,"x_min":0,"x_max":0,"o":"m 419 57 b 531 253 510 57 531 85 l 563 253 l 563 0 l 42 0 l 42 33 l 389 675 l 218 675 b 108 508 129 675 108 653 l 75 508 l 75 733 l 563 733 l 563 700 l 217 57 l 419 57 "},"ź":{"ha":604,"x_min":0,"x_max":0,"o":"m 364 1126 l 503 1126 l 324 872 l 271 872 m 419 57 b 531 253 510 57 531 85 l 563 253 l 563 0 l 42 0 l 42 33 l 389 675 l 218 675 b 108 508 129 675 108 653 l 75 508 l 75 733 l 563 733 l 563 700 l 217 57 l 419 57 "},"ž":{"ha":604,"x_min":0,"x_max":0,"o":"m 131 1122 l 183 1122 l 329 943 l 476 1122 l 529 1122 l 397 867 l 263 867 m 563 700 l 217 57 l 419 57 b 531 253 510 57 531 85 l 563 253 l 563 0 l 42 0 l 42 33 l 389 675 l 218 675 b 108 508 129 675 108 653 l 75 508 l 75 733 l 563 733 "},"ż":{"ha":604,"x_min":0,"x_max":0,"o":"m 329 921 b 247 1001 285 921 247 957 b 329 1083 247 1047 285 1083 b 411 1001 374 1083 411 1047 b 329 921 411 957 374 921 m 419 57 b 531 253 510 57 531 85 l 563 253 l 563 0 l 42 0 l 42 33 l 389 675 l 218 675 b 108 508 129 675 108 653 l 75 508 l 75 733 l 563 733 l 563 700 l 217 57 l 419 57 "},"⓿":{"ha":1306,"x_min":0,"x_max":0,"o":"m 654 1139 b 69 554 328 1139 69 883 b 654 -28 69 233 328 -28 b 1236 554 976 -28 1236 233 b 654 1139 1236 883 976 1139 m 651 206 b 428 556 504 206 428 363 b 651 906 428 749 504 906 b 875 556 799 906 875 749 b 651 206 875 363 799 206 m 651 240 b 768 556 736 240 768 371 b 651 871 768 740 736 871 b 533 556 565 871 533 740 b 651 240 533 371 565 240 "},"❶":{"ha":1306,"x_min":0,"x_max":0,"o":"m 654 1139 b 69 554 328 1139 69 883 b 654 -28 69 233 328 -28 b 1236 554 976 -28 1236 233 b 654 1139 1236 883 976 1139 m 700 303 b 765 236 700 249 708 236 l 765 217 l 542 217 l 542 236 b 607 303 597 236 607 249 l 607 769 b 533 799 607 824 604 833 l 525 817 l 688 894 l 700 883 l 700 303 "},"❷":{"ha":1306,"x_min":0,"x_max":0,"o":"m 654 1139 b 69 554 328 1139 69 883 b 654 -28 69 233 328 -28 b 1236 554 976 -28 1236 233 b 654 1139 1236 883 976 1139 m 768 301 b 864 388 821 301 839 319 l 883 381 l 849 290 l 826 228 l 433 228 l 433 247 b 747 703 613 418 747 560 b 631 838 747 781 713 838 b 478 658 536 838 483 765 l 457 658 b 678 911 457 811 540 911 b 846 746 790 911 846 839 b 533 304 846 590 681 428 l 533 301 l 768 301 "},"❸":{"ha":1306,"x_min":0,"x_max":0,"o":"m 654 1139 b 69 554 328 1139 69 883 b 654 -28 69 233 328 -28 b 1236 554 976 -28 1236 233 b 654 1139 1236 883 976 1139 m 461 271 b 506 304 461 292 481 304 b 561 274 535 304 549 289 b 633 240 576 254 593 240 b 754 389 694 240 754 290 b 579 567 754 515 678 558 l 579 586 b 711 743 661 613 711 664 b 613 844 711 799 679 844 b 490 749 543 844 506 803 l 468 749 b 651 906 483 847 551 906 b 811 756 740 906 811 851 b 678 596 811 682 761 629 l 678 593 b 854 410 779 582 854 519 b 617 206 854 283 742 206 b 461 271 543 206 461 228 "},"❹":{"ha":1306,"x_min":0,"x_max":0,"o":"m 654 1139 b 69 554 328 1139 69 883 b 654 -28 69 233 328 -28 b 1236 554 976 -28 1236 233 b 654 1139 1236 883 976 1139 m 411 474 l 693 889 l 765 889 l 765 474 l 846 474 l 846 404 l 765 404 l 765 308 b 831 242 765 254 775 242 l 831 222 l 607 222 l 607 242 b 672 308 664 242 672 254 l 672 404 l 411 404 m 672 474 l 672 804 l 457 476 l 457 474 "},"❺":{"ha":1306,"x_min":0,"x_max":0,"o":"m 654 1139 b 69 554 328 1139 69 883 b 654 -28 69 233 328 -28 b 1236 554 976 -28 1236 233 b 654 1139 1236 883 976 1139 m 457 276 b 497 310 457 299 474 310 b 553 275 526 310 539 292 b 615 249 564 260 581 249 b 736 461 672 249 736 318 b 618 644 736 593 690 644 b 526 608 579 644 551 631 l 496 628 l 561 897 l 831 897 l 811 824 l 593 824 l 550 656 l 553 653 b 663 688 585 676 622 688 b 842 481 761 688 842 604 b 599 214 842 301 725 214 b 457 276 522 214 457 238 "},"❻":{"ha":1306,"x_min":0,"x_max":0,"o":"m 654 1139 b 69 554 328 1139 69 883 b 654 -28 69 233 328 -28 b 1236 554 976 -28 1236 233 b 654 1139 1236 883 976 1139 m 428 499 b 806 906 431 697 554 865 l 806 886 b 539 611 640 846 567 729 l 542 611 b 683 679 571 649 619 679 b 850 464 793 679 850 579 b 643 206 850 339 785 206 b 428 499 506 206 425 326 m 526 482 b 644 240 524 338 567 240 b 750 446 717 240 750 313 b 644 644 750 550 726 644 b 533 578 607 644 568 624 b 526 482 528 542 526 507 "},"❼":{"ha":1306,"x_min":0,"x_max":0,"o":"m 654 1139 b 69 554 328 1139 69 883 b 654 -28 69 233 328 -28 b 1236 554 976 -28 1236 233 b 654 1139 1236 883 976 1139 m 563 204 l 758 789 l 758 792 l 531 792 b 443 692 481 792 461 775 l 424 696 l 447 801 l 461 867 l 856 867 l 625 189 "},"❽":{"ha":1306,"x_min":0,"x_max":0,"o":"m 654 1139 b 69 554 328 1139 69 883 b 654 -28 69 233 328 -28 b 1236 554 976 -28 1236 233 b 654 1139 1236 883 976 1139 m 461 367 b 599 571 461 451 519 513 b 478 757 521 635 478 685 b 656 906 478 846 553 906 b 826 765 761 906 826 843 b 704 596 826 692 778 650 b 847 375 794 525 847 458 b 653 206 847 272 765 206 b 461 367 538 206 461 278 m 557 774 b 664 625 557 726 586 688 b 753 769 733 682 753 721 b 656 871 753 826 717 871 b 557 774 596 871 557 831 m 535 367 b 661 240 535 301 578 240 b 769 358 728 240 769 283 b 640 543 769 431 718 481 b 535 367 575 488 535 431 "},"❾":{"ha":1306,"x_min":0,"x_max":0,"o":"m 651 -28 b 1236 557 978 -28 1236 228 b 651 1139 1236 878 978 1139 b 69 557 329 1139 69 878 b 651 -28 69 228 329 -28 m 878 613 b 500 206 875 415 751 246 l 500 225 b 767 500 665 265 740 382 l 764 500 b 624 433 735 464 686 433 b 456 649 513 433 456 532 b 663 906 456 772 522 906 b 878 613 800 906 881 786 m 779 629 b 661 871 782 774 739 871 b 556 665 589 871 556 799 b 661 467 556 563 579 467 b 772 533 699 467 738 488 b 779 629 778 569 779 604 "},"❿":{"ha":1306,"x_min":0,"x_max":0,"o":"m 654 1139 b 69 554 328 1139 69 883 b 654 -28 69 233 328 -28 b 1236 554 976 -28 1236 233 b 654 1139 1236 883 976 1139 m 794 206 b 572 556 647 206 572 363 b 794 906 572 749 647 906 b 1018 556 943 906 1018 749 b 794 206 1018 363 943 206 m 474 303 b 539 236 474 249 483 236 l 539 217 l 315 217 l 315 236 b 381 303 372 236 381 249 l 381 769 b 307 799 381 824 378 833 l 299 817 l 393 861 l 461 894 l 474 883 l 474 303 m 794 240 b 913 556 881 240 913 371 b 794 871 913 740 881 871 b 678 556 710 871 678 740 b 794 240 678 371 710 240 "},"⓫":{"ha":1306,"x_min":0,"x_max":0,"o":"m 654 1139 b 69 554 328 1139 69 883 b 654 -28 69 233 328 -28 b 1236 554 976 -28 1236 233 b 654 1139 1236 883 976 1139 m 542 315 b 606 250 542 261 550 250 l 606 229 l 383 229 l 383 250 b 447 315 439 250 447 261 l 447 783 b 375 813 447 838 444 846 l 365 831 l 460 875 l 528 908 l 542 896 l 542 315 m 867 315 b 932 250 867 261 875 250 l 932 229 l 708 229 l 708 250 b 774 315 764 250 774 261 l 774 783 b 700 813 774 838 771 846 l 692 831 l 854 908 l 867 896 l 867 315 "},"⓬":{"ha":1306,"x_min":0,"x_max":0,"o":"m 654 1139 b 69 554 328 1139 69 883 b 654 -28 69 233 328 -28 b 1236 554 976 -28 1236 233 b 654 1139 1236 883 976 1139 m 915 300 b 1013 386 968 300 986 318 l 1031 379 l 997 289 l 974 226 l 581 226 l 581 246 b 894 701 760 417 894 558 b 778 835 894 779 860 835 b 625 657 683 835 631 764 l 604 657 b 826 910 604 810 689 910 b 993 744 938 910 993 838 b 681 303 993 588 828 426 l 681 300 l 915 300 m 468 313 b 532 246 468 258 476 246 l 532 226 l 310 226 l 310 246 b 375 313 365 246 375 258 l 375 779 b 301 808 375 833 372 842 l 293 826 l 456 904 l 468 893 l 468 313 "},"⓭":{"ha":1306,"x_min":0,"x_max":0,"o":"m 654 1139 b 69 554 328 1139 69 883 b 654 -28 69 233 328 -28 b 1236 554 976 -28 1236 233 b 654 1139 1236 883 976 1139 m 603 271 b 647 304 603 292 622 304 b 703 274 676 304 690 289 b 775 240 718 254 735 240 b 896 389 836 240 896 290 b 721 567 896 515 819 558 l 721 586 b 853 743 803 613 853 664 b 754 844 853 799 821 844 b 632 749 685 844 647 803 l 610 749 b 793 906 625 847 693 906 b 953 756 882 906 953 851 b 819 596 953 682 903 629 l 819 593 b 996 410 921 582 996 519 b 758 206 996 283 883 206 b 603 271 685 206 603 228 m 479 304 b 544 238 479 250 488 238 l 544 218 l 321 218 l 321 238 b 386 304 376 238 386 250 l 386 772 b 313 800 386 825 383 835 l 304 818 l 397 864 l 467 896 l 479 885 l 479 304 "},"⓮":{"ha":1306,"x_min":0,"x_max":0,"o":"m 654 1139 b 69 554 328 1139 69 883 b 654 -28 69 233 328 -28 b 1236 554 976 -28 1236 233 b 654 1139 1236 883 976 1139 m 475 313 b 540 246 475 258 483 246 l 540 226 l 317 226 l 317 246 b 382 313 372 246 382 258 l 382 779 b 308 808 382 833 379 842 l 300 826 l 463 904 l 475 893 l 475 313 m 564 478 l 846 893 l 918 893 l 918 478 l 1000 478 l 1000 408 l 918 408 l 918 313 b 983 246 918 258 928 246 l 983 226 l 761 226 l 761 246 b 825 313 817 246 825 258 l 825 408 l 564 408 m 825 478 l 825 808 l 610 479 l 610 478 "},"⓯":{"ha":1306,"x_min":0,"x_max":0,"o":"m 654 1139 b 69 554 328 1139 69 883 b 654 -28 69 233 328 -28 b 1236 554 976 -28 1236 233 b 654 1139 1236 883 976 1139 m 597 276 b 638 310 597 299 614 310 b 693 275 667 310 679 292 b 756 249 704 260 721 249 b 876 461 813 249 876 318 b 760 644 876 593 831 644 b 667 608 721 644 692 631 l 636 628 l 703 897 l 971 897 l 951 824 l 733 824 l 690 656 l 694 653 b 803 688 725 676 763 688 b 982 481 903 688 982 604 b 739 214 982 301 865 214 b 597 276 663 214 597 238 m 490 304 b 556 238 490 250 500 238 l 556 218 l 332 218 l 332 238 b 397 304 389 238 397 250 l 397 772 b 324 800 397 825 394 835 l 315 818 l 408 864 l 478 896 l 490 885 l 490 304 "},"⓰":{"ha":1306,"x_min":0,"x_max":0,"o":"m 654 1139 b 69 554 328 1139 69 883 b 654 -28 69 233 328 -28 b 1236 554 976 -28 1236 233 b 654 1139 1236 883 976 1139 m 582 499 b 960 906 585 697 710 865 l 960 886 b 694 611 794 846 721 729 l 697 611 b 838 679 725 649 775 679 b 1006 464 949 679 1006 579 b 799 206 1006 339 939 206 b 582 499 661 206 581 326 m 474 304 b 539 238 474 250 482 238 l 539 218 l 315 218 l 315 238 b 381 304 371 238 381 250 l 381 772 b 307 800 381 825 378 835 l 299 818 l 392 864 l 461 896 l 474 885 l 474 304 m 682 482 b 799 240 679 338 722 240 b 906 446 872 240 906 313 b 800 644 906 550 881 644 b 688 578 763 644 722 624 b 682 482 682 542 682 507 "},"⓱":{"ha":1306,"x_min":0,"x_max":0,"o":"m 654 1139 b 69 554 328 1139 69 883 b 654 -28 69 233 328 -28 b 1236 554 976 -28 1236 233 b 654 1139 1236 883 976 1139 m 481 304 b 546 238 481 250 489 238 l 546 218 l 322 218 l 322 238 b 388 304 378 238 388 250 l 388 772 b 314 800 388 825 385 835 l 306 818 l 399 864 l 468 896 l 481 885 l 481 304 m 700 231 l 896 815 l 896 818 l 668 818 b 581 718 618 818 599 801 l 561 722 l 585 826 l 599 892 l 993 892 l 763 215 "},"⓲":{"ha":1306,"x_min":0,"x_max":0,"o":"m 654 1139 b 69 554 328 1139 69 883 b 654 -28 69 233 328 -28 b 1236 554 976 -28 1236 233 b 654 1139 1236 883 976 1139 m 583 364 b 742 569 583 446 646 508 b 608 760 651 635 608 689 b 799 906 608 846 688 906 b 985 768 911 906 985 843 b 851 596 985 697 938 651 b 1014 372 956 521 1014 454 b 799 206 1014 272 925 206 b 583 364 665 206 583 278 m 465 304 b 531 238 465 250 475 238 l 531 218 l 308 218 l 308 238 b 372 304 364 238 372 250 l 372 772 b 299 800 372 825 369 835 l 290 818 l 385 864 l 453 896 l 465 885 l 465 304 m 692 776 b 810 624 692 731 718 689 b 906 772 890 683 906 725 b 799 871 906 826 865 871 b 692 776 732 871 692 831 m 664 364 b 810 240 664 301 710 240 b 932 356 889 240 932 283 b 783 543 932 425 879 478 b 664 364 704 486 664 426 "},"⓳":{"ha":1306,"x_min":0,"x_max":0,"o":"m 654 1139 b 69 554 328 1139 69 883 b 654 -28 69 233 328 -28 b 1236 554 976 -28 1236 233 b 654 1139 1236 883 976 1139 m 1028 613 b 650 206 1025 415 900 246 l 650 225 b 917 500 815 265 889 382 l 914 500 b 772 433 885 464 835 433 b 606 649 663 433 606 532 b 813 906 606 772 671 906 b 1028 613 950 906 1031 786 m 489 304 b 554 238 489 250 499 238 l 554 218 l 331 218 l 331 238 b 396 304 388 238 396 250 l 396 772 b 322 800 396 825 393 835 l 314 818 l 408 864 l 476 896 l 489 885 l 489 304 m 928 629 b 811 871 928 774 888 871 b 704 665 739 871 704 799 b 810 467 704 563 729 467 b 922 533 847 467 888 488 b 928 629 928 569 928 604 "},"⓴":{"ha":1306,"x_min":0,"x_max":0,"o":"m 654 1139 b 69 554 328 1139 69 883 b 654 -28 69 233 328 -28 b 1236 554 976 -28 1236 233 b 654 1139 1236 883 976 1139 m 925 206 b 701 556 778 206 701 363 b 925 906 701 749 778 906 b 1149 556 1072 906 1149 749 b 925 206 1149 363 1072 206 m 554 288 b 650 374 607 288 625 306 l 669 367 l 635 276 l 613 214 l 219 214 l 219 233 b 533 689 399 404 533 546 b 417 824 533 767 499 824 b 264 644 322 824 269 751 l 243 644 b 464 897 243 797 326 897 b 632 732 576 897 632 825 b 319 290 632 576 467 414 l 319 288 l 554 288 m 925 240 b 1043 556 1011 240 1043 371 b 925 871 1043 740 1011 871 b 807 556 840 871 807 740 b 925 240 807 371 840 240 "},"⓪":{"ha":1306,"x_min":0,"x_max":0,"o":"m 654 1139 b 1236 554 976 1139 1236 883 b 654 -28 1236 233 976 -28 b 69 554 328 -28 69 233 b 654 1139 69 883 328 1139 m 654 1097 b 111 554 349 1097 111 854 b 654 14 111 253 349 14 b 1194 554 951 14 1194 253 b 654 1097 1194 854 951 1097 m 651 206 b 428 556 504 206 428 363 b 651 906 428 749 504 906 b 875 556 799 906 875 749 b 651 206 875 363 799 206 m 651 240 b 768 556 736 240 768 371 b 651 871 768 740 736 871 b 533 556 565 871 533 740 b 651 240 533 371 565 240 "},"①":{"ha":1306,"x_min":0,"x_max":0,"o":"m 654 1139 b 1236 554 976 1139 1236 883 b 654 -28 1236 233 976 -28 b 69 554 328 -28 69 233 b 654 1139 69 883 328 1139 m 654 1097 b 111 554 349 1097 111 854 b 654 14 111 253 349 14 b 1194 554 951 14 1194 253 b 654 1097 1194 854 951 1097 m 700 304 b 765 238 700 250 708 238 l 765 218 l 542 218 l 542 238 b 607 304 597 238 607 250 l 607 772 b 533 800 607 825 604 835 l 525 818 l 618 864 l 688 896 l 700 885 l 700 304 "},"②":{"ha":1306,"x_min":0,"x_max":0,"o":"m 654 1139 b 1236 554 976 1139 1236 883 b 654 -28 1236 233 976 -28 b 69 554 328 -28 69 233 b 654 1139 69 883 328 1139 m 654 1097 b 111 554 349 1097 111 854 b 654 14 111 253 349 14 b 1194 554 951 14 1194 253 b 654 1097 1194 854 951 1097 m 768 310 b 864 396 821 310 839 328 l 883 389 l 849 299 l 826 236 l 433 236 l 433 256 b 747 711 613 426 747 568 b 631 844 747 788 713 844 b 478 665 536 844 483 774 l 457 665 b 678 919 457 819 540 919 b 846 754 790 919 846 846 b 533 313 846 597 681 436 l 533 310 l 768 310 "},"③":{"ha":1306,"x_min":0,"x_max":0,"o":"m 654 1139 b 1236 554 976 1139 1236 883 b 654 -28 1236 233 976 -28 b 69 554 328 -28 69 233 b 654 1139 69 883 328 1139 m 654 1097 b 111 554 349 1097 111 854 b 654 14 111 253 349 14 b 1194 554 951 14 1194 253 b 654 1097 1194 854 951 1097 m 461 271 b 506 304 461 292 481 304 b 561 274 535 304 549 289 b 633 240 576 254 593 240 b 754 389 694 240 754 290 b 579 567 754 515 678 558 l 579 586 b 711 743 661 613 711 664 b 613 844 711 799 679 844 b 490 749 543 844 506 803 l 468 749 b 651 906 483 847 551 906 b 811 756 740 906 811 851 b 678 596 811 682 761 629 l 678 593 b 854 410 779 582 854 519 b 617 206 854 283 742 206 b 461 271 543 206 461 228 "},"④":{"ha":1306,"x_min":0,"x_max":0,"o":"m 654 1139 b 1236 554 976 1139 1236 883 b 654 -28 1236 233 976 -28 b 69 554 328 -28 69 233 b 654 1139 69 883 328 1139 m 654 1097 b 111 554 349 1097 111 854 b 654 14 111 253 349 14 b 1194 554 951 14 1194 253 b 654 1097 1194 854 951 1097 m 414 474 l 696 889 l 768 889 l 768 474 l 850 474 l 850 404 l 768 404 l 768 308 b 833 242 768 254 778 242 l 833 222 l 611 222 l 611 242 b 675 308 667 242 675 254 l 675 404 l 414 404 m 675 474 l 675 804 l 460 476 l 460 474 "},"⑤":{"ha":1306,"x_min":0,"x_max":0,"o":"m 654 1139 b 1236 554 976 1139 1236 883 b 654 -28 1236 233 976 -28 b 69 554 328 -28 69 233 b 654 1139 69 883 328 1139 m 654 1097 b 111 554 349 1097 111 854 b 654 14 111 253 349 14 b 1194 554 951 14 1194 253 b 654 1097 1194 854 951 1097 m 461 276 b 501 310 461 299 476 310 b 556 275 529 310 542 292 b 618 249 568 260 583 249 b 740 461 676 249 740 318 b 622 644 740 593 693 644 b 529 608 583 644 554 631 l 499 628 l 565 897 l 833 897 l 814 824 l 596 824 l 553 656 l 557 653 b 665 688 588 676 625 688 b 846 481 765 688 846 604 b 603 214 846 301 729 214 b 461 276 525 214 461 238 "},"⑥":{"ha":1306,"x_min":0,"x_max":0,"o":"m 654 1139 b 1236 554 976 1139 1236 883 b 654 -28 1236 233 976 -28 b 69 554 328 -28 69 233 b 654 1139 69 883 328 1139 m 654 14 b 1194 554 951 14 1194 253 b 654 1097 1194 854 951 1097 b 111 554 349 1097 111 854 b 654 14 111 253 349 14 m 689 679 b 858 464 800 679 858 579 b 649 206 858 339 790 206 b 428 500 507 206 425 325 b 813 906 431 696 558 865 l 813 886 b 549 611 642 847 574 725 b 689 679 578 647 626 679 m 649 240 b 753 446 719 240 753 311 b 650 644 753 550 729 644 b 543 583 613 644 576 625 b 533 482 536 547 533 513 b 649 240 531 336 572 240 "},"⑦":{"ha":1306,"x_min":0,"x_max":0,"o":"m 654 1139 b 1236 554 976 1139 1236 883 b 654 -28 1236 233 976 -28 b 69 554 328 -28 69 233 b 654 1139 69 883 328 1139 m 654 1097 b 111 554 349 1097 111 854 b 654 14 111 253 349 14 b 1194 554 951 14 1194 253 b 654 1097 1194 854 951 1097 m 564 211 l 760 796 l 760 799 l 532 799 b 444 699 482 799 463 782 l 425 703 l 449 807 l 463 872 l 857 872 l 626 196 "},"⑧":{"ha":1306,"x_min":0,"x_max":0,"o":"m 654 1139 b 1236 554 976 1139 1236 883 b 654 -28 1236 233 976 -28 b 69 554 328 -28 69 233 b 654 1139 69 883 328 1139 m 654 14 b 1194 554 951 14 1194 253 b 654 1097 1194 854 951 1097 b 111 554 349 1097 111 854 b 654 14 111 253 349 14 m 704 599 b 849 375 790 529 849 461 b 651 206 849 272 765 206 b 453 367 529 206 453 278 b 597 568 453 453 517 510 b 471 757 517 635 471 683 b 656 906 471 846 551 906 b 831 765 765 906 831 843 b 704 599 831 690 775 649 m 658 871 b 560 774 600 871 560 831 b 669 625 560 725 592 688 b 756 769 733 679 756 719 b 658 871 756 826 718 871 m 654 240 b 761 357 719 240 761 285 b 631 542 761 431 708 479 b 528 367 565 486 528 431 b 654 240 528 301 569 240 "},"⑨":{"ha":1306,"x_min":0,"x_max":0,"o":"m 651 1139 b 1236 557 978 1139 1236 878 b 651 -28 1236 228 978 -28 b 69 557 329 -28 69 228 b 651 1139 69 878 329 1139 m 651 14 b 1194 557 957 14 1194 257 b 651 1097 1194 858 957 1097 b 111 557 354 1097 111 858 b 651 14 111 257 354 14 m 657 906 b 878 611 799 906 881 786 b 493 206 875 415 747 246 l 493 225 b 757 500 664 264 732 386 b 617 433 728 464 679 433 b 447 647 506 433 447 532 b 657 906 447 772 515 906 m 772 629 b 657 871 775 775 733 871 b 553 665 586 871 553 800 b 656 467 553 563 576 467 b 763 528 693 467 729 486 b 772 629 769 564 772 599 "},"⑩":{"ha":1306,"x_min":0,"x_max":0,"o":"m 654 1139 b 1236 554 976 1139 1236 883 b 654 -28 1236 233 976 -28 b 69 554 328 -28 69 233 b 654 1139 69 883 328 1139 m 654 1097 b 111 554 349 1097 111 854 b 654 14 111 253 349 14 b 1194 554 951 14 1194 253 b 654 1097 1194 854 951 1097 m 815 206 b 593 556 668 206 593 363 b 815 906 593 749 668 906 b 1039 556 963 906 1039 749 b 815 206 1039 363 963 206 m 494 304 b 560 238 494 250 504 238 l 560 218 l 336 218 l 336 238 b 401 304 393 238 401 250 l 401 772 b 328 800 401 825 399 835 l 319 818 l 413 864 l 482 896 l 494 885 l 494 304 m 815 240 b 933 556 901 240 933 371 b 815 871 933 740 901 871 b 699 556 731 871 699 740 b 815 240 699 371 731 240 "},"⑪":{"ha":1306,"x_min":0,"x_max":0,"o":"m 654 1139 b 1236 554 976 1139 1236 883 b 654 -28 1236 233 976 -28 b 69 554 328 -28 69 233 b 654 1139 69 883 328 1139 m 654 1097 b 111 554 349 1097 111 854 b 654 14 111 253 349 14 b 1194 554 951 14 1194 253 b 654 1097 1194 854 951 1097 m 542 304 b 606 238 542 250 550 238 l 606 218 l 383 218 l 383 238 b 447 304 439 238 447 250 l 447 772 b 375 800 447 825 444 835 l 365 818 l 460 864 l 528 896 l 542 885 l 542 304 m 868 304 b 932 238 868 250 876 238 l 932 218 l 710 218 l 710 238 b 774 304 765 238 774 250 l 774 772 b 701 800 774 825 771 835 l 692 818 l 786 864 l 854 896 l 868 885 l 868 304 "},"⑫":{"ha":1306,"x_min":0,"x_max":0,"o":"m 654 1139 b 1236 554 976 1139 1236 883 b 654 -28 1236 233 976 -28 b 69 554 328 -28 69 233 b 654 1139 69 883 328 1139 m 654 1097 b 111 554 349 1097 111 854 b 654 14 111 253 349 14 b 1194 554 951 14 1194 253 b 654 1097 1194 854 951 1097 m 921 292 b 1018 378 975 292 993 310 l 1036 371 l 1003 281 l 979 218 l 586 218 l 586 238 b 901 693 765 408 901 550 b 783 828 901 771 867 828 b 632 649 689 828 638 756 l 610 649 b 832 901 610 801 694 901 b 1000 736 943 901 1000 829 b 688 294 1000 581 833 418 l 688 292 l 921 292 m 478 304 b 542 238 478 250 486 238 l 542 218 l 319 218 l 319 238 b 385 304 375 238 385 250 l 385 772 b 311 800 385 825 382 835 l 303 818 l 396 864 l 465 896 l 478 885 l 478 304 "},"⑬":{"ha":1306,"x_min":0,"x_max":0,"o":"m 654 1139 b 1236 554 976 1139 1236 883 b 654 -28 1236 233 976 -28 b 69 554 328 -28 69 233 b 654 1139 69 883 328 1139 m 654 1097 b 111 554 349 1097 111 854 b 654 14 111 253 349 14 b 1194 554 951 14 1194 253 b 654 1097 1194 854 951 1097 m 606 271 b 650 304 606 292 625 304 b 706 274 679 304 693 289 b 778 240 721 254 738 240 b 899 389 839 240 899 290 b 724 567 899 515 822 558 l 724 586 b 856 743 806 613 856 664 b 757 844 856 799 824 844 b 635 749 688 844 650 803 l 613 749 b 796 906 628 847 696 906 b 956 756 885 906 956 851 b 822 596 956 682 906 629 l 822 593 b 999 410 924 582 999 519 b 761 206 999 283 886 206 b 606 271 688 206 606 228 m 497 304 b 563 238 497 250 507 238 l 563 218 l 339 218 l 339 238 b 404 304 396 238 404 250 l 404 772 b 331 800 404 825 401 835 l 322 818 l 417 864 l 485 896 l 497 885 l 497 304 "},"⑭":{"ha":1306,"x_min":0,"x_max":0,"o":"m 654 1139 b 1236 554 976 1139 1236 883 b 654 -28 1236 233 976 -28 b 69 554 328 -28 69 233 b 654 1139 69 883 328 1139 m 654 1097 b 111 554 349 1097 111 854 b 654 14 111 253 349 14 b 1194 554 951 14 1194 253 b 654 1097 1194 854 951 1097 m 478 304 b 542 238 478 250 486 238 l 542 218 l 319 218 l 319 238 b 385 304 375 238 385 250 l 385 772 b 311 800 385 825 382 835 l 303 818 l 396 864 l 465 896 l 478 885 l 478 304 m 564 469 l 844 885 l 918 885 l 918 469 l 999 469 l 999 400 l 918 400 l 918 304 b 982 238 918 250 926 238 l 982 218 l 760 218 l 760 238 b 824 304 815 238 824 250 l 824 400 l 564 400 m 824 469 l 824 800 l 608 472 l 608 469 "},"⑮":{"ha":1306,"x_min":0,"x_max":0,"o":"m 654 1139 b 1236 554 976 1139 1236 883 b 654 -28 1236 233 976 -28 b 69 554 328 -28 69 233 b 654 1139 69 883 328 1139 m 654 1097 b 111 554 349 1097 111 854 b 654 14 111 253 349 14 b 1194 554 951 14 1194 253 b 654 1097 1194 854 951 1097 m 617 276 b 657 310 617 299 632 310 b 711 275 685 310 697 292 b 774 249 724 260 739 249 b 896 461 832 249 896 318 b 778 644 896 593 849 644 b 685 608 739 644 710 631 l 654 628 l 721 897 l 989 897 l 969 824 l 751 824 l 708 656 l 713 653 b 821 688 743 676 781 688 b 1001 481 921 688 1001 604 b 758 214 1001 301 885 214 b 617 276 681 214 617 238 m 499 304 b 563 238 499 250 507 238 l 563 218 l 340 218 l 340 238 b 406 304 396 238 406 250 l 406 772 b 332 800 406 825 403 835 l 324 818 l 417 864 l 486 896 l 499 885 l 499 304 "},"⑯":{"ha":1306,"x_min":0,"x_max":0,"o":"m 654 1139 b 1236 554 976 1139 1236 883 b 654 -28 1236 233 976 -28 b 69 554 328 -28 69 233 b 654 1139 69 883 328 1139 m 654 14 b 1194 554 951 14 1194 253 b 654 1097 1194 854 951 1097 b 111 554 349 1097 111 854 b 654 14 111 253 349 14 m 851 679 b 1021 464 963 679 1021 579 b 811 206 1021 339 953 206 b 590 500 669 206 588 325 b 975 906 593 696 721 865 l 975 886 b 711 611 804 847 736 725 b 851 679 740 647 789 679 m 481 304 b 544 238 481 250 489 238 l 544 218 l 322 218 l 322 238 b 386 304 378 238 386 250 l 386 772 b 314 800 386 825 383 835 l 304 818 l 399 864 l 467 896 l 481 885 l 481 304 m 811 240 b 915 446 882 240 915 311 b 813 644 915 550 892 644 b 706 583 775 644 739 625 b 696 482 699 547 696 513 b 811 240 693 336 735 240 "},"⑰":{"ha":1306,"x_min":0,"x_max":0,"o":"m 654 1139 b 1236 554 976 1139 1236 883 b 654 -28 1236 233 976 -28 b 69 554 328 -28 69 233 b 654 1139 69 883 328 1139 m 654 1097 b 111 554 349 1097 111 854 b 654 14 111 253 349 14 b 1194 554 951 14 1194 253 b 654 1097 1194 854 951 1097 m 481 304 b 546 238 481 250 490 238 l 546 218 l 322 218 l 322 238 b 388 304 379 238 388 250 l 388 772 b 314 800 388 825 385 835 l 306 818 l 400 864 l 468 896 l 481 885 l 481 304 m 708 231 l 904 815 l 904 818 l 678 818 b 589 718 626 818 608 801 l 569 722 l 593 826 l 608 892 l 1001 892 l 772 215 "},"⑱":{"ha":1306,"x_min":0,"x_max":0,"o":"m 654 1139 b 1236 554 976 1139 1236 883 b 654 -28 1236 233 976 -28 b 69 554 328 -28 69 233 b 654 1139 69 883 328 1139 m 654 14 b 1194 554 951 14 1194 253 b 654 1097 1194 854 951 1097 b 111 554 349 1097 111 854 b 654 14 111 253 349 14 m 850 597 b 996 375 938 529 996 461 b 797 206 996 272 911 206 b 600 367 676 206 600 278 b 743 568 600 453 664 508 b 618 757 664 635 618 683 b 801 906 618 846 699 906 b 978 765 913 906 978 843 b 850 597 978 690 921 649 m 485 304 b 550 238 485 250 493 238 l 550 218 l 326 218 l 326 238 b 392 304 382 238 392 250 l 392 772 b 318 800 392 825 389 835 l 310 818 l 403 864 l 472 896 l 485 885 l 485 304 m 806 871 b 707 774 746 871 707 831 b 817 625 707 725 738 688 b 901 769 881 679 901 719 b 806 871 901 826 865 871 m 800 240 b 907 357 865 240 907 285 b 776 542 907 431 854 479 b 675 367 711 486 675 431 b 800 240 675 301 717 240 "},"⑲":{"ha":1306,"x_min":0,"x_max":0,"o":"m 654 1139 b 1236 554 976 1139 1236 883 b 654 -28 1236 233 976 -28 b 69 554 328 -28 69 233 b 654 1139 69 883 328 1139 m 654 14 b 1194 554 951 14 1194 253 b 654 1097 1194 854 951 1097 b 111 554 349 1097 111 854 b 654 14 111 253 349 14 m 807 906 b 1028 611 947 906 1029 786 b 643 206 1025 415 897 246 l 643 225 b 907 500 814 264 882 386 b 765 433 876 464 828 433 b 596 647 654 433 596 532 b 807 906 596 772 664 906 m 490 304 b 554 238 490 250 499 238 l 554 218 l 332 218 l 332 238 b 396 304 388 238 396 250 l 396 772 b 324 800 396 825 393 835 l 314 818 l 408 864 l 476 896 l 490 885 l 490 304 m 921 629 b 807 871 924 775 882 871 b 701 665 735 871 701 800 b 806 467 701 563 725 467 b 913 529 842 467 879 486 b 921 629 918 565 921 599 "},"⑳":{"ha":1306,"x_min":0,"x_max":0,"o":"m 654 1139 b 1236 554 976 1139 1236 883 b 654 -28 1236 233 976 -28 b 69 554 328 -28 69 233 b 654 1139 69 883 328 1139 m 654 14 b 1194 554 951 14 1194 253 b 654 1097 1194 854 951 1097 b 111 554 349 1097 111 854 b 229 214 111 425 156 307 l 229 233 b 543 689 408 404 543 546 b 426 824 543 767 510 824 b 275 644 332 824 279 751 l 253 644 b 475 897 253 797 338 897 b 643 732 586 897 643 825 b 331 290 643 576 476 414 l 331 288 l 564 288 b 661 374 618 288 635 306 l 679 367 l 646 276 l 622 214 l 229 214 b 654 14 328 92 481 14 m 922 906 b 1146 556 1069 906 1146 749 b 922 206 1146 363 1069 206 b 699 556 775 206 699 363 b 922 906 699 749 775 906 m 922 240 b 1040 556 1008 240 1040 371 b 922 871 1040 740 1008 871 b 804 556 838 871 804 740 b 922 240 804 371 838 240 "},"⁄":{"ha":611,"x_min":0,"x_max":0,"o":"m 681 1111 l -10 0 l -69 0 l 621 1111 "},"½":{"ha":1210,"x_min":0,"x_max":0,"o":"m 272 542 b 336 475 272 488 281 475 l 336 456 l 114 456 l 114 475 b 178 542 169 475 178 488 l 178 1010 b 106 1038 178 1063 175 1072 l 96 1056 l 190 1101 l 258 1133 l 272 1122 l 272 542 m 922 1111 l 232 0 l 172 0 l 863 1111 m 1001 74 b 1099 160 1054 74 1072 92 l 1117 153 l 1083 63 l 1060 0 l 667 0 l 667 19 b 981 475 846 190 981 332 b 864 610 981 553 946 610 b 711 431 769 610 717 538 l 690 431 b 913 683 690 583 775 683 b 1079 518 1024 683 1079 611 b 767 76 1079 363 914 200 l 767 74 l 1001 74 "},"¼":{"ha":1076,"x_min":0,"x_max":0,"o":"m 272 542 b 336 475 272 488 281 475 l 336 456 l 114 456 l 114 475 b 178 542 169 475 178 488 l 178 1010 b 106 1038 178 1063 175 1072 l 96 1056 l 190 1101 l 258 1133 l 272 1122 l 272 542 m 908 1111 l 218 0 l 158 0 l 849 1111 m 546 251 l 828 667 l 900 667 l 900 251 l 981 251 l 981 182 l 900 182 l 900 86 b 965 19 900 32 908 19 l 965 0 l 742 0 l 742 19 b 807 86 797 19 807 32 l 807 182 l 546 182 m 807 251 l 807 582 l 592 254 l 592 251 "},"¾":{"ha":1188,"x_min":0,"x_max":0,"o":"m 101 493 b 146 526 101 514 121 526 b 201 496 175 526 189 511 b 274 463 217 476 235 463 b 396 611 335 463 396 513 b 219 789 396 738 318 781 l 219 808 b 353 965 301 835 353 886 b 253 1067 353 1021 319 1067 b 131 971 183 1067 146 1025 l 108 971 b 292 1128 124 1069 192 1128 b 451 978 382 1128 451 1074 b 319 818 451 904 401 851 l 319 815 b 494 632 421 804 494 742 b 258 428 494 506 382 428 b 101 493 185 428 101 450 m 1028 1111 l 338 0 l 278 0 l 968 1111 m 657 251 l 939 667 l 1011 667 l 1011 251 l 1092 251 l 1092 182 l 1011 182 l 1011 86 b 1076 19 1011 32 1021 19 l 1076 0 l 853 0 l 853 19 b 918 86 910 19 918 32 l 918 182 l 657 182 m 918 251 l 918 582 l 703 254 l 703 251 "},"⅛":{"ha":1185,"x_min":0,"x_max":0,"o":"m 114 475 b 178 542 169 475 178 488 l 178 1010 b 106 1038 178 1063 175 1072 l 96 1056 l 190 1101 l 258 1133 l 272 1122 l 272 542 b 336 475 272 488 281 475 l 336 456 l 114 456 l 114 475 m 915 1111 l 225 0 l 165 0 l 856 1111 m 946 378 b 1090 156 1033 310 1090 242 b 893 -14 1090 53 1006 -14 b 694 147 771 -14 694 58 b 839 349 694 233 758 290 b 713 538 758 415 713 464 b 897 686 713 626 793 686 b 1072 546 1007 686 1072 624 b 946 378 1072 471 1015 429 m 900 651 b 801 554 840 651 801 611 b 911 406 801 506 832 468 b 997 550 975 460 997 500 b 900 651 997 607 960 651 m 896 21 b 1003 138 961 21 1003 65 b 872 322 1003 211 950 260 b 769 147 807 267 769 211 b 896 21 769 82 811 21 "},"⅜":{"ha":1288,"x_min":0,"x_max":0,"o":"m 494 632 b 258 428 494 506 382 428 b 101 493 185 428 101 450 b 146 526 101 514 121 526 b 201 496 175 526 189 511 b 274 463 217 476 235 463 b 396 611 335 463 396 513 b 219 789 396 738 318 781 l 219 808 b 353 965 301 835 353 886 b 253 1067 353 1021 319 1067 b 131 971 183 1067 146 1025 l 108 971 b 292 1128 124 1069 192 1128 b 451 978 382 1128 451 1074 b 319 818 451 904 401 851 l 319 815 b 494 632 421 804 494 742 m 1028 1111 l 338 0 l 278 0 l 968 1111 m 1058 378 b 1204 156 1144 310 1204 242 b 1006 -14 1204 53 1119 -14 b 808 147 885 -14 808 58 b 951 349 808 233 872 289 b 826 538 872 415 826 464 b 1010 686 826 626 907 686 b 1186 546 1119 686 1186 624 b 1058 378 1186 471 1129 429 m 1014 651 b 915 554 954 651 915 611 b 1025 406 915 506 946 468 b 1110 550 1089 460 1110 500 b 1014 651 1110 607 1074 651 m 1008 21 b 1115 138 1074 21 1115 65 b 985 322 1115 211 1063 260 b 883 147 919 267 883 211 b 1008 21 883 82 925 21 "},"⅝":{"ha":1244,"x_min":0,"x_max":0,"o":"m 481 694 b 238 428 481 515 364 428 b 96 490 160 428 96 451 b 136 524 96 513 113 524 b 190 489 165 524 176 506 b 253 463 203 474 218 463 b 375 675 311 463 375 532 b 257 858 375 807 328 858 b 165 822 218 858 190 844 l 133 842 l 200 1111 l 468 1111 l 449 1038 l 232 1038 l 189 869 l 192 867 b 300 901 224 890 261 901 b 481 694 400 901 481 818 m 985 1111 l 294 0 l 235 0 l 925 1111 m 1015 379 b 1161 156 1101 310 1161 242 b 963 -14 1161 53 1076 -14 b 764 147 842 -14 764 58 b 908 350 764 233 828 290 b 783 538 829 415 783 464 b 967 686 783 626 863 686 b 1142 546 1076 686 1142 624 b 1015 379 1142 471 1086 429 m 969 651 b 871 554 911 651 871 611 b 981 406 871 506 903 468 b 1067 550 1044 460 1067 500 b 969 651 1067 607 1031 651 m 965 21 b 1072 138 1031 21 1072 65 b 942 322 1072 211 1019 260 b 840 147 876 267 840 211 b 965 21 840 82 881 21 "},"⅞":{"ha":1172,"x_min":0,"x_max":0,"o":"m 183 1038 b 94 938 133 1038 114 1021 l 75 942 l 100 1046 l 114 1111 l 507 1111 l 278 435 l 214 450 l 410 1035 l 410 1038 m 913 1111 l 222 0 l 163 0 l 853 1111 m 943 378 b 1088 156 1031 310 1088 242 b 890 -14 1088 53 1003 -14 b 692 147 768 -14 692 58 b 836 349 692 233 756 290 b 710 538 756 415 710 464 b 894 686 710 626 790 686 b 1069 546 1004 686 1069 624 b 943 378 1069 471 1013 429 m 897 651 b 799 554 838 651 799 611 b 908 406 799 506 829 468 b 994 550 972 460 994 500 b 897 651 994 607 957 651 m 893 21 b 1000 138 958 21 1000 65 b 869 322 1000 211 947 260 b 767 147 804 267 767 211 b 893 21 767 82 808 21 "},".":{"ha":303,"x_min":0,"x_max":0,"o":"m 151 -28 b 69 54 106 -28 69 8 b 151 136 69 99 106 136 b 233 54 196 136 233 99 b 151 -28 233 8 196 -28 "},",":{"ha":325,"x_min":0,"x_max":0,"o":"m 138 -28 b 69 51 94 -28 69 8 b 157 136 69 103 107 136 b 256 11 210 136 256 90 b 75 -244 256 -96 200 -185 l 75 -212 b 204 -42 140 -179 204 -121 b 190 -8 204 -19 200 -8 b 138 -28 178 -8 168 -28 "},":":{"ha":303,"x_min":0,"x_max":0,"o":"m 151 589 b 69 671 106 589 69 625 b 151 751 69 715 106 751 b 233 671 196 751 233 715 b 151 589 233 625 196 589 m 151 -28 b 69 54 106 -28 69 8 b 151 136 69 99 106 136 b 233 54 196 136 233 99 b 151 -28 233 8 196 -28 "},";":{"ha":325,"x_min":0,"x_max":0,"o":"m 164 589 b 82 671 118 589 82 625 b 164 751 82 715 118 751 b 244 671 208 751 244 715 b 164 589 244 625 208 589 m 138 -28 b 69 51 94 -28 69 8 b 157 136 69 103 107 136 b 256 11 210 136 256 90 b 75 -244 256 -96 200 -185 l 75 -212 b 204 -42 140 -179 204 -121 b 190 -8 204 -19 200 -8 b 138 -28 178 -8 168 -28 "},"…":{"ha":958,"x_min":0,"x_max":0,"o":"m 151 -28 b 69 54 106 -28 69 8 b 151 136 69 99 106 136 b 233 54 196 136 233 99 b 151 -28 233 8 196 -28 m 479 -28 b 399 54 435 -28 399 8 b 479 136 399 99 435 136 b 561 54 525 136 561 99 b 479 -28 561 8 525 -28 m 808 -28 b 726 54 763 -28 726 8 b 808 136 726 99 763 136 b 889 54 853 136 889 99 b 808 -28 889 8 853 -28 "},"!":{"ha":307,"x_min":0,"x_max":0,"o":"m 78 1021 b 154 1139 78 1107 108 1139 b 229 1021 200 1139 229 1107 b 172 275 229 853 176 640 l 139 275 b 78 1021 135 640 78 853 m 154 -28 b 72 54 108 -28 72 8 b 154 136 72 99 108 136 b 235 54 199 136 235 99 b 154 -28 235 8 199 -28 "},"¡":{"ha":307,"x_min":0,"x_max":0,"o":"m 154 761 b 235 679 199 761 235 724 b 154 597 235 633 199 597 b 72 679 108 597 72 633 b 154 761 72 724 108 761 m 78 -289 b 139 458 78 -119 135 93 l 172 458 b 229 -289 176 93 229 -119 b 154 -407 229 -374 200 -407 b 78 -289 108 -407 78 -374 "},"?":{"ha":657,"x_min":0,"x_max":0,"o":"m 439 925 b 311 1082 439 1021 394 1082 b 199 969 238 1082 199 1028 b 233 851 199 907 233 901 b 160 789 233 808 199 789 b 69 921 108 789 69 840 b 326 1139 69 1036 167 1139 b 588 928 483 1139 588 1054 b 319 275 588 688 319 672 l 286 275 b 439 925 286 719 439 724 m 303 -28 b 222 54 258 -28 222 8 b 303 136 222 99 258 136 b 385 54 349 136 385 99 b 303 -28 385 8 349 -28 "},"¿":{"ha":629,"x_min":0,"x_max":0,"o":"m 326 750 b 408 668 371 750 408 714 b 326 588 408 624 371 588 b 244 668 281 588 244 624 b 326 750 244 714 281 750 m 192 -203 b 318 -360 192 -299 235 -360 b 432 -247 392 -360 432 -306 b 396 -129 432 -185 396 -179 b 469 -67 396 -86 431 -67 b 560 -199 521 -67 560 -118 b 303 -417 560 -314 463 -417 b 42 -206 146 -417 42 -332 b 311 449 42 35 311 50 l 343 449 b 192 -203 343 3 192 -1 "},"·":{"ha":303,"x_min":0,"x_max":0,"o":"m 151 472 b 69 554 106 472 69 508 b 151 636 69 599 106 636 b 233 554 196 636 233 599 b 151 472 233 508 196 472 "},"•":{"ha":547,"x_min":0,"x_max":0,"o":"m 274 336 b 69 540 161 336 69 426 b 274 743 69 653 161 743 b 478 540 386 743 478 653 b 274 336 478 426 386 336 "},"*":{"ha":649,"x_min":0,"x_max":0,"o":"m 544 796 b 571 713 579 776 588 740 b 485 693 556 683 519 672 b 336 833 429 725 425 776 b 385 635 342 729 385 697 b 325 569 385 594 357 569 b 265 635 292 569 265 594 b 317 836 265 697 311 731 b 165 693 225 778 219 725 b 78 713 129 672 94 683 b 106 796 61 740 69 776 b 306 853 160 828 210 803 b 106 913 210 903 160 881 b 78 997 69 932 61 968 b 165 1017 94 1025 129 1036 b 317 868 219 983 224 926 b 265 1074 313 978 265 1010 b 325 1139 265 1114 292 1139 b 385 1074 357 1139 385 1114 b 336 871 385 1010 340 978 b 485 1017 426 928 429 983 b 571 997 519 1036 556 1025 b 544 913 588 968 579 932 b 344 853 489 881 439 903 b 544 796 439 803 489 828 "},"#":{"ha":1192,"x_min":0,"x_max":0,"o":"m 894 742 l 792 388 l 1007 388 l 1007 294 l 765 294 l 672 -28 l 578 -28 l 671 294 l 371 294 l 278 -28 l 183 -28 l 276 294 l 88 294 l 88 388 l 303 388 l 406 742 l 185 742 l 185 835 l 432 835 l 519 1139 l 614 1139 l 526 835 l 826 835 l 914 1139 l 1008 1139 l 921 835 l 1104 835 l 1104 742 m 800 742 l 500 742 l 397 388 l 697 388 "},"/":{"ha":460,"x_min":0,"x_max":0,"o":"m 460 1139 l 96 0 l 0 0 l 364 1139 "},"\\":{"ha":407,"x_min":0,"x_max":0,"o":"m 407 0 l 313 0 l -53 1139 l 43 1139 "},"(":{"ha":536,"x_min":0,"x_max":0,"o":"m 494 -417 b 69 361 257 -261 69 1 b 471 1139 69 726 242 1001 l 471 1106 b 229 361 303 949 229 663 b 494 -383 229 79 315 -212 "},")":{"ha":536,"x_min":0,"x_max":0,"o":"m 42 -383 b 307 361 221 -212 307 79 b 65 1106 307 663 233 949 l 65 1139 b 467 361 294 1001 467 726 b 42 -417 467 1 279 -261 l 42 -383 "},"{":{"ha":557,"x_min":0,"x_max":0,"o":"m 515 1106 b 329 919 363 1079 329 993 b 401 603 329 808 401 736 b 178 364 401 440 274 374 l 178 360 b 401 119 274 350 401 282 b 329 -197 401 -14 329 -86 b 515 -383 329 -271 363 -357 l 515 -417 b 221 -150 256 -389 221 -239 b 267 178 221 -22 267 64 b 69 344 267 289 183 344 l 69 378 b 267 546 183 378 267 433 b 221 872 267 658 221 744 b 515 1139 221 961 256 1111 l 515 1106 "},"}":{"ha":557,"x_min":0,"x_max":0,"o":"m 488 344 b 290 178 375 344 290 289 b 336 -150 290 64 336 -22 b 42 -417 336 -239 301 -389 l 42 -383 b 229 -197 194 -357 229 -271 b 157 119 229 -86 157 -14 b 381 360 157 282 285 350 l 381 364 b 157 603 285 374 157 440 b 229 919 157 736 229 808 b 42 1106 229 993 194 1079 l 42 1139 b 336 872 301 1111 336 961 b 290 546 336 744 290 658 b 488 378 290 433 375 378 l 488 344 "},"[":{"ha":408,"x_min":0,"x_max":0,"o":"m 229 1082 l 229 -360 l 367 -360 l 367 -417 l 69 -417 l 69 1139 l 367 1139 l 367 1082 "},"]":{"ha":408,"x_min":0,"x_max":0,"o":"m 339 -417 l 42 -417 l 42 -360 l 179 -360 l 179 1082 l 42 1082 l 42 1139 l 339 1139 "},"-":{"ha":618,"x_min":0,"x_max":0,"o":"m 69 426 l 549 426 l 549 324 l 69 324 "},"–":{"ha":833,"x_min":0,"x_max":0,"o":"m 0 426 l 833 426 l 833 324 l 0 324 "},"—":{"ha":1667,"x_min":0,"x_max":0,"o":"m 0 426 l 1667 426 l 1667 324 l 0 324 "},"_":{"ha":972,"x_min":0,"x_max":0,"o":"m 0 -199 l 0 -125 l 972 -125 l 972 -199 "},"‚":{"ha":325,"x_min":0,"x_max":0,"o":"m 138 -28 b 69 51 94 -28 69 8 b 158 136 69 103 107 136 b 256 21 213 136 256 92 b 75 -212 256 -67 200 -151 l 75 -179 b 204 -35 140 -147 204 -89 b 190 -8 204 -17 200 -8 b 138 -28 178 -8 168 -28 "},"„":{"ha":588,"x_min":0,"x_max":0,"o":"m 138 -28 b 69 51 94 -28 69 8 b 158 136 69 103 107 136 b 256 21 213 136 256 92 b 75 -212 256 -67 200 -151 l 75 -179 b 204 -35 140 -147 204 -89 b 190 -8 204 -17 200 -8 b 138 -28 178 -8 168 -28 m 404 -28 b 336 51 361 -28 336 8 b 425 136 336 103 374 136 b 524 21 479 136 524 92 b 342 -212 524 -67 467 -151 l 342 -179 b 471 -35 407 -147 471 -89 b 457 -8 471 -17 467 -8 b 404 -28 444 -8 435 -28 "},"“":{"ha":588,"x_min":0,"x_max":0,"o":"m 183 956 b 251 876 225 956 251 918 b 163 792 251 825 214 792 b 64 906 108 792 64 835 b 246 1139 64 994 121 1079 l 246 1106 b 117 961 181 1074 117 1017 b 131 936 117 944 121 936 b 183 956 143 936 151 956 m 450 956 b 518 876 493 956 518 918 b 429 792 518 825 481 792 b 331 906 375 792 331 835 b 513 1139 331 994 388 1079 l 513 1106 b 383 961 447 1074 383 1017 b 397 936 383 944 388 936 b 450 956 410 936 419 956 "},"”":{"ha":588,"x_min":0,"x_max":0,"o":"m 138 976 b 69 1054 94 976 69 1013 b 158 1139 69 1106 107 1139 b 256 1025 213 1139 256 1096 b 75 792 256 938 200 851 l 75 825 b 204 969 140 857 204 914 b 190 994 204 986 200 994 b 138 976 178 994 168 976 m 404 976 b 336 1054 361 976 336 1013 b 425 1139 336 1106 374 1139 b 524 1025 479 1139 524 1096 b 342 792 524 938 467 851 l 342 825 b 471 969 407 857 471 914 b 457 994 471 986 467 994 b 404 976 444 994 435 976 "},"‘":{"ha":325,"x_min":0,"x_max":0,"o":"m 189 956 b 256 876 231 956 256 918 b 168 792 256 825 219 792 b 69 906 114 792 69 835 b 251 1139 69 994 125 1079 l 251 1106 b 121 961 186 1074 121 1017 b 136 936 121 944 126 936 b 189 956 149 936 157 956 "},"’":{"ha":325,"x_min":0,"x_max":0,"o":"m 138 976 b 69 1054 94 976 69 1013 b 158 1139 69 1106 107 1139 b 256 1025 213 1139 256 1096 b 75 792 256 938 200 851 l 75 825 b 204 969 140 857 204 914 b 190 994 204 986 200 994 b 138 976 178 994 168 976 "},"«":{"ha":642,"x_min":0,"x_max":0,"o":"m 349 68 l 317 68 l 81 407 l 317 742 l 349 742 l 203 407 m 582 68 l 550 68 l 313 407 l 550 742 l 582 742 l 436 407 "},"»":{"ha":642,"x_min":0,"x_max":0,"o":"m 60 742 l 92 742 l 328 407 l 92 68 l 60 68 l 206 407 m 292 742 l 325 742 l 561 407 l 325 68 l 292 68 l 439 407 "},"‹":{"ha":408,"x_min":0,"x_max":0,"o":"m 349 68 l 317 68 l 81 407 l 317 742 l 349 742 l 203 407 "},"›":{"ha":408,"x_min":0,"x_max":0,"o":"m 60 742 l 92 742 l 328 407 l 92 68 l 60 68 l 206 407 "},"\"":{"ha":474,"x_min":0,"x_max":0,"o":"m 69 1061 b 129 1139 69 1113 92 1139 b 189 1061 168 1139 189 1113 b 147 757 189 978 165 894 l 114 757 b 69 1061 97 894 69 978 m 285 1061 b 344 1139 285 1113 307 1139 b 404 1061 383 1139 404 1113 b 363 757 404 978 381 894 l 329 757 b 285 1061 313 894 285 978 "},"'":{"ha":276,"x_min":0,"x_max":0,"o":"m 78 1061 b 138 1139 78 1113 100 1139 b 199 1061 176 1139 199 1113 b 156 757 199 978 174 894 l 124 757 b 78 1061 106 894 78 978 "},"¢":{"ha":663,"x_min":0,"x_max":0,"o":"m 588 289 b 332 -28 558 78 472 -28 b 272 -21 311 -28 292 -25 l 203 -306 l 154 -306 l 228 -6 b 60 353 119 44 60 175 b 351 761 60 604 181 761 b 414 753 374 761 394 758 l 501 1111 l 550 1111 l 458 736 b 565 579 524 703 565 642 b 494 504 565 532 542 504 b 417 565 453 504 425 524 l 300 92 b 388 60 325 71 354 60 b 556 289 460 60 513 117 m 208 388 b 263 136 208 279 228 193 l 394 674 b 343 703 383 692 368 703 b 208 388 251 703 208 576 "},"¤":{"ha":908,"x_min":0,"x_max":0,"o":"m 769 506 b 707 318 769 435 746 371 l 839 188 l 772 121 l 642 253 b 454 190 589 214 525 190 b 267 253 383 190 318 214 l 136 121 l 69 188 l 200 318 b 139 506 161 371 139 436 b 200 693 139 576 161 640 l 69 824 l 136 890 l 267 760 b 454 821 318 799 383 821 b 642 758 525 821 589 797 l 772 890 l 839 824 l 707 693 b 769 506 746 642 769 576 m 233 506 b 454 285 233 385 328 285 b 675 506 581 285 675 385 b 454 726 675 628 581 726 b 233 506 328 726 233 628 "},"$":{"ha":740,"x_min":0,"x_max":0,"o":"m 671 260 b 393 -28 671 76 542 -24 l 393 -132 l 346 -132 l 346 -26 b 69 63 226 -21 142 17 l 69 326 l 103 326 b 346 29 103 104 214 36 l 346 464 b 289 510 328 478 308 493 b 78 843 128 643 78 721 b 346 1083 78 1000 199 1083 l 346 1178 l 393 1178 l 393 1081 b 621 989 483 1072 560 1038 l 621 797 l 588 797 b 393 1025 588 954 510 1017 l 393 649 l 410 636 b 671 260 579 497 671 425 m 196 892 b 346 685 196 811 254 757 l 346 1026 b 196 892 246 1019 196 961 m 393 31 b 553 199 499 40 553 110 b 393 425 553 278 488 346 l 393 31 "},"€":{"ha":938,"x_min":0,"x_max":0,"o":"m 868 414 b 543 -28 839 154 750 -28 b 169 471 328 -28 192 183 l 69 471 l 86 518 l 167 518 l 167 556 b 168 607 167 574 167 590 l 69 607 l 86 654 l 171 654 b 556 1139 197 939 339 1139 b 824 1011 665 1139 753 1088 l 824 754 l 790 754 b 585 1082 781 992 689 1082 b 340 654 435 1082 357 901 l 678 654 l 661 607 l 339 607 b 338 556 338 590 338 574 l 338 518 l 633 518 l 618 471 l 340 471 b 582 40 354 218 432 40 b 835 414 718 40 810 178 "},"£":{"ha":799,"x_min":0,"x_max":0,"o":"m 729 285 b 539 -28 719 178 697 -28 b 331 76 464 -28 393 26 b 181 -28 289 13 238 -28 b 69 90 114 -28 69 18 b 196 215 69 169 128 215 b 275 201 225 215 251 210 b 283 360 281 250 283 304 b 271 518 283 422 278 472 l 124 518 l 124 565 l 263 565 b 219 856 244 658 219 735 b 478 1139 219 1024 304 1139 b 685 978 603 1139 685 1063 b 610 907 685 936 651 907 b 533 975 569 907 533 932 b 468 1082 533 1026 539 1082 b 353 888 385 1082 353 999 b 407 565 353 763 389 689 l 583 565 l 583 518 l 413 518 b 417 424 415 489 417 458 b 369 154 417 325 399 231 b 536 106 417 129 467 106 b 697 285 626 106 676 164 m 179 29 b 261 128 221 29 246 68 b 186 157 235 146 210 157 b 126 92 150 157 126 131 b 179 29 126 57 144 29 "},"¥":{"ha":1122,"x_min":0,"x_max":0,"o":"m 1018 1078 b 860 981 933 1078 897 1063 l 669 563 l 975 563 l 975 515 l 649 515 l 636 489 l 636 394 l 975 394 l 975 347 l 636 347 l 636 143 b 783 33 636 58 654 33 l 783 0 l 331 0 l 331 33 b 479 143 461 33 479 58 l 479 347 l 147 347 l 147 394 l 479 394 l 479 489 l 467 515 l 147 515 l 147 563 l 443 563 l 232 983 b 69 1078 192 1064 154 1078 l 69 1111 l 501 1111 l 501 1078 b 417 982 372 1078 379 1058 l 614 586 l 618 586 l 797 981 b 708 1078 832 1058 838 1078 l 708 1111 l 1018 1111 l 1018 1078 "},"+":{"ha":708,"x_min":0,"x_max":0,"o":"m 69 426 l 304 426 l 304 660 l 407 660 l 407 426 l 639 426 l 639 324 l 407 324 l 407 90 l 304 90 l 304 324 l 69 324 "},"−":{"ha":618,"x_min":0,"x_max":0,"o":"m 69 426 l 549 426 l 549 324 l 69 324 "},"×":{"ha":615,"x_min":0,"x_max":0,"o":"m 142 610 l 308 444 l 474 608 l 546 536 l 381 371 l 544 207 l 472 135 l 308 299 l 143 133 l 71 207 l 236 371 l 69 538 "},"÷":{"ha":618,"x_min":0,"x_max":0,"o":"m 310 553 b 244 617 275 553 244 582 b 310 681 244 651 275 681 b 374 617 344 681 374 651 b 310 553 374 582 344 553 m 69 426 l 549 426 l 549 324 l 69 324 m 310 69 b 244 133 275 69 244 99 b 310 199 244 168 275 199 b 374 133 344 199 374 168 b 310 69 374 99 344 69 "},"=":{"ha":618,"x_min":0,"x_max":0,"o":"m 69 553 l 549 553 l 549 450 l 69 450 m 69 300 l 549 300 l 549 197 l 69 197 "},"≠":{"ha":618,"x_min":0,"x_max":0,"o":"m 364 450 l 304 300 l 549 300 l 549 197 l 264 197 l 186 4 l 136 4 l 214 197 l 69 197 l 69 300 l 254 300 l 314 450 l 69 450 l 69 553 l 356 553 l 433 747 l 483 747 l 406 553 l 549 553 l 549 450 "},">":{"ha":650,"x_min":0,"x_max":0,"o":"m 69 254 l 493 376 l 493 381 l 69 503 l 69 611 l 581 453 l 581 304 l 69 147 "},"<":{"ha":639,"x_min":0,"x_max":0,"o":"m 60 304 l 60 453 l 569 611 l 569 503 l 146 381 l 146 376 l 569 254 l 569 147 "},"≥":{"ha":650,"x_min":0,"x_max":0,"o":"m 69 331 l 493 453 l 493 457 l 69 579 l 69 688 l 581 529 l 581 381 l 69 224 m 69 193 l 581 193 l 581 92 l 69 92 "},"≤":{"ha":650,"x_min":0,"x_max":0,"o":"m 69 381 l 69 529 l 581 688 l 581 579 l 156 457 l 156 453 l 581 331 l 581 224 m 69 92 l 69 193 l 581 193 l 581 92 "},"±":{"ha":708,"x_min":0,"x_max":0,"o":"m 69 529 l 304 529 l 304 763 l 407 763 l 407 529 l 639 529 l 639 426 l 407 426 l 407 193 l 304 193 l 304 426 l 69 426 m 69 158 l 639 158 l 639 57 l 69 57 "},"≈":{"ha":858,"x_min":0,"x_max":0,"o":"m 789 611 b 608 400 783 482 717 400 b 238 511 471 400 375 511 b 103 401 168 511 118 479 l 69 401 b 249 613 75 531 142 613 b 619 501 388 613 483 501 b 756 611 690 501 740 533 m 789 347 b 608 136 783 218 717 136 b 238 247 471 136 375 247 b 103 138 168 247 118 215 l 69 138 b 249 349 75 267 142 349 b 619 238 388 349 483 238 b 756 347 690 238 740 269 "},"~":{"ha":858,"x_min":0,"x_max":0,"o":"m 789 479 b 608 268 783 350 717 268 b 238 379 471 268 375 379 b 103 269 168 379 118 347 l 69 269 b 249 481 75 399 142 481 b 619 369 388 481 483 369 b 756 479 690 369 740 401 "},"¬":{"ha":828,"x_min":0,"x_max":0,"o":"m 758 610 l 758 211 l 656 211 l 656 507 l 69 507 l 69 610 "},"^":{"ha":803,"x_min":0,"x_max":0,"o":"m 340 1111 l 460 1111 l 733 540 l 619 540 l 401 1008 l 397 1008 l 183 540 l 69 540 "},"∅":{"ha":904,"x_min":0,"x_max":0,"o":"m 721 656 b 804 428 772 594 804 514 b 451 75 804 233 646 75 b 224 160 364 75 285 107 l 110 46 l 69 86 l 183 200 b 100 428 132 261 100 340 b 451 781 100 622 257 781 b 681 696 539 781 618 749 l 794 810 l 835 769 m 157 428 b 224 240 157 357 182 292 l 639 656 b 451 722 588 697 522 722 b 157 428 289 722 157 590 m 747 428 b 679 615 747 499 722 564 l 264 200 b 451 133 315 158 381 133 b 747 428 614 133 747 265 "},"∞":{"ha":1275,"x_min":0,"x_max":0,"o":"m 957 822 b 1206 569 1093 822 1206 729 b 954 303 1206 400 1089 303 b 632 496 815 303 733 388 b 289 331 497 375 401 331 b 69 560 169 331 69 413 b 308 794 69 697 168 794 b 596 621 426 794 511 711 b 957 822 742 757 829 822 m 954 369 b 1147 576 1054 369 1147 442 b 978 746 1147 675 1076 746 b 692 550 869 746 807 661 b 676 536 686 546 682 540 b 954 369 771 438 847 369 m 269 407 b 553 579 349 407 411 444 b 301 729 454 679 386 729 b 126 556 197 729 126 651 b 269 407 126 467 189 407 "},"∫":{"ha":611,"x_min":0,"x_max":0,"o":"m 465 21 b 250 -250 465 -137 400 -250 b 69 -104 142 -250 69 -185 b 128 -39 69 -68 88 -39 b 189 -101 168 -39 186 -64 b 250 -193 192 -149 193 -193 b 342 6 321 -193 342 -104 b 146 896 342 306 146 582 b 367 1167 146 1054 217 1167 b 542 1021 469 1167 542 1101 b 483 956 542 985 524 956 b 422 1018 443 956 425 981 b 361 1110 419 1065 418 1110 b 269 901 290 1110 269 1021 b 465 21 269 611 465 335 "},"∏":{"ha":1218,"x_min":0,"x_max":0,"o":"m 1149 1106 b 1000 996 1019 1106 1000 1081 l 1000 -79 b 1149 -189 1000 -164 1019 -189 l 1149 -222 l 718 -222 l 718 -189 b 867 -79 849 -189 867 -164 l 867 1082 l 351 1082 l 351 -79 b 500 -189 351 -164 371 -189 l 500 -222 l 69 -222 l 69 -189 b 218 -79 199 -189 218 -164 l 218 996 b 69 1106 218 1081 199 1106 l 69 1139 l 1149 1139 l 1149 1106 "},"∑":{"ha":1001,"x_min":0,"x_max":0,"o":"m 875 1100 l 897 882 l 864 879 b 733 1082 846 1053 818 1082 l 253 1082 l 628 556 l 204 -89 l 746 -89 b 892 158 831 -89 861 -53 l 924 154 l 886 -111 l 869 -222 l 69 -222 l 69 -189 l 513 483 l 513 488 l 69 1106 l 69 1139 l 871 1139 "},"√":{"ha":938,"x_min":0,"x_max":0,"o":"m 678 -86 l 629 -86 l 263 635 l 97 553 l 69 603 l 356 746 l 658 135 l 663 135 l 854 1232 l 911 1232 "},"∂":{"ha":922,"x_min":0,"x_max":0,"o":"m 538 1139 b 843 533 774 1139 886 928 b 396 -83 803 146 629 -83 b 78 364 161 -83 35 92 b 474 719 114 586 281 719 b 788 551 647 719 735 636 b 515 1026 821 904 676 1026 b 242 888 419 1026 324 996 l 210 888 b 538 1139 268 1024 375 1139 m 401 -26 b 782 499 613 -26 739 190 b 511 661 733 588 651 661 b 210 342 374 661 244 547 b 401 -26 175 133 233 -26 "},"%":{"ha":1079,"x_min":0,"x_max":0,"o":"m 263 569 b 69 853 154 569 69 694 b 263 1139 69 1014 154 1139 b 453 853 368 1139 453 1014 b 263 569 453 694 368 569 m 914 1111 l 224 0 l 164 0 l 854 1111 m 263 611 b 351 853 331 611 351 721 b 263 1097 351 988 331 1097 b 172 853 192 1097 172 988 b 263 611 172 721 192 611 m 818 -28 b 625 257 710 -28 625 97 b 818 543 625 418 710 543 b 1010 257 924 543 1010 418 b 818 -28 1010 97 924 -28 m 818 14 b 907 257 886 14 907 124 b 818 501 907 392 886 501 b 728 257 747 501 728 392 b 818 14 728 124 747 14 "},"‰":{"ha":1474,"x_min":0,"x_max":0,"o":"m 263 569 b 69 853 154 569 69 694 b 263 1139 69 1014 154 1139 b 453 853 368 1139 453 1014 b 263 569 453 694 368 569 m 882 1111 l 192 0 l 132 0 l 822 1111 m 263 611 b 351 853 331 611 351 721 b 263 1097 351 988 331 1097 b 172 853 192 1097 172 988 b 263 611 172 721 192 611 m 751 -28 b 558 257 643 -28 558 97 b 751 543 558 418 643 543 b 943 257 857 543 943 418 b 751 -28 943 97 857 -28 m 1213 -28 b 1021 257 1106 -28 1021 97 b 1213 543 1021 418 1106 543 b 1404 257 1319 543 1404 418 b 1213 -28 1404 97 1319 -28 m 751 14 b 840 257 819 14 840 124 b 751 501 840 392 819 501 b 661 257 681 501 661 392 b 751 14 661 124 681 14 m 1213 14 b 1301 257 1282 14 1301 124 b 1213 501 1301 392 1282 501 b 1124 257 1143 501 1124 392 b 1213 14 1124 124 1143 14 "},"↑":{"ha":792,"x_min":0,"x_max":0,"o":"m 356 -87 l 356 617 b 382 844 356 711 382 763 l 378 844 b 143 569 306 682 225 622 l 75 647 b 372 960 221 726 304 810 l 421 960 b 717 647 489 810 571 726 l 650 569 b 414 844 567 622 486 682 l 410 844 b 436 617 410 763 436 711 l 436 -87 "},"↗":{"ha":932,"x_min":0,"x_max":0,"o":"m 78 47 l 575 544 b 754 686 642 611 696 628 l 751 689 b 390 661 586 626 488 640 l 399 764 b 829 775 558 717 675 717 l 864 742 b 853 310 806 586 806 469 l 749 303 b 776 664 729 399 714 499 l 774 667 b 632 486 717 608 699 553 l 135 -11 "},"→":{"ha":1186,"x_min":0,"x_max":0,"o":"m 69 415 l 774 415 b 1000 389 868 415 918 389 l 1000 393 b 725 629 839 465 779 546 l 804 696 b 1117 400 883 550 967 468 l 1117 351 b 804 54 967 283 883 200 l 725 122 b 1000 357 779 204 839 285 l 1000 361 b 774 335 918 361 867 335 l 69 335 "},"↘":{"ha":932,"x_min":0,"x_max":0,"o":"m 632 264 b 774 83 699 197 717 142 l 776 86 b 749 447 714 251 729 351 l 853 440 b 864 8 806 281 806 164 l 829 -25 b 399 -14 675 33 558 33 l 390 89 b 751 61 488 110 586 124 l 754 64 b 575 206 696 122 642 139 l 78 703 l 135 761 "},"↓":{"ha":792,"x_min":0,"x_max":0,"o":"m 436 168 b 410 -60 436 74 410 22 l 414 -60 b 650 215 486 103 567 163 l 717 138 b 421 -175 571 58 489 -25 l 372 -175 b 75 138 304 -25 221 58 l 143 215 b 378 -60 225 163 306 103 l 382 -60 b 356 168 382 22 356 74 l 356 872 l 436 872 "},"↙":{"ha":932,"x_min":0,"x_max":0,"o":"m 854 703 l 357 206 b 176 64 290 139 235 122 l 181 61 b 540 89 346 124 444 110 l 533 -14 b 103 -25 374 33 257 33 l 68 8 b 79 440 126 164 126 281 l 182 447 b 154 86 203 351 218 251 l 157 83 b 299 264 215 142 232 197 l 796 761 "},"←":{"ha":1186,"x_min":0,"x_max":0,"o":"m 413 335 b 186 361 318 335 268 361 l 186 357 b 461 122 347 285 407 204 l 382 54 b 69 351 303 200 219 283 l 69 400 b 382 696 219 468 303 550 l 461 629 b 186 393 407 546 347 465 l 186 389 b 413 415 268 389 318 415 l 1117 415 l 1117 335 "},"↖":{"ha":932,"x_min":0,"x_max":0,"o":"m 299 486 b 157 667 232 553 215 608 l 154 664 b 182 303 218 499 203 399 l 79 310 b 68 742 126 469 126 586 l 103 775 b 533 764 257 717 374 717 l 540 661 b 181 689 444 640 346 626 l 176 686 b 357 544 235 628 290 611 l 854 47 l 796 -11 "},"↔":{"ha":1603,"x_min":0,"x_max":0,"o":"m 1221 696 b 1533 400 1300 550 1383 468 l 1533 351 b 1221 54 1383 283 1300 200 l 1142 122 b 1417 357 1196 204 1256 285 l 1417 361 b 1190 335 1335 361 1283 335 l 413 335 b 186 361 318 335 268 361 l 186 357 b 461 122 347 285 407 204 l 382 54 b 69 351 303 200 219 283 l 69 400 b 382 696 219 468 303 550 l 461 629 b 186 393 407 546 347 465 l 186 389 b 413 415 268 389 318 415 l 1190 415 b 1417 389 1285 415 1335 389 l 1417 393 b 1142 629 1256 465 1196 546 l 1221 696 "},"↕":{"ha":782,"x_min":0,"x_max":0,"o":"m 408 -244 b 644 31 481 -83 561 -24 l 713 -49 b 415 -361 565 -128 483 -211 l 367 -361 b 69 -49 299 -211 215 -128 l 138 31 b 372 -244 219 -24 300 -83 l 376 -244 b 350 -18 376 -162 350 -112 l 350 760 b 376 986 350 853 376 904 l 372 986 b 138 711 300 825 219 765 l 69 790 b 367 1103 215 869 299 953 l 415 1103 b 713 790 483 953 565 869 l 644 711 b 408 986 561 765 481 825 l 404 986 b 432 760 404 904 432 854 l 432 -18 b 404 -244 432 -112 404 -162 l 408 -244 "},"◊":{"ha":803,"x_min":0,"x_max":0,"o":"m 733 540 l 460 -31 l 340 -31 l 69 540 l 340 1111 l 460 1111 m 619 540 l 401 1008 l 397 1008 l 183 540 l 397 72 l 401 72 "},"@":{"ha":1492,"x_min":0,"x_max":0,"o":"m 86 469 b 789 1078 160 846 467 1078 b 1332 415 1204 1078 1385 732 b 939 -28 1285 129 1104 -28 b 811 121 801 -28 800 64 l 815 143 l 810 143 b 564 -28 736 33 671 -28 b 403 343 417 -28 350 138 b 782 750 463 576 621 750 b 918 643 860 750 900 706 l 921 643 l 943 744 l 1047 751 l 926 178 b 978 29 907 86 908 29 b 1285 415 1082 29 1240 151 b 789 1031 1333 699 1182 1031 b 153 469 461 1031 222 794 b 721 -308 57 24 303 -308 b 1375 101 1071 -308 1269 -119 l 1422 101 b 721 -356 1315 -146 1089 -356 b 86 469 267 -356 -4 0 m 510 372 b 625 60 468 192 503 60 b 840 239 719 60 790 132 l 883 454 b 785 693 914 600 876 693 b 510 372 644 693 547 533 "},"&":{"ha":1100,"x_min":0,"x_max":0,"o":"m 1031 239 b 818 -28 1010 96 950 -28 b 638 65 753 -28 696 3 b 368 -28 569 8 482 -28 b 69 229 203 -28 69 56 b 322 590 69 386 176 485 b 246 890 275 700 246 806 b 517 1153 246 1063 368 1153 b 722 960 658 1153 722 1064 b 489 638 722 836 624 740 b 465 619 481 632 472 625 b 557 433 490 561 521 499 b 693 221 603 351 649 279 b 804 494 739 299 776 394 b 731 601 825 582 824 601 l 731 633 l 1017 633 l 1017 601 b 861 496 917 601 886 582 b 731 174 831 386 792 269 b 872 82 781 117 828 82 b 997 239 935 82 975 135 m 385 917 b 442 676 385 858 404 775 l 446 679 b 650 960 594 789 650 867 b 531 1096 650 1026 617 1096 b 385 917 432 1096 385 1007 m 415 29 b 601 107 488 29 549 58 b 425 383 550 172 493 264 b 353 522 399 429 375 475 b 229 244 267 435 229 350 b 415 29 229 114 301 29 "},"¶":{"ha":897,"x_min":0,"x_max":0,"o":"m 828 1106 b 679 996 699 1106 679 1081 l 679 -243 l 614 -243 l 614 1082 l 453 1082 l 453 -243 l 386 -243 l 386 608 b 69 874 200 608 69 696 b 386 1139 69 1051 200 1139 l 828 1139 "},"§":{"ha":599,"x_min":0,"x_max":0,"o":"m 529 482 b 386 249 529 372 450 297 b 483 39 449 182 483 117 b 292 -157 483 -90 394 -157 b 100 -14 168 -157 100 -79 b 158 53 100 24 121 53 b 219 -7 197 53 218 28 b 306 -110 224 -44 232 -110 b 421 13 379 -110 421 -60 b 242 238 421 83 363 140 b 69 501 115 335 69 393 b 214 735 69 611 151 688 b 117 943 151 800 117 865 b 307 1139 117 1074 206 1139 b 499 996 431 1139 499 1061 b 440 931 499 960 478 931 b 379 989 403 931 382 956 b 293 1092 376 1026 367 1092 b 179 971 219 1092 179 1042 b 358 746 179 900 236 842 b 529 482 483 649 529 590 m 143 543 b 318 311 143 458 192 417 b 363 271 335 297 349 285 b 457 440 418 319 457 369 b 282 671 457 524 408 567 b 236 713 265 685 250 699 b 143 543 182 664 143 614 "},"©":{"ha":1278,"x_min":0,"x_max":0,"o":"m 640 1144 b 1214 554 965 1144 1214 886 b 640 -33 1214 231 965 -33 b 64 554 311 -33 64 231 b 640 1144 64 886 311 1144 m 640 1097 b 111 554 335 1097 111 854 b 640 14 111 253 335 14 b 1167 554 938 14 1167 253 b 640 1097 1167 854 938 1097 m 286 553 b 633 914 286 763 436 914 b 867 836 782 914 840 836 b 881 886 878 836 881 844 l 913 886 l 933 629 l 901 629 b 649 857 882 781 779 857 b 399 553 507 857 399 739 b 663 250 399 367 507 250 b 947 492 799 250 904 336 l 981 492 b 635 192 935 313 825 192 b 286 553 429 192 286 343 "},"®":{"ha":1281,"x_min":0,"x_max":0,"o":"m 640 1144 b 1215 556 965 1144 1215 888 b 640 -33 1215 231 965 -33 b 64 556 311 -33 64 231 b 640 1144 64 888 311 1144 m 640 14 b 1168 556 938 14 1168 254 b 640 1097 1168 856 938 1097 b 111 556 335 1097 111 856 b 640 14 111 254 335 14 m 829 317 b 964 229 876 242 914 229 l 964 196 l 792 196 l 604 501 l 586 501 l 508 501 l 508 339 b 583 229 508 254 518 229 l 583 196 l 336 196 l 336 229 b 411 339 401 229 411 254 l 411 775 b 336 885 411 860 401 885 l 336 918 l 583 918 b 872 710 783 918 872 843 b 706 513 872 607 821 539 l 829 317 m 572 549 b 771 710 699 549 771 592 b 586 871 771 828 699 871 b 508 861 551 871 528 868 l 508 549 l 572 549 "},"™":{"ha":1590,"x_min":0,"x_max":0,"o":"m 201 1054 b 74 903 117 1054 89 1032 l 40 907 l 60 1068 l 65 1111 l 626 1111 l 631 1068 l 650 907 l 618 903 b 489 1054 603 1032 574 1054 l 397 1054 l 397 643 b 500 533 397 558 410 533 l 500 500 l 190 500 l 190 533 b 294 643 281 533 294 558 l 294 1054 l 201 1054 m 1122 654 l 1315 1111 l 1549 1111 l 1549 1078 b 1444 968 1457 1078 1444 1053 l 1444 643 b 1549 533 1444 558 1457 533 l 1549 500 l 1238 500 l 1238 533 b 1342 643 1329 533 1342 558 l 1342 1017 l 1338 1017 l 1107 472 l 1079 472 l 863 1017 l 858 1017 l 861 643 b 965 533 861 558 874 533 l 965 500 l 700 500 l 700 533 b 804 643 790 533 804 558 l 804 968 b 700 1078 804 1053 790 1078 l 700 1111 l 936 1111 l 1118 654 "},"°":{"ha":724,"x_min":0,"x_max":0,"o":"m 361 560 b 69 853 196 560 69 686 b 361 1144 69 1018 196 1144 b 654 853 528 1144 654 1018 b 361 560 654 686 528 560 m 361 649 b 565 853 476 649 565 736 b 361 1056 565 969 476 1056 b 158 853 246 1056 158 969 b 361 649 158 736 246 649 "},"|":{"ha":242,"x_min":0,"x_max":0,"o":"m 172 1196 l 172 -279 l 69 -279 l 69 1196 "},"¦":{"ha":242,"x_min":0,"x_max":0,"o":"m 172 1113 l 172 583 l 69 583 l 69 1113 m 172 333 l 172 -196 l 69 -196 l 69 333 "},"†":{"ha":699,"x_min":0,"x_max":0,"o":"m 554 915 b 629 840 596 915 629 889 b 554 765 629 792 596 765 b 363 826 497 765 461 821 b 433 638 365 735 390 692 b 365 138 386 540 368 424 l 365 -365 l 332 -365 l 332 138 b 265 638 331 424 311 540 b 339 826 307 692 336 735 b 143 765 238 822 203 765 b 69 840 103 765 69 792 b 143 915 69 889 103 915 b 339 851 203 915 238 856 b 274 1075 335 961 274 993 b 349 1154 274 1125 306 1154 b 425 1075 393 1154 425 1125 b 363 851 425 993 367 961 b 554 915 461 857 497 915 "},"‡":{"ha":699,"x_min":0,"x_max":0,"o":"m 554 -4 b 629 -81 596 -4 629 -32 b 554 -156 629 -129 596 -156 b 363 -92 497 -156 461 -97 b 425 -314 367 -201 425 -233 b 349 -394 425 -365 393 -394 b 274 -314 306 -394 274 -365 b 339 -92 274 -233 335 -201 b 143 -156 238 -96 203 -156 b 69 -81 103 -156 69 -129 b 143 -4 69 -32 103 -4 b 339 -67 203 -4 238 -62 b 283 108 336 11 314 54 b 338 381 322 192 338 260 b 283 653 338 500 322 569 b 339 826 314 707 336 749 b 143 765 238 822 203 765 b 69 840 103 765 69 792 b 143 915 69 889 103 915 b 339 851 203 915 238 856 b 274 1075 335 961 274 993 b 349 1154 274 1125 306 1154 b 425 1075 393 1154 425 1125 b 363 851 425 993 367 961 b 554 915 461 857 497 915 b 629 840 596 915 629 889 b 554 765 629 792 596 765 b 363 826 497 765 461 821 b 414 653 365 749 385 707 b 361 381 376 569 361 500 b 414 108 361 260 376 192 b 363 -67 385 54 365 11 b 554 -4 461 -61 497 -4 "},"̈":{"ha":0,"x_min":0,"x_max":0,"o":"m -425 921 b -507 1001 -469 921 -507 957 b -425 1083 -507 1047 -469 1083 b -343 1001 -381 1083 -343 1047 b -425 921 -343 957 -381 921 m -151 921 b -232 1001 -196 921 -232 957 b -151 1083 -232 1047 -196 1083 b -69 1001 -106 1083 -69 1047 b -151 921 -69 957 -106 921 "},"̇":{"ha":0,"x_min":0,"x_max":0,"o":"m -151 921 b -233 1001 -196 921 -233 957 b -151 1083 -233 1047 -196 1083 b -69 1001 -107 1083 -69 1047 b -151 921 -69 957 -107 921 "},"̀":{"ha":0,"x_min":0,"x_max":0,"o":"m -108 872 l -287 1126 l -149 1126 l -56 872 "},"́":{"ha":0,"x_min":0,"x_max":0,"o":"m -190 1126 l -51 1126 l -231 872 l -283 872 "},"̋":{"ha":0,"x_min":0,"x_max":0,"o":"m -297 1126 l -197 1126 l -329 872 l -371 872 m -142 1126 l -43 1126 l -185 872 l -226 872 "},"̂":{"ha":0,"x_min":0,"x_max":0,"o":"m -117 867 l -262 1046 l -410 867 l -462 867 l -331 1122 l -196 1122 l -64 867 "},"̌":{"ha":0,"x_min":0,"x_max":0,"o":"m -56 1122 l -187 867 l -322 867 l -454 1122 l -401 1122 l -256 943 l -108 1122 "},"̆":{"ha":0,"x_min":0,"x_max":0,"o":"m -69 1101 b -260 903 -78 971 -151 903 b -451 1101 -369 903 -443 971 l -418 1101 b -260 1006 -408 1038 -347 1006 b -103 1101 -172 1006 -112 1038 l -69 1101 "},"̊":{"ha":0,"x_min":0,"x_max":0,"o":"m -210 871 b -353 1014 -293 871 -353 939 b -210 1154 -353 1089 -293 1154 b -69 1014 -128 1154 -69 1089 b -210 871 -69 939 -128 871 m -210 924 b -121 1014 -150 924 -121 969 b -210 1103 -121 1057 -150 1103 b -300 1014 -271 1103 -300 1057 b -210 924 -300 969 -271 924 "},"̃":{"ha":0,"x_min":0,"x_max":0,"o":"m -189 919 b -399 1015 -276 919 -322 1015 b -474 919 -450 1015 -465 978 l -507 919 b -387 1113 -499 1011 -475 1113 b -176 1017 -299 1113 -254 1017 b -103 1113 -125 1017 -110 1054 l -69 1113 b -189 919 -78 1021 -101 919 "},"̄":{"ha":0,"x_min":0,"x_max":0,"o":"m -69 1019 l -69 963 l -479 963 l -479 1019 "},"̒":{"ha":0,"x_min":0,"x_max":0,"o":"m -115 1047 b -69 988 -92 1047 -69 1025 b -142 921 -69 943 -103 921 b -228 1017 -193 921 -228 958 b -85 1161 -228 1082 -186 1136 l -85 1128 b -174 1054 -125 1118 -174 1092 b -160 1033 -174 1044 -171 1033 b -115 1047 -149 1033 -139 1047 "},"̦":{"ha":0,"x_min":0,"x_max":0,"o":"m -182 -229 b -228 -169 -206 -229 -228 -207 b -156 -103 -228 -125 -194 -103 b -69 -199 -104 -103 -69 -140 b -212 -343 -69 -264 -111 -318 l -212 -310 b -124 -236 -172 -300 -124 -274 b -137 -215 -124 -226 -126 -215 b -182 -229 -149 -215 -158 -229 "},"̧":{"ha":0,"x_min":0,"x_max":0,"o":"m -201 14 l -143 14 l -211 -74 b -69 -190 -143 -79 -69 -111 b -393 -344 -69 -326 -239 -365 l -385 -312 b -172 -203 -254 -322 -172 -287 b -315 -107 -172 -129 -233 -108 "},"̨":{"ha":0,"x_min":0,"x_max":0,"o":"m -136 -14 b -276 -196 -194 -78 -276 -100 b -183 -286 -276 -250 -244 -286 b -69 -254 -150 -286 -121 -278 l -61 -287 b -225 -349 -108 -325 -160 -349 b -379 -214 -307 -349 -379 -303 b -172 -14 -379 -76 -228 -58 l -136 -14 "},"´":{"ha":347,"x_min":0,"x_max":0,"o":"m 157 1126 l 296 1126 l 117 872 l 64 872 "},"˘":{"ha":521,"x_min":0,"x_max":0,"o":"m 451 1101 b 261 903 443 971 369 903 b 69 1101 151 903 78 971 l 103 1101 b 261 1006 113 1038 174 1006 b 418 1101 349 1006 408 1038 l 451 1101 "},"ˇ":{"ha":510,"x_min":0,"x_max":0,"o":"m 454 1122 l 322 867 l 188 867 l 56 1122 l 108 1122 l 254 943 l 401 1122 "},"¸":{"ha":463,"x_min":0,"x_max":0,"o":"m 261 14 l 319 14 l 251 -74 b 393 -190 319 -79 393 -111 b 69 -344 393 -326 224 -365 l 78 -312 b 290 -203 208 -322 290 -287 b 147 -107 290 -129 229 -108 "},"ˆ":{"ha":510,"x_min":0,"x_max":0,"o":"m 401 867 l 254 1046 l 108 867 l 56 867 l 188 1122 l 322 1122 l 454 867 "},"¨":{"ha":576,"x_min":0,"x_max":0,"o":"m 151 921 b 69 1001 107 921 69 957 b 151 1083 69 1047 107 1083 b 233 1001 196 1083 233 1047 b 151 921 233 957 196 921 m 425 921 b 344 1001 381 921 344 957 b 425 1083 344 1047 381 1083 b 507 1001 471 1083 507 1047 b 425 921 507 957 471 921 "},"˙":{"ha":303,"x_min":0,"x_max":0,"o":"m 151 921 b 69 1001 107 921 69 957 b 151 1083 69 1047 107 1083 b 233 1001 196 1083 233 1047 b 151 921 233 957 196 921 "},"`":{"ha":347,"x_min":0,"x_max":0,"o":"m 231 872 l 50 1126 l 189 1126 l 282 872 "},"˝":{"ha":467,"x_min":0,"x_max":0,"o":"m 143 1126 l 243 1126 l 111 872 l 69 872 m 299 1126 l 397 1126 l 256 872 l 214 872 "},"¯":{"ha":549,"x_min":0,"x_max":0,"o":"m 479 1019 l 479 963 l 69 963 l 69 1019 "},"˛":{"ha":457,"x_min":0,"x_max":0,"o":"m 321 -14 b 181 -196 263 -78 181 -100 b 274 -286 181 -250 213 -286 b 388 -254 307 -286 336 -278 l 396 -287 b 232 -349 349 -325 297 -349 b 78 -214 150 -349 78 -303 b 285 -14 78 -76 229 -58 l 321 -14 "},"˚":{"ha":422,"x_min":0,"x_max":0,"o":"m 213 871 b 69 1014 129 871 69 939 b 213 1154 69 1089 129 1154 b 353 1014 294 1154 353 1089 b 213 871 353 939 294 871 m 213 924 b 301 1014 272 924 301 969 b 213 1103 301 1057 272 1103 b 122 1014 151 1103 122 1057 b 213 924 122 969 151 924 "},"˜":{"ha":576,"x_min":0,"x_max":0,"o":"m 388 919 b 178 1015 300 919 254 1015 b 103 919 126 1015 111 978 l 69 919 b 189 1113 78 1011 101 1113 b 400 1017 278 1113 322 1017 b 474 1113 451 1017 467 1054 l 507 1113 b 388 919 499 1021 475 919 "}}}
